<?xml version="1.0" encoding="utf-8" standalone="no"?>
<!DOCTYPE svg PUBLIC "-//W3C//DTD SVG 1.1//EN"
  "http://www.w3.org/Graphics/SVG/1.1/DTD/svg11.dtd">
<svg xmlns:xlink="http://www.w3.org/1999/xlink" width="460.8pt" height="345.6pt" viewBox="0 0 460.8 345.6" xmlns="http://www.w3.org/2000/svg" version="1.1">
 <metadata>
  <rdf:RDF xmlns:dc="http://purl.org/dc/elements/1.1/" xmlns:cc="http://creativecommons.org/ns#" xmlns:rdf="http://www.w3.org/1999/02/22-rdf-syntax-ns#">
   <cc:Work>
    <dc:type rdf:resource="http://purl.org/dc/dcmitype/StillImage"/>
    <dc:date>2024-06-09T17:27:50.754750</dc:date>
    <dc:format>image/svg+xml</dc:format>
    <dc:creator>
     <cc:Agent>
      <dc:title>Matplotlib v3.8.0, https://matplotlib.org/</dc:title>
     </cc:Agent>
    </dc:creator>
   </cc:Work>
  </rdf:RDF>
 </metadata>
 <defs>
  <style type="text/css">*{stroke-linejoin: round; stroke-linecap: butt}</style>
 </defs>
 <g id="figure_1">
  <g id="patch_1">
   <path d="M 0 345.6 
L 460.8 345.6 
L 460.8 0 
L 0 0 
z
" style="fill: #ffffff"/>
  </g>
  <g id="axes_1">
   <g id="patch_2">
    <path d="M 236.159979 53.568 
C 219.068598 53.568 202.1697 57.190462 186.580032 64.195999 
C 170.990363 71.201536 157.061067 81.432355 145.712645 94.212364 
C 134.364222 106.992373 125.852287 122.033713 120.739341 138.342395 
C 115.626395 154.651076 114.027602 171.859761 116.048617 188.831231 
L 164.093162 183.109939 
C 162.880553 172.927057 163.839828 162.601846 166.907596 152.816637 
C 169.975364 143.031428 175.082525 134.006624 181.891578 126.338619 
C 188.700632 118.670613 197.05821 112.532122 206.412011 108.3288 
C 215.765812 104.125477 225.90515 101.952 236.159979 101.952 
z
" style="fill: #1f77b4"/>
   </g>
   <g id="patch_3">
    <path d="M 116.048617 188.831231 
C 117.826945 203.764744 122.374815 218.236473 129.458515 231.502725 
C 136.542214 244.768978 146.038286 256.598546 157.458733 266.383516 
L 188.939232 229.64131 
C 182.086963 223.770328 176.38932 216.672587 172.1391 208.712835 
C 167.888881 200.753084 165.160159 192.070047 164.093162 183.109939 
z
" style="fill: #ff7f0e"/>
   </g>
   <g id="patch_4">
    <path d="M 157.458733 266.383516 
C 168.83711 276.132439 181.9285 283.682833 196.06502 288.649497 
C 210.201541 293.616162 225.138631 295.913175 240.114246 295.42335 
L 238.532539 247.06521 
C 229.54717 247.359105 220.584916 245.980898 212.103004 243.000899 
C 203.621092 240.0209 195.766257 235.490664 188.939232 229.64131 
z
" style="fill: #2ca02c"/>
   </g>
   <g id="patch_5">
    <path d="M 240.114246 295.42335 
C 254.868409 294.940768 269.410363 291.761323 283.019683 286.042528 
C 296.629004 280.323733 309.077178 272.161612 319.747512 261.960523 
L 286.312499 226.987514 
C 279.910299 233.108167 272.441394 238.00544 264.275802 241.436717 
C 256.110209 244.867994 247.385037 246.775661 238.532539 247.06521 
z
" style="fill: #d62728"/>
   </g>
   <g id="patch_6">
    <path d="M 319.747512 261.960523 
C 330.337783 251.835977 339.000972 239.871036 345.314219 226.64972 
C 351.627466 213.428404 355.486356 199.169386 356.702531 184.56866 
L 308.48551 180.552396 
C 307.755805 189.312832 305.440471 197.868243 301.652523 205.801032 
C 297.864575 213.733822 292.666662 220.912786 286.312499 226.987514 
z
" style="fill: #9467bd"/>
   </g>
   <g id="patch_7">
    <path d="M 356.702531 184.56866 
C 357.519719 174.757965 357.136152 164.884096 355.56035 155.166361 
C 353.984549 145.448626 351.228267 135.95951 347.352723 126.909776 
L 302.875626 145.957066 
C 305.200951 151.386906 306.854721 157.080376 307.800202 162.911017 
C 308.745683 168.741658 308.975823 174.66598 308.48551 180.552396 
z
" style="fill: #8c564b"/>
   </g>
   <g id="patch_8">
    <path d="M 347.352723 126.909776 
C 343.650788 118.265432 338.953407 110.082194 333.355829 102.525997 
C 327.758251 94.969799 321.298568 88.092062 314.107765 82.032247 
L 282.928651 119.030549 
C 287.243132 122.666438 291.118942 126.79308 294.477489 131.326798 
C 297.836036 135.860517 300.654465 140.770459 302.875626 145.957066 
z
" style="fill: #e377c2"/>
   </g>
   <g id="patch_9">
    <path d="M 314.107765 82.032247 
C 310.914745 79.341433 307.584532 76.817762 304.130505 74.47137 
C 300.676478 72.124978 297.103268 69.959013 293.425229 67.982175 
L 270.519129 110.600505 
C 272.725952 111.786608 274.869878 113.086187 276.942295 114.494022 
C 279.014711 115.901857 281.012838 117.41606 282.928651 119.030549 
z
" style="fill: #7f7f7f"/>
   </g>
   <g id="patch_10">
    <path d="M 293.425229 67.982175 
C 290.473354 66.395629 287.456819 64.932441 284.383435 63.5964 
C 281.31005 62.260358 278.18247 61.052617 275.00879 59.976302 
L 259.469265 105.796981 
C 261.373474 106.44277 263.250022 107.167415 265.094052 107.96904 
C 266.938083 108.770665 268.748004 109.648578 270.519129 110.600505 
z
" style="fill: #bcbd22"/>
   </g>
   <g id="patch_11">
    <path d="M 275.00879 59.976302 
C 273.500159 59.464668 271.981568 58.982887 270.453906 58.531241 
C 268.926244 58.079594 267.389809 57.65817 265.8455 57.267216 
L 253.971291 104.17153 
C 254.897877 104.406102 255.819738 104.658957 256.736335 104.929945 
C 257.652933 105.200933 258.564087 105.490001 259.469265 105.796981 
z
" style="fill: #17becf"/>
   </g>
   <g id="patch_12">
    <path d="M 265.8455 57.267216 
C 264.567464 56.943671 263.284224 56.641041 261.996294 56.359449 
C 260.708365 56.077857 259.415917 55.817339 258.119471 55.578001 
L 249.335674 103.158001 
C 250.113542 103.301604 250.88901 103.457914 251.661768 103.62687 
C 252.434526 103.795825 253.20447 103.977403 253.971291 104.17153 
z
" style="fill: #1f77b4"/>
   </g>
   <g id="patch_13">
    <path d="M 258.119471 55.578001 
C 257.363221 55.438389 256.605658 55.305992 255.846883 55.180828 
C 255.088108 55.055665 254.328158 54.93774 253.567134 54.82707 
L 246.604272 102.707442 
C 247.060886 102.773844 247.516857 102.844599 247.972121 102.919697 
C 248.427386 102.994795 248.881924 103.074233 249.335674 103.158001 
z
" style="fill: #ff7f0e"/>
   </g>
   <g id="patch_14">
    <path d="M 253.567134 54.82707 
C 253.023548 54.748021 252.479429 54.672675 251.934816 54.601038 
C 251.390203 54.529402 250.845109 54.461476 250.299571 54.397265 
L 244.643734 102.449559 
C 244.971057 102.488086 245.298114 102.528841 245.624881 102.571823 
C 245.951649 102.614805 246.27812 102.660013 246.604272 102.707442 
z
" style="fill: #2ca02c"/>
   </g>
   <g id="patch_15">
    <path d="M 250.299571 54.397265 
C 249.863141 54.345896 249.426434 54.296906 248.98947 54.250297 
C 248.552507 54.203688 248.115292 54.159461 247.677846 54.117617 
L 243.070699 102.28177 
C 243.333167 102.306877 243.595496 102.333413 243.857674 102.361379 
C 244.119852 102.389344 244.381876 102.418738 244.643734 102.449559 
z
" style="fill: #d62728"/>
   </g>
   <g id="patch_16">
    <path d="M 247.677846 54.117617 
C 247.295081 54.081004 246.912144 54.046215 246.529047 54.013254 
C 246.145951 53.980292 245.762699 53.949158 245.379305 53.919851 
L 241.691575 102.163111 
C 241.921611 102.180695 242.151562 102.199376 242.38142 102.219153 
C 242.611278 102.23893 242.84104 102.259802 243.070699 102.28177 
z
" style="fill: #9467bd"/>
   </g>
   <g id="patch_17">
    <path d="M 245.379305 53.919851 
C 245.105453 53.898918 244.83153 53.878917 244.557542 53.85985 
C 244.283553 53.840782 244.0095 53.822648 243.735388 53.805447 
L 240.705225 102.094469 
C 240.869692 102.104789 241.034124 102.115669 241.198517 102.12711 
C 241.36291 102.13855 241.527263 102.150551 241.691575 102.163111 
z
" style="fill: #8c564b"/>
   </g>
   <g id="patch_18">
    <path d="M 243.735388 53.805447 
C 243.461276 53.788246 243.187106 53.771979 242.912884 53.756646 
C 242.638661 53.741313 242.364386 53.726914 242.090065 53.713449 
L 239.718031 102.03927 
C 239.882623 102.047349 240.047188 102.055988 240.211722 102.065188 
C 240.376255 102.074388 240.540757 102.084148 240.705225 102.094469 
z
" style="fill: #e377c2"/>
   </g>
   <g id="patch_19">
    <path d="M 242.090065 53.713449 
C 241.870609 53.702677 241.651123 53.692504 241.431611 53.682928 
C 241.212099 53.673352 240.992561 53.664374 240.773 53.655995 
L 238.927792 102.004797 
C 239.059528 102.009825 239.191251 102.015211 239.322958 102.020957 
C 239.454665 102.026702 239.586357 102.032807 239.718031 102.03927 
z
" style="fill: #7f7f7f"/>
   </g>
   <g id="patch_20">
    <path d="M 240.773 53.655995 
C 240.553439 53.647615 240.333855 53.639834 240.114252 53.632651 
C 239.894649 53.625469 239.675026 53.618884 239.455387 53.612898 
L 238.137224 101.978939 
C 238.269007 101.982531 238.400781 101.986481 238.532543 101.990791 
C 238.664305 101.995101 238.796055 101.999769 238.927792 102.004797 
z
" style="fill: #bcbd22"/>
   </g>
   <g id="patch_21">
    <path d="M 239.455387 53.612898 
C 239.235747 53.606912 239.016092 53.601524 238.796423 53.596735 
C 238.576755 53.591946 238.357073 53.587756 238.137382 53.584164 
L 237.346421 101.961699 
C 237.478236 101.963854 237.610044 101.966368 237.741846 101.969241 
C 237.873647 101.972115 238.00544 101.975347 238.137224 101.978939 
z
" style="fill: #17becf"/>
   </g>
   <g id="patch_22">
    <path d="M 238.137382 53.584164 
C 237.972613 53.58147 237.807839 53.579113 237.643061 53.577092 
C 237.478283 53.575072 237.3135 53.573388 237.148715 53.572041 
L 236.753221 101.954425 
C 236.852092 101.955233 236.950961 101.956243 237.049828 101.957456 
C 237.148695 101.958668 237.247559 101.960082 237.346421 101.961699 
z
" style="fill: #1f77b4"/>
   </g>
   <g id="patch_23">
    <path d="M 237.148715 53.572041 
C 237.093787 53.571592 237.038858 53.57118 236.983929 53.570806 
C 236.929001 53.570432 236.874071 53.570095 236.819142 53.569796 
L 236.555477 101.953078 
C 236.588434 101.953257 236.621392 101.95346 236.654349 101.953684 
C 236.687307 101.953909 236.720264 101.954155 236.753221 101.954425 
z
" style="fill: #ff7f0e"/>
   </g>
   <g id="patch_24">
    <path d="M 236.819142 53.569796 
C 236.764213 53.569497 236.709283 53.569235 236.654353 53.56901 
C 236.599424 53.568786 236.544494 53.568599 236.489564 53.568449 
L 236.35773 101.95227 
C 236.390688 101.952359 236.423646 101.952472 236.456604 101.952606 
C 236.489561 101.952741 236.522519 101.952898 236.555477 101.953078 
z
" style="fill: #2ca02c"/>
   </g>
   <g id="patch_25">
    <path d="M 236.489564 53.568449 
C 236.434634 53.568299 236.379704 53.568187 236.324773 53.568112 
C 236.269843 53.568037 236.214913 53.568 236.159983 53.568 
L 236.159981 101.952 
C 236.192939 101.952 236.225898 101.952023 236.258856 101.952068 
C 236.291814 101.952113 236.324772 101.95218 236.35773 101.95227 
z
" style="fill: #d62728"/>
   </g>
   <g id="patch_26">
    <path d="M 236.159979 259.200001 
C 258.615256 259.200001 280.153846 250.278425 296.032125 234.400146 
C 311.910403 218.521868 320.831979 196.983278 320.831979 174.528001 
C 320.831979 152.072724 311.910403 130.534134 296.032125 114.655855 
C 280.153846 98.777576 258.615256 89.856 236.159979 89.856 
C 213.704702 89.856 192.166112 98.777576 176.287833 114.655855 
C 160.409555 130.534134 151.487979 152.072724 151.487979 174.528001 
C 151.487979 196.983278 160.409555 218.521868 176.287833 234.400146 
C 192.166112 250.278425 213.704702 259.200001 236.159979 259.200001 
z
" clip-path="url(#p31213ae977)" style="fill: #ffffff"/>
   </g>
   <g id="matplotlib.axis_1"/>
   <g id="matplotlib.axis_2"/>
   <g id="text_1">
    <!-- ['L'] -->
    <g transform="translate(117.796036 88.940175) scale(0.1 -0.1)">
     <defs>
      <path id="DejaVuSans-5b" d="M 550 4863 
L 1875 4863 
L 1875 4416 
L 1125 4416 
L 1125 -397 
L 1875 -397 
L 1875 -844 
L 550 -844 
L 550 4863 
z
" transform="scale(0.015625)"/>
      <path id="DejaVuSans-27" d="M 1147 4666 
L 1147 2931 
L 616 2931 
L 616 4666 
L 1147 4666 
z
" transform="scale(0.015625)"/>
      <path id="DejaVuSans-4c" d="M 628 4666 
L 1259 4666 
L 1259 531 
L 3531 531 
L 3531 0 
L 628 0 
L 628 4666 
z
" transform="scale(0.015625)"/>
      <path id="DejaVuSans-5d" d="M 1947 4863 
L 1947 -844 
L 622 -844 
L 622 -397 
L 1369 -397 
L 1369 4416 
L 622 4416 
L 622 4863 
L 1947 4863 
z
" transform="scale(0.015625)"/>
     </defs>
     <use xlink:href="#DejaVuSans-5b"/>
     <use xlink:href="#DejaVuSans-27" x="39.013672"/>
     <use xlink:href="#DejaVuSans-4c" x="66.503906"/>
     <use xlink:href="#DejaVuSans-27" x="122.216797"/>
     <use xlink:href="#DejaVuSans-5d" x="149.707031"/>
    </g>
   </g>
   <g id="text_2">
    <!-- 26.9% -->
    <g transform="translate(166.007985 129.097994) scale(0.1 -0.1)">
     <defs>
      <path id="DejaVuSans-32" d="M 1228 531 
L 3431 531 
L 3431 0 
L 469 0 
L 469 531 
Q 828 903 1448 1529 
Q 2069 2156 2228 2338 
Q 2531 2678 2651 2914 
Q 2772 3150 2772 3378 
Q 2772 3750 2511 3984 
Q 2250 4219 1831 4219 
Q 1534 4219 1204 4116 
Q 875 4013 500 3803 
L 500 4441 
Q 881 4594 1212 4672 
Q 1544 4750 1819 4750 
Q 2544 4750 2975 4387 
Q 3406 4025 3406 3419 
Q 3406 3131 3298 2873 
Q 3191 2616 2906 2266 
Q 2828 2175 2409 1742 
Q 1991 1309 1228 531 
z
" transform="scale(0.015625)"/>
      <path id="DejaVuSans-36" d="M 2113 2584 
Q 1688 2584 1439 2293 
Q 1191 2003 1191 1497 
Q 1191 994 1439 701 
Q 1688 409 2113 409 
Q 2538 409 2786 701 
Q 3034 994 3034 1497 
Q 3034 2003 2786 2293 
Q 2538 2584 2113 2584 
z
M 3366 4563 
L 3366 3988 
Q 3128 4100 2886 4159 
Q 2644 4219 2406 4219 
Q 1781 4219 1451 3797 
Q 1122 3375 1075 2522 
Q 1259 2794 1537 2939 
Q 1816 3084 2150 3084 
Q 2853 3084 3261 2657 
Q 3669 2231 3669 1497 
Q 3669 778 3244 343 
Q 2819 -91 2113 -91 
Q 1303 -91 875 529 
Q 447 1150 447 2328 
Q 447 3434 972 4092 
Q 1497 4750 2381 4750 
Q 2619 4750 2861 4703 
Q 3103 4656 3366 4563 
z
" transform="scale(0.015625)"/>
      <path id="DejaVuSans-2e" d="M 684 794 
L 1344 794 
L 1344 0 
L 684 0 
L 684 794 
z
" transform="scale(0.015625)"/>
      <path id="DejaVuSans-39" d="M 703 97 
L 703 672 
Q 941 559 1184 500 
Q 1428 441 1663 441 
Q 2288 441 2617 861 
Q 2947 1281 2994 2138 
Q 2813 1869 2534 1725 
Q 2256 1581 1919 1581 
Q 1219 1581 811 2004 
Q 403 2428 403 3163 
Q 403 3881 828 4315 
Q 1253 4750 1959 4750 
Q 2769 4750 3195 4129 
Q 3622 3509 3622 2328 
Q 3622 1225 3098 567 
Q 2575 -91 1691 -91 
Q 1453 -91 1209 -44 
Q 966 3 703 97 
z
M 1959 2075 
Q 2384 2075 2632 2365 
Q 2881 2656 2881 3163 
Q 2881 3666 2632 3958 
Q 2384 4250 1959 4250 
Q 1534 4250 1286 3958 
Q 1038 3666 1038 3163 
Q 1038 2656 1286 2365 
Q 1534 2075 1959 2075 
z
" transform="scale(0.015625)"/>
      <path id="DejaVuSans-25" d="M 4653 2053 
Q 4381 2053 4226 1822 
Q 4072 1591 4072 1178 
Q 4072 772 4226 539 
Q 4381 306 4653 306 
Q 4919 306 5073 539 
Q 5228 772 5228 1178 
Q 5228 1588 5073 1820 
Q 4919 2053 4653 2053 
z
M 4653 2450 
Q 5147 2450 5437 2106 
Q 5728 1763 5728 1178 
Q 5728 594 5436 251 
Q 5144 -91 4653 -91 
Q 4153 -91 3862 251 
Q 3572 594 3572 1178 
Q 3572 1766 3864 2108 
Q 4156 2450 4653 2450 
z
M 1428 4353 
Q 1159 4353 1004 4120 
Q 850 3888 850 3481 
Q 850 3069 1003 2837 
Q 1156 2606 1428 2606 
Q 1700 2606 1854 2837 
Q 2009 3069 2009 3481 
Q 2009 3884 1853 4118 
Q 1697 4353 1428 4353 
z
M 4250 4750 
L 4750 4750 
L 1831 -91 
L 1331 -91 
L 4250 4750 
z
M 1428 4750 
Q 1922 4750 2215 4408 
Q 2509 4066 2509 3481 
Q 2509 2891 2217 2550 
Q 1925 2209 1428 2209 
Q 931 2209 642 2551 
Q 353 2894 353 3481 
Q 353 4063 643 4406 
Q 934 4750 1428 4750 
z
" transform="scale(0.015625)"/>
     </defs>
     <use xlink:href="#DejaVuSans-32"/>
     <use xlink:href="#DejaVuSans-36" x="63.623047"/>
     <use xlink:href="#DejaVuSans-2e" x="127.246094"/>
     <use xlink:href="#DejaVuSans-39" x="159.033203"/>
     <use xlink:href="#DejaVuSans-25" x="222.65625"/>
    </g>
   </g>
   <g id="text_3">
    <!-- ['B'] -->
    <g transform="translate(98.627431 239.959573) scale(0.1 -0.1)">
     <defs>
      <path id="DejaVuSans-42" d="M 1259 2228 
L 1259 519 
L 2272 519 
Q 2781 519 3026 730 
Q 3272 941 3272 1375 
Q 3272 1813 3026 2020 
Q 2781 2228 2272 2228 
L 1259 2228 
z
M 1259 4147 
L 1259 2741 
L 2194 2741 
Q 2656 2741 2882 2914 
Q 3109 3088 3109 3444 
Q 3109 3797 2882 3972 
Q 2656 4147 2194 4147 
L 1259 4147 
z
M 628 4666 
L 2241 4666 
Q 2963 4666 3353 4366 
Q 3744 4066 3744 3513 
Q 3744 3084 3544 2831 
Q 3344 2578 2956 2516 
Q 3422 2416 3680 2098 
Q 3938 1781 3938 1306 
Q 3938 681 3513 340 
Q 3088 0 2303 0 
L 628 0 
L 628 4666 
z
" transform="scale(0.015625)"/>
     </defs>
     <use xlink:href="#DejaVuSans-5b"/>
     <use xlink:href="#DejaVuSans-27" x="39.013672"/>
     <use xlink:href="#DejaVuSans-42" x="66.503906"/>
     <use xlink:href="#DejaVuSans-27" x="135.107422"/>
     <use xlink:href="#DejaVuSans-5d" x="162.597656"/>
    </g>
   </g>
   <g id="text_4">
    <!-- 11.8% -->
    <g transform="translate(156.255507 211.47221) scale(0.1 -0.1)">
     <defs>
      <path id="DejaVuSans-31" d="M 794 531 
L 1825 531 
L 1825 4091 
L 703 3866 
L 703 4441 
L 1819 4666 
L 2450 4666 
L 2450 531 
L 3481 531 
L 3481 0 
L 794 0 
L 794 531 
z
" transform="scale(0.015625)"/>
      <path id="DejaVuSans-38" d="M 2034 2216 
Q 1584 2216 1326 1975 
Q 1069 1734 1069 1313 
Q 1069 891 1326 650 
Q 1584 409 2034 409 
Q 2484 409 2743 651 
Q 3003 894 3003 1313 
Q 3003 1734 2745 1975 
Q 2488 2216 2034 2216 
z
M 1403 2484 
Q 997 2584 770 2862 
Q 544 3141 544 3541 
Q 544 4100 942 4425 
Q 1341 4750 2034 4750 
Q 2731 4750 3128 4425 
Q 3525 4100 3525 3541 
Q 3525 3141 3298 2862 
Q 3072 2584 2669 2484 
Q 3125 2378 3379 2068 
Q 3634 1759 3634 1313 
Q 3634 634 3220 271 
Q 2806 -91 2034 -91 
Q 1263 -91 848 271 
Q 434 634 434 1313 
Q 434 1759 690 2068 
Q 947 2378 1403 2484 
z
M 1172 3481 
Q 1172 3119 1398 2916 
Q 1625 2713 2034 2713 
Q 2441 2713 2670 2916 
Q 2900 3119 2900 3481 
Q 2900 3844 2670 4047 
Q 2441 4250 2034 4250 
Q 1625 4250 1398 4047 
Q 1172 3844 1172 3481 
z
" transform="scale(0.015625)"/>
     </defs>
     <use xlink:href="#DejaVuSans-31"/>
     <use xlink:href="#DejaVuSans-31" x="63.623047"/>
     <use xlink:href="#DejaVuSans-2e" x="127.246094"/>
     <use xlink:href="#DejaVuSans-38" x="159.033203"/>
     <use xlink:href="#DejaVuSans-25" x="222.65625"/>
    </g>
   </g>
   <g id="text_5">
    <!-- [] -->
    <g transform="translate(184.252399 302.821022) scale(0.1 -0.1)">
     <use xlink:href="#DejaVuSans-5b"/>
     <use xlink:href="#DejaVuSans-5d" x="39.013672"/>
    </g>
   </g>
   <g id="text_6">
    <!-- 11.8% -->
    <g transform="translate(196.21941 245.760274) scale(0.1 -0.1)">
     <use xlink:href="#DejaVuSans-31"/>
     <use xlink:href="#DejaVuSans-31" x="63.623047"/>
     <use xlink:href="#DejaVuSans-2e" x="127.246094"/>
     <use xlink:href="#DejaVuSans-38" x="159.033203"/>
     <use xlink:href="#DejaVuSans-25" x="222.65625"/>
    </g>
   </g>
   <g id="text_7">
    <!-- ['U'] -->
    <g transform="translate(287.705654 299.953356) scale(0.1 -0.1)">
     <defs>
      <path id="DejaVuSans-55" d="M 556 4666 
L 1191 4666 
L 1191 1831 
Q 1191 1081 1462 751 
Q 1734 422 2344 422 
Q 2950 422 3222 751 
Q 3494 1081 3494 1831 
L 3494 4666 
L 4128 4666 
L 4128 1753 
Q 4128 841 3676 375 
Q 3225 -91 2344 -91 
Q 1459 -91 1007 375 
Q 556 841 556 1753 
L 556 4666 
z
" transform="scale(0.015625)"/>
     </defs>
     <use xlink:href="#DejaVuSans-5b"/>
     <use xlink:href="#DejaVuSans-27" x="39.013672"/>
     <use xlink:href="#DejaVuSans-55" x="66.503906"/>
     <use xlink:href="#DejaVuSans-27" x="139.697266"/>
     <use xlink:href="#DejaVuSans-5d" x="167.1875"/>
    </g>
   </g>
   <g id="text_8">
    <!-- 11.6% -->
    <g transform="translate(248.392208 244.196092) scale(0.1 -0.1)">
     <use xlink:href="#DejaVuSans-31"/>
     <use xlink:href="#DejaVuSans-31" x="63.623047"/>
     <use xlink:href="#DejaVuSans-2e" x="127.246094"/>
     <use xlink:href="#DejaVuSans-36" x="159.033203"/>
     <use xlink:href="#DejaVuSans-25" x="222.65625"/>
    </g>
   </g>
   <g id="text_9">
    <!-- ['W'] -->
    <g transform="translate(356.229643 234.621267) scale(0.1 -0.1)">
     <defs>
      <path id="DejaVuSans-57" d="M 213 4666 
L 850 4666 
L 1831 722 
L 2809 4666 
L 3519 4666 
L 4500 722 
L 5478 4666 
L 6119 4666 
L 4947 0 
L 4153 0 
L 3169 4050 
L 2175 0 
L 1381 0 
L 213 4666 
z
" transform="scale(0.015625)"/>
     </defs>
     <use xlink:href="#DejaVuSans-5b"/>
     <use xlink:href="#DejaVuSans-27" x="39.013672"/>
     <use xlink:href="#DejaVuSans-57" x="66.503906"/>
     <use xlink:href="#DejaVuSans-27" x="165.380859"/>
     <use xlink:href="#DejaVuSans-5d" x="192.871094"/>
    </g>
   </g>
   <g id="text_10">
    <!-- 11.5% -->
    <g transform="translate(285.768929 208.560407) scale(0.1 -0.1)">
     <defs>
      <path id="DejaVuSans-35" d="M 691 4666 
L 3169 4666 
L 3169 4134 
L 1269 4134 
L 1269 2991 
Q 1406 3038 1543 3061 
Q 1681 3084 1819 3084 
Q 2600 3084 3056 2656 
Q 3513 2228 3513 1497 
Q 3513 744 3044 326 
Q 2575 -91 1722 -91 
Q 1428 -91 1123 -41 
Q 819 9 494 109 
L 494 744 
Q 775 591 1075 516 
Q 1375 441 1709 441 
Q 2250 441 2565 725 
Q 2881 1009 2881 1497 
Q 2881 1984 2565 2268 
Q 2250 2553 1709 2553 
Q 1456 2553 1204 2497 
Q 953 2441 691 2322 
L 691 4666 
z
" transform="scale(0.015625)"/>
     </defs>
     <use xlink:href="#DejaVuSans-31"/>
     <use xlink:href="#DejaVuSans-31" x="63.623047"/>
     <use xlink:href="#DejaVuSans-2e" x="127.246094"/>
     <use xlink:href="#DejaVuSans-35" x="159.033203"/>
     <use xlink:href="#DejaVuSans-25" x="222.65625"/>
    </g>
   </g>
   <g id="text_11">
    <!-- ['G'] -->
    <g transform="translate(367.500387 155.989572) scale(0.1 -0.1)">
     <defs>
      <path id="DejaVuSans-47" d="M 3809 666 
L 3809 1919 
L 2778 1919 
L 2778 2438 
L 4434 2438 
L 4434 434 
Q 4069 175 3628 42 
Q 3188 -91 2688 -91 
Q 1594 -91 976 548 
Q 359 1188 359 2328 
Q 359 3472 976 4111 
Q 1594 4750 2688 4750 
Q 3144 4750 3555 4637 
Q 3966 4525 4313 4306 
L 4313 3634 
Q 3963 3931 3569 4081 
Q 3175 4231 2741 4231 
Q 1884 4231 1454 3753 
Q 1025 3275 1025 2328 
Q 1025 1384 1454 906 
Q 1884 428 2741 428 
Q 3075 428 3337 486 
Q 3600 544 3809 666 
z
" transform="scale(0.015625)"/>
     </defs>
     <use xlink:href="#DejaVuSans-5b"/>
     <use xlink:href="#DejaVuSans-27" x="39.013672"/>
     <use xlink:href="#DejaVuSans-47" x="66.503906"/>
     <use xlink:href="#DejaVuSans-27" x="143.994141"/>
     <use xlink:href="#DejaVuSans-5d" x="171.484375"/>
    </g>
   </g>
   <g id="text_12">
    <!-- 7.8% -->
    <g transform="translate(295.097858 165.670392) scale(0.1 -0.1)">
     <defs>
      <path id="DejaVuSans-37" d="M 525 4666 
L 3525 4666 
L 3525 4397 
L 1831 0 
L 1172 0 
L 2766 4134 
L 525 4134 
L 525 4666 
z
" transform="scale(0.015625)"/>
     </defs>
     <use xlink:href="#DejaVuSans-37"/>
     <use xlink:href="#DejaVuSans-2e" x="63.623047"/>
     <use xlink:href="#DejaVuSans-38" x="95.410156"/>
     <use xlink:href="#DejaVuSans-25" x="159.033203"/>
    </g>
   </g>
   <g id="text_13">
    <!-- ['R'] -->
    <g transform="translate(343.075414 98.085171) scale(0.1 -0.1)">
     <defs>
      <path id="DejaVuSans-52" d="M 2841 2188 
Q 3044 2119 3236 1894 
Q 3428 1669 3622 1275 
L 4263 0 
L 3584 0 
L 2988 1197 
Q 2756 1666 2539 1819 
Q 2322 1972 1947 1972 
L 1259 1972 
L 1259 0 
L 628 0 
L 628 4666 
L 2053 4666 
Q 2853 4666 3247 4331 
Q 3641 3997 3641 3322 
Q 3641 2881 3436 2590 
Q 3231 2300 2841 2188 
z
M 1259 4147 
L 1259 2491 
L 2053 2491 
Q 2509 2491 2742 2702 
Q 2975 2913 2975 3322 
Q 2975 3731 2742 3939 
Q 2509 4147 2053 4147 
L 1259 4147 
z
" transform="scale(0.015625)"/>
     </defs>
     <use xlink:href="#DejaVuSans-5b"/>
     <use xlink:href="#DejaVuSans-27" x="39.013672"/>
     <use xlink:href="#DejaVuSans-52" x="66.503906"/>
     <use xlink:href="#DejaVuSans-27" x="135.986328"/>
     <use xlink:href="#DejaVuSans-5d" x="163.476562"/>
    </g>
   </g>
   <g id="text_14">
    <!-- 7.4% -->
    <g transform="translate(281.775145 134.086173) scale(0.1 -0.1)">
     <defs>
      <path id="DejaVuSans-34" d="M 2419 4116 
L 825 1625 
L 2419 1625 
L 2419 4116 
z
M 2253 4666 
L 3047 4666 
L 3047 1625 
L 3713 1625 
L 3713 1100 
L 3047 1100 
L 3047 0 
L 2419 0 
L 2419 1100 
L 313 1100 
L 313 1709 
L 2253 4666 
z
" transform="scale(0.015625)"/>
     </defs>
     <use xlink:href="#DejaVuSans-37"/>
     <use xlink:href="#DejaVuSans-2e" x="63.623047"/>
     <use xlink:href="#DejaVuSans-34" x="95.410156"/>
     <use xlink:href="#DejaVuSans-25" x="159.033203"/>
    </g>
   </g>
   <g id="text_15">
    <!-- ['B', 'R'] -->
    <g transform="translate(310.927558 67.225082) scale(0.1 -0.1)">
     <defs>
      <path id="DejaVuSans-2c" d="M 750 794 
L 1409 794 
L 1409 256 
L 897 -744 
L 494 -744 
L 750 256 
L 750 794 
z
" transform="scale(0.015625)"/>
      <path id="DejaVuSans-20" transform="scale(0.015625)"/>
     </defs>
     <use xlink:href="#DejaVuSans-5b"/>
     <use xlink:href="#DejaVuSans-27" x="39.013672"/>
     <use xlink:href="#DejaVuSans-42" x="66.503906"/>
     <use xlink:href="#DejaVuSans-27" x="135.107422"/>
     <use xlink:href="#DejaVuSans-2c" x="162.597656"/>
     <use xlink:href="#DejaVuSans-20" x="194.384766"/>
     <use xlink:href="#DejaVuSans-27" x="226.171875"/>
     <use xlink:href="#DejaVuSans-52" x="253.662109"/>
     <use xlink:href="#DejaVuSans-27" x="323.144531"/>
     <use xlink:href="#DejaVuSans-5d" x="350.634766"/>
    </g>
   </g>
   <g id="text_16">
    <!-- 3.3% -->
    <g transform="translate(264.239951 117.253397) scale(0.1 -0.1)">
     <defs>
      <path id="DejaVuSans-33" d="M 2597 2516 
Q 3050 2419 3304 2112 
Q 3559 1806 3559 1356 
Q 3559 666 3084 287 
Q 2609 -91 1734 -91 
Q 1441 -91 1130 -33 
Q 819 25 488 141 
L 488 750 
Q 750 597 1062 519 
Q 1375 441 1716 441 
Q 2309 441 2620 675 
Q 2931 909 2931 1356 
Q 2931 1769 2642 2001 
Q 2353 2234 1838 2234 
L 1294 2234 
L 1294 2753 
L 1863 2753 
Q 2328 2753 2575 2939 
Q 2822 3125 2822 3475 
Q 2822 3834 2567 4026 
Q 2313 4219 1838 4219 
Q 1578 4219 1281 4162 
Q 984 4106 628 3988 
L 628 4550 
Q 988 4650 1302 4700 
Q 1616 4750 1894 4750 
Q 2613 4750 3031 4423 
Q 3450 4097 3450 3541 
Q 3450 3153 3228 2886 
Q 3006 2619 2597 2516 
z
" transform="scale(0.015625)"/>
     </defs>
     <use xlink:href="#DejaVuSans-33"/>
     <use xlink:href="#DejaVuSans-2e" x="63.623047"/>
     <use xlink:href="#DejaVuSans-33" x="95.410156"/>
     <use xlink:href="#DejaVuSans-25" x="159.033203"/>
    </g>
   </g>
   <g id="text_17">
    <!-- ['U', 'W'] -->
    <g transform="translate(289.20578 55.262615) scale(0.1 -0.1)">
     <use xlink:href="#DejaVuSans-5b"/>
     <use xlink:href="#DejaVuSans-27" x="39.013672"/>
     <use xlink:href="#DejaVuSans-55" x="66.503906"/>
     <use xlink:href="#DejaVuSans-27" x="139.697266"/>
     <use xlink:href="#DejaVuSans-2c" x="167.1875"/>
     <use xlink:href="#DejaVuSans-20" x="198.974609"/>
     <use xlink:href="#DejaVuSans-27" x="230.761719"/>
     <use xlink:href="#DejaVuSans-57" x="258.251953"/>
     <use xlink:href="#DejaVuSans-27" x="357.128906"/>
     <use xlink:href="#DejaVuSans-5d" x="384.619141"/>
    </g>
   </g>
   <g id="text_18">
    <!-- 2.6% -->
    <g transform="translate(252.391709 110.728415) scale(0.1 -0.1)">
     <use xlink:href="#DejaVuSans-32"/>
     <use xlink:href="#DejaVuSans-2e" x="63.623047"/>
     <use xlink:href="#DejaVuSans-36" x="95.410156"/>
     <use xlink:href="#DejaVuSans-25" x="159.033203"/>
    </g>
   </g>
   <g id="text_19">
    <!-- ['G', 'R'] -->
    <g transform="translate(273.883299 49.69094) scale(0.1 -0.1)">
     <use xlink:href="#DejaVuSans-5b"/>
     <use xlink:href="#DejaVuSans-27" x="39.013672"/>
     <use xlink:href="#DejaVuSans-47" x="66.503906"/>
     <use xlink:href="#DejaVuSans-27" x="143.994141"/>
     <use xlink:href="#DejaVuSans-2c" x="171.484375"/>
     <use xlink:href="#DejaVuSans-20" x="203.271484"/>
     <use xlink:href="#DejaVuSans-27" x="235.058594"/>
     <use xlink:href="#DejaVuSans-52" x="262.548828"/>
     <use xlink:href="#DejaVuSans-27" x="332.03125"/>
     <use xlink:href="#DejaVuSans-5d" x="359.521484"/>
    </g>
   </g>
   <g id="text_20">
    <!-- 1.3% -->
    <g transform="translate(244.033992 107.68932) scale(0.1 -0.1)">
     <use xlink:href="#DejaVuSans-31"/>
     <use xlink:href="#DejaVuSans-2e" x="63.623047"/>
     <use xlink:href="#DejaVuSans-33" x="95.410156"/>
     <use xlink:href="#DejaVuSans-25" x="159.033203"/>
    </g>
   </g>
   <g id="text_21">
    <!-- ['G', 'U'] -->
    <g transform="translate(264.579926 47.301969) scale(0.1 -0.1)">
     <use xlink:href="#DejaVuSans-5b"/>
     <use xlink:href="#DejaVuSans-27" x="39.013672"/>
     <use xlink:href="#DejaVuSans-47" x="66.503906"/>
     <use xlink:href="#DejaVuSans-27" x="143.994141"/>
     <use xlink:href="#DejaVuSans-2c" x="171.484375"/>
     <use xlink:href="#DejaVuSans-20" x="203.271484"/>
     <use xlink:href="#DejaVuSans-27" x="235.058594"/>
     <use xlink:href="#DejaVuSans-55" x="262.548828"/>
     <use xlink:href="#DejaVuSans-27" x="335.742188"/>
     <use xlink:href="#DejaVuSans-5d" x="363.232422"/>
    </g>
   </g>
   <g id="text_22">
    <!-- 1.0% -->
    <g transform="translate(238.959424 106.386245) scale(0.1 -0.1)">
     <defs>
      <path id="DejaVuSans-30" d="M 2034 4250 
Q 1547 4250 1301 3770 
Q 1056 3291 1056 2328 
Q 1056 1369 1301 889 
Q 1547 409 2034 409 
Q 2525 409 2770 889 
Q 3016 1369 3016 2328 
Q 3016 3291 2770 3770 
Q 2525 4250 2034 4250 
z
M 2034 4750 
Q 2819 4750 3233 4129 
Q 3647 3509 3647 2328 
Q 3647 1150 3233 529 
Q 2819 -91 2034 -91 
Q 1250 -91 836 529 
Q 422 1150 422 2328 
Q 422 3509 836 4129 
Q 1250 4750 2034 4750 
z
" transform="scale(0.015625)"/>
     </defs>
     <use xlink:href="#DejaVuSans-31"/>
     <use xlink:href="#DejaVuSans-2e" x="63.623047"/>
     <use xlink:href="#DejaVuSans-30" x="95.410156"/>
     <use xlink:href="#DejaVuSans-25" x="159.033203"/>
    </g>
   </g>
   <g id="text_23">
    <!-- ['B', 'U'] -->
    <g transform="translate(257.815573 46.005486) scale(0.1 -0.1)">
     <use xlink:href="#DejaVuSans-5b"/>
     <use xlink:href="#DejaVuSans-27" x="39.013672"/>
     <use xlink:href="#DejaVuSans-42" x="66.503906"/>
     <use xlink:href="#DejaVuSans-27" x="135.107422"/>
     <use xlink:href="#DejaVuSans-2c" x="162.597656"/>
     <use xlink:href="#DejaVuSans-20" x="194.384766"/>
     <use xlink:href="#DejaVuSans-27" x="226.171875"/>
     <use xlink:href="#DejaVuSans-55" x="253.662109"/>
     <use xlink:href="#DejaVuSans-27" x="326.855469"/>
     <use xlink:href="#DejaVuSans-5d" x="354.345703"/>
    </g>
   </g>
   <g id="text_24">
    <!-- 0.6% -->
    <g transform="translate(235.269778 105.679072) scale(0.1 -0.1)">
     <use xlink:href="#DejaVuSans-30"/>
     <use xlink:href="#DejaVuSans-2e" x="63.623047"/>
     <use xlink:href="#DejaVuSans-36" x="95.410156"/>
     <use xlink:href="#DejaVuSans-25" x="159.033203"/>
    </g>
   </g>
   <g id="text_25">
    <!-- ['B', 'G'] -->
    <g transform="translate(253.5123 45.367717) scale(0.1 -0.1)">
     <use xlink:href="#DejaVuSans-5b"/>
     <use xlink:href="#DejaVuSans-27" x="39.013672"/>
     <use xlink:href="#DejaVuSans-42" x="66.503906"/>
     <use xlink:href="#DejaVuSans-27" x="135.107422"/>
     <use xlink:href="#DejaVuSans-2c" x="162.597656"/>
     <use xlink:href="#DejaVuSans-20" x="194.384766"/>
     <use xlink:href="#DejaVuSans-27" x="226.171875"/>
     <use xlink:href="#DejaVuSans-47" x="253.662109"/>
     <use xlink:href="#DejaVuSans-27" x="331.152344"/>
     <use xlink:href="#DejaVuSans-5d" x="358.642578"/>
    </g>
   </g>
   <g id="text_26">
    <!-- 0.4% -->
    <g transform="translate(232.922538 105.331198) scale(0.1 -0.1)">
     <use xlink:href="#DejaVuSans-30"/>
     <use xlink:href="#DejaVuSans-2e" x="63.623047"/>
     <use xlink:href="#DejaVuSans-34" x="95.410156"/>
     <use xlink:href="#DejaVuSans-25" x="159.033203"/>
    </g>
   </g>
   <g id="text_27">
    <!-- ['G', 'W'] -->
    <g transform="translate(250.27242 44.981902) scale(0.1 -0.1)">
     <use xlink:href="#DejaVuSans-5b"/>
     <use xlink:href="#DejaVuSans-27" x="39.013672"/>
     <use xlink:href="#DejaVuSans-47" x="66.503906"/>
     <use xlink:href="#DejaVuSans-27" x="143.994141"/>
     <use xlink:href="#DejaVuSans-2c" x="171.484375"/>
     <use xlink:href="#DejaVuSans-20" x="203.271484"/>
     <use xlink:href="#DejaVuSans-27" x="235.058594"/>
     <use xlink:href="#DejaVuSans-57" x="262.548828"/>
     <use xlink:href="#DejaVuSans-27" x="361.425781"/>
     <use xlink:href="#DejaVuSans-5d" x="388.916016"/>
    </g>
   </g>
   <g id="text_28">
    <!-- 0.3% -->
    <g transform="translate(231.15533 105.120754) scale(0.1 -0.1)">
     <use xlink:href="#DejaVuSans-30"/>
     <use xlink:href="#DejaVuSans-2e" x="63.623047"/>
     <use xlink:href="#DejaVuSans-33" x="95.410156"/>
     <use xlink:href="#DejaVuSans-25" x="159.033203"/>
    </g>
   </g>
   <g id="text_29">
    <!-- ['R', 'U'] -->
    <g transform="translate(247.565954 44.721154) scale(0.1 -0.1)">
     <use xlink:href="#DejaVuSans-5b"/>
     <use xlink:href="#DejaVuSans-27" x="39.013672"/>
     <use xlink:href="#DejaVuSans-52" x="66.503906"/>
     <use xlink:href="#DejaVuSans-27" x="135.986328"/>
     <use xlink:href="#DejaVuSans-2c" x="163.476562"/>
     <use xlink:href="#DejaVuSans-20" x="195.263672"/>
     <use xlink:href="#DejaVuSans-27" x="227.050781"/>
     <use xlink:href="#DejaVuSans-55" x="254.541016"/>
     <use xlink:href="#DejaVuSans-27" x="327.734375"/>
     <use xlink:href="#DejaVuSans-5d" x="355.224609"/>
    </g>
   </g>
   <g id="text_30">
    <!-- 0.3% -->
    <g transform="translate(229.679076 104.978528) scale(0.1 -0.1)">
     <use xlink:href="#DejaVuSans-30"/>
     <use xlink:href="#DejaVuSans-2e" x="63.623047"/>
     <use xlink:href="#DejaVuSans-33" x="95.410156"/>
     <use xlink:href="#DejaVuSans-25" x="159.033203"/>
    </g>
   </g>
   <g id="text_31">
    <!-- ['R', 'W'] -->
    <g transform="translate(245.397298 44.552409) scale(0.1 -0.1)">
     <use xlink:href="#DejaVuSans-5b"/>
     <use xlink:href="#DejaVuSans-27" x="39.013672"/>
     <use xlink:href="#DejaVuSans-52" x="66.503906"/>
     <use xlink:href="#DejaVuSans-27" x="135.986328"/>
     <use xlink:href="#DejaVuSans-2c" x="163.476562"/>
     <use xlink:href="#DejaVuSans-20" x="195.263672"/>
     <use xlink:href="#DejaVuSans-27" x="227.050781"/>
     <use xlink:href="#DejaVuSans-57" x="254.541016"/>
     <use xlink:href="#DejaVuSans-27" x="353.417969"/>
     <use xlink:href="#DejaVuSans-5d" x="380.908203"/>
    </g>
   </g>
   <g id="text_32">
    <!-- 0.2% -->
    <g transform="translate(228.496173 104.886485) scale(0.1 -0.1)">
     <use xlink:href="#DejaVuSans-30"/>
     <use xlink:href="#DejaVuSans-2e" x="63.623047"/>
     <use xlink:href="#DejaVuSans-32" x="95.410156"/>
     <use xlink:href="#DejaVuSans-25" x="159.033203"/>
    </g>
   </g>
   <g id="text_33">
    <!-- ['B', 'W'] -->
    <g transform="translate(243.588174 44.438886) scale(0.1 -0.1)">
     <use xlink:href="#DejaVuSans-5b"/>
     <use xlink:href="#DejaVuSans-27" x="39.013672"/>
     <use xlink:href="#DejaVuSans-42" x="66.503906"/>
     <use xlink:href="#DejaVuSans-27" x="135.107422"/>
     <use xlink:href="#DejaVuSans-2c" x="162.597656"/>
     <use xlink:href="#DejaVuSans-20" x="194.384766"/>
     <use xlink:href="#DejaVuSans-27" x="226.171875"/>
     <use xlink:href="#DejaVuSans-57" x="253.662109"/>
     <use xlink:href="#DejaVuSans-27" x="352.539062"/>
     <use xlink:href="#DejaVuSans-5d" x="380.029297"/>
    </g>
   </g>
   <g id="text_34">
    <!-- 0.2% -->
    <g transform="translate(227.509378 104.824563) scale(0.1 -0.1)">
     <use xlink:href="#DejaVuSans-30"/>
     <use xlink:href="#DejaVuSans-2e" x="63.623047"/>
     <use xlink:href="#DejaVuSans-32" x="95.410156"/>
     <use xlink:href="#DejaVuSans-25" x="159.033203"/>
    </g>
   </g>
   <g id="text_35">
    <!-- ['G', 'R', 'W'] -->
    <g transform="translate(241.958774 44.357795) scale(0.1 -0.1)">
     <use xlink:href="#DejaVuSans-5b"/>
     <use xlink:href="#DejaVuSans-27" x="39.013672"/>
     <use xlink:href="#DejaVuSans-47" x="66.503906"/>
     <use xlink:href="#DejaVuSans-27" x="143.994141"/>
     <use xlink:href="#DejaVuSans-2c" x="171.484375"/>
     <use xlink:href="#DejaVuSans-20" x="203.271484"/>
     <use xlink:href="#DejaVuSans-27" x="235.058594"/>
     <use xlink:href="#DejaVuSans-52" x="262.548828"/>
     <use xlink:href="#DejaVuSans-27" x="332.03125"/>
     <use xlink:href="#DejaVuSans-2c" x="359.521484"/>
     <use xlink:href="#DejaVuSans-20" x="391.308594"/>
     <use xlink:href="#DejaVuSans-27" x="423.095703"/>
     <use xlink:href="#DejaVuSans-57" x="450.585938"/>
     <use xlink:href="#DejaVuSans-27" x="549.462891"/>
     <use xlink:href="#DejaVuSans-5d" x="576.953125"/>
    </g>
   </g>
   <g id="text_36">
    <!-- 0.2% -->
    <g transform="translate(226.620614 104.780332) scale(0.1 -0.1)">
     <use xlink:href="#DejaVuSans-30"/>
     <use xlink:href="#DejaVuSans-2e" x="63.623047"/>
     <use xlink:href="#DejaVuSans-32" x="95.410156"/>
     <use xlink:href="#DejaVuSans-25" x="159.033203"/>
    </g>
   </g>
   <g id="text_37">
    <!-- ['B', 'G', 'U'] -->
    <g transform="translate(240.509679 44.302491) scale(0.1 -0.1)">
     <use xlink:href="#DejaVuSans-5b"/>
     <use xlink:href="#DejaVuSans-27" x="39.013672"/>
     <use xlink:href="#DejaVuSans-42" x="66.503906"/>
     <use xlink:href="#DejaVuSans-27" x="135.107422"/>
     <use xlink:href="#DejaVuSans-2c" x="162.597656"/>
     <use xlink:href="#DejaVuSans-20" x="194.384766"/>
     <use xlink:href="#DejaVuSans-27" x="226.171875"/>
     <use xlink:href="#DejaVuSans-47" x="253.662109"/>
     <use xlink:href="#DejaVuSans-27" x="331.152344"/>
     <use xlink:href="#DejaVuSans-2c" x="358.642578"/>
     <use xlink:href="#DejaVuSans-20" x="390.429688"/>
     <use xlink:href="#DejaVuSans-27" x="422.216797"/>
     <use xlink:href="#DejaVuSans-55" x="449.707031"/>
     <use xlink:href="#DejaVuSans-27" x="522.900391"/>
     <use xlink:href="#DejaVuSans-5d" x="550.390625"/>
    </g>
   </g>
   <g id="text_38">
    <!-- 0.2% -->
    <g transform="translate(225.830199 104.750166) scale(0.1 -0.1)">
     <use xlink:href="#DejaVuSans-30"/>
     <use xlink:href="#DejaVuSans-2e" x="63.623047"/>
     <use xlink:href="#DejaVuSans-32" x="95.410156"/>
     <use xlink:href="#DejaVuSans-25" x="159.033203"/>
    </g>
   </g>
   <g id="text_39">
    <!-- ['B', 'G', 'U', 'W'] -->
    <g transform="translate(239.060068 44.262984) scale(0.1 -0.1)">
     <use xlink:href="#DejaVuSans-5b"/>
     <use xlink:href="#DejaVuSans-27" x="39.013672"/>
     <use xlink:href="#DejaVuSans-42" x="66.503906"/>
     <use xlink:href="#DejaVuSans-27" x="135.107422"/>
     <use xlink:href="#DejaVuSans-2c" x="162.597656"/>
     <use xlink:href="#DejaVuSans-20" x="194.384766"/>
     <use xlink:href="#DejaVuSans-27" x="226.171875"/>
     <use xlink:href="#DejaVuSans-47" x="253.662109"/>
     <use xlink:href="#DejaVuSans-27" x="331.152344"/>
     <use xlink:href="#DejaVuSans-2c" x="358.642578"/>
     <use xlink:href="#DejaVuSans-20" x="390.429688"/>
     <use xlink:href="#DejaVuSans-27" x="422.216797"/>
     <use xlink:href="#DejaVuSans-55" x="449.707031"/>
     <use xlink:href="#DejaVuSans-27" x="522.900391"/>
     <use xlink:href="#DejaVuSans-2c" x="550.390625"/>
     <use xlink:href="#DejaVuSans-20" x="582.177734"/>
     <use xlink:href="#DejaVuSans-27" x="613.964844"/>
     <use xlink:href="#DejaVuSans-57" x="641.455078"/>
     <use xlink:href="#DejaVuSans-27" x="740.332031"/>
     <use xlink:href="#DejaVuSans-5d" x="767.822266"/>
    </g>
   </g>
   <g id="text_40">
    <!-- 0.2% -->
    <g transform="translate(225.039502 104.728616) scale(0.1 -0.1)">
     <use xlink:href="#DejaVuSans-30"/>
     <use xlink:href="#DejaVuSans-2e" x="63.623047"/>
     <use xlink:href="#DejaVuSans-32" x="95.410156"/>
     <use xlink:href="#DejaVuSans-25" x="159.033203"/>
    </g>
   </g>
   <g id="text_41">
    <!-- ['G', 'R', 'U', 'W'] -->
    <g transform="translate(237.791369 44.241376) scale(0.1 -0.1)">
     <use xlink:href="#DejaVuSans-5b"/>
     <use xlink:href="#DejaVuSans-27" x="39.013672"/>
     <use xlink:href="#DejaVuSans-47" x="66.503906"/>
     <use xlink:href="#DejaVuSans-27" x="143.994141"/>
     <use xlink:href="#DejaVuSans-2c" x="171.484375"/>
     <use xlink:href="#DejaVuSans-20" x="203.271484"/>
     <use xlink:href="#DejaVuSans-27" x="235.058594"/>
     <use xlink:href="#DejaVuSans-52" x="262.548828"/>
     <use xlink:href="#DejaVuSans-27" x="332.03125"/>
     <use xlink:href="#DejaVuSans-2c" x="359.521484"/>
     <use xlink:href="#DejaVuSans-20" x="391.308594"/>
     <use xlink:href="#DejaVuSans-27" x="423.095703"/>
     <use xlink:href="#DejaVuSans-55" x="450.585938"/>
     <use xlink:href="#DejaVuSans-27" x="523.779297"/>
     <use xlink:href="#DejaVuSans-2c" x="551.269531"/>
     <use xlink:href="#DejaVuSans-20" x="583.056641"/>
     <use xlink:href="#DejaVuSans-27" x="614.84375"/>
     <use xlink:href="#DejaVuSans-57" x="642.333984"/>
     <use xlink:href="#DejaVuSans-27" x="741.210938"/>
     <use xlink:href="#DejaVuSans-5d" x="768.701172"/>
    </g>
   </g>
   <g id="text_42">
    <!-- 0.1% -->
    <g transform="translate(224.347484 104.716831) scale(0.1 -0.1)">
     <use xlink:href="#DejaVuSans-30"/>
     <use xlink:href="#DejaVuSans-2e" x="63.623047"/>
     <use xlink:href="#DejaVuSans-31" x="95.410156"/>
     <use xlink:href="#DejaVuSans-25" x="159.033203"/>
    </g>
   </g>
   <g id="text_43">
    <!-- ['B', 'R', 'U'] -->
    <g transform="translate(237.066324 44.234462) scale(0.1 -0.1)">
     <use xlink:href="#DejaVuSans-5b"/>
     <use xlink:href="#DejaVuSans-27" x="39.013672"/>
     <use xlink:href="#DejaVuSans-42" x="66.503906"/>
     <use xlink:href="#DejaVuSans-27" x="135.107422"/>
     <use xlink:href="#DejaVuSans-2c" x="162.597656"/>
     <use xlink:href="#DejaVuSans-20" x="194.384766"/>
     <use xlink:href="#DejaVuSans-27" x="226.171875"/>
     <use xlink:href="#DejaVuSans-52" x="253.662109"/>
     <use xlink:href="#DejaVuSans-27" x="323.144531"/>
     <use xlink:href="#DejaVuSans-2c" x="350.634766"/>
     <use xlink:href="#DejaVuSans-20" x="382.421875"/>
     <use xlink:href="#DejaVuSans-27" x="414.208984"/>
     <use xlink:href="#DejaVuSans-55" x="441.699219"/>
     <use xlink:href="#DejaVuSans-27" x="514.892578"/>
     <use xlink:href="#DejaVuSans-5d" x="542.382812"/>
    </g>
   </g>
   <g id="text_44">
    <!-- 0.0% -->
    <g transform="translate(223.952006 104.713059) scale(0.1 -0.1)">
     <use xlink:href="#DejaVuSans-30"/>
     <use xlink:href="#DejaVuSans-2e" x="63.623047"/>
     <use xlink:href="#DejaVuSans-30" x="95.410156"/>
     <use xlink:href="#DejaVuSans-25" x="159.033203"/>
    </g>
   </g>
   <g id="text_45">
    <!-- ['R', 'U', 'W'] -->
    <g transform="translate(236.703791 44.232486) scale(0.1 -0.1)">
     <use xlink:href="#DejaVuSans-5b"/>
     <use xlink:href="#DejaVuSans-27" x="39.013672"/>
     <use xlink:href="#DejaVuSans-52" x="66.503906"/>
     <use xlink:href="#DejaVuSans-27" x="135.986328"/>
     <use xlink:href="#DejaVuSans-2c" x="163.476562"/>
     <use xlink:href="#DejaVuSans-20" x="195.263672"/>
     <use xlink:href="#DejaVuSans-27" x="227.050781"/>
     <use xlink:href="#DejaVuSans-55" x="254.541016"/>
     <use xlink:href="#DejaVuSans-27" x="327.734375"/>
     <use xlink:href="#DejaVuSans-2c" x="355.224609"/>
     <use xlink:href="#DejaVuSans-20" x="387.011719"/>
     <use xlink:href="#DejaVuSans-27" x="418.798828"/>
     <use xlink:href="#DejaVuSans-57" x="446.289062"/>
     <use xlink:href="#DejaVuSans-27" x="545.166016"/>
     <use xlink:href="#DejaVuSans-5d" x="572.65625"/>
    </g>
   </g>
   <g id="text_46">
    <!-- 0.0% -->
    <g transform="translate(223.75426 104.711981) scale(0.1 -0.1)">
     <use xlink:href="#DejaVuSans-30"/>
     <use xlink:href="#DejaVuSans-2e" x="63.623047"/>
     <use xlink:href="#DejaVuSans-30" x="95.410156"/>
     <use xlink:href="#DejaVuSans-25" x="159.033203"/>
    </g>
   </g>
   <g id="text_47">
    <!-- ['G', 'R', 'U'] -->
    <g transform="translate(236.341253 44.231498) scale(0.1 -0.1)">
     <use xlink:href="#DejaVuSans-5b"/>
     <use xlink:href="#DejaVuSans-27" x="39.013672"/>
     <use xlink:href="#DejaVuSans-47" x="66.503906"/>
     <use xlink:href="#DejaVuSans-27" x="143.994141"/>
     <use xlink:href="#DejaVuSans-2c" x="171.484375"/>
     <use xlink:href="#DejaVuSans-20" x="203.271484"/>
     <use xlink:href="#DejaVuSans-27" x="235.058594"/>
     <use xlink:href="#DejaVuSans-52" x="262.548828"/>
     <use xlink:href="#DejaVuSans-27" x="332.03125"/>
     <use xlink:href="#DejaVuSans-2c" x="359.521484"/>
     <use xlink:href="#DejaVuSans-20" x="391.308594"/>
     <use xlink:href="#DejaVuSans-27" x="423.095703"/>
     <use xlink:href="#DejaVuSans-55" x="450.585938"/>
     <use xlink:href="#DejaVuSans-27" x="523.779297"/>
     <use xlink:href="#DejaVuSans-5d" x="551.269531"/>
    </g>
   </g>
   <g id="text_48">
    <!-- 0.0% -->
    <g transform="translate(223.556512 104.711443) scale(0.1 -0.1)">
     <use xlink:href="#DejaVuSans-30"/>
     <use xlink:href="#DejaVuSans-2e" x="63.623047"/>
     <use xlink:href="#DejaVuSans-30" x="95.410156"/>
     <use xlink:href="#DejaVuSans-25" x="159.033203"/>
    </g>
   </g>
   <g id="text_49">
    <!-- Donut Chart of Color Distribution -->
    <g transform="translate(137.344688 35.472) scale(0.12 -0.12)">
     <defs>
      <path id="DejaVuSans-44" d="M 1259 4147 
L 1259 519 
L 2022 519 
Q 2988 519 3436 956 
Q 3884 1394 3884 2338 
Q 3884 3275 3436 3711 
Q 2988 4147 2022 4147 
L 1259 4147 
z
M 628 4666 
L 1925 4666 
Q 3281 4666 3915 4102 
Q 4550 3538 4550 2338 
Q 4550 1131 3912 565 
Q 3275 0 1925 0 
L 628 0 
L 628 4666 
z
" transform="scale(0.015625)"/>
      <path id="DejaVuSans-6f" d="M 1959 3097 
Q 1497 3097 1228 2736 
Q 959 2375 959 1747 
Q 959 1119 1226 758 
Q 1494 397 1959 397 
Q 2419 397 2687 759 
Q 2956 1122 2956 1747 
Q 2956 2369 2687 2733 
Q 2419 3097 1959 3097 
z
M 1959 3584 
Q 2709 3584 3137 3096 
Q 3566 2609 3566 1747 
Q 3566 888 3137 398 
Q 2709 -91 1959 -91 
Q 1206 -91 779 398 
Q 353 888 353 1747 
Q 353 2609 779 3096 
Q 1206 3584 1959 3584 
z
" transform="scale(0.015625)"/>
      <path id="DejaVuSans-6e" d="M 3513 2113 
L 3513 0 
L 2938 0 
L 2938 2094 
Q 2938 2591 2744 2837 
Q 2550 3084 2163 3084 
Q 1697 3084 1428 2787 
Q 1159 2491 1159 1978 
L 1159 0 
L 581 0 
L 581 3500 
L 1159 3500 
L 1159 2956 
Q 1366 3272 1645 3428 
Q 1925 3584 2291 3584 
Q 2894 3584 3203 3211 
Q 3513 2838 3513 2113 
z
" transform="scale(0.015625)"/>
      <path id="DejaVuSans-75" d="M 544 1381 
L 544 3500 
L 1119 3500 
L 1119 1403 
Q 1119 906 1312 657 
Q 1506 409 1894 409 
Q 2359 409 2629 706 
Q 2900 1003 2900 1516 
L 2900 3500 
L 3475 3500 
L 3475 0 
L 2900 0 
L 2900 538 
Q 2691 219 2414 64 
Q 2138 -91 1772 -91 
Q 1169 -91 856 284 
Q 544 659 544 1381 
z
M 1991 3584 
L 1991 3584 
z
" transform="scale(0.015625)"/>
      <path id="DejaVuSans-74" d="M 1172 4494 
L 1172 3500 
L 2356 3500 
L 2356 3053 
L 1172 3053 
L 1172 1153 
Q 1172 725 1289 603 
Q 1406 481 1766 481 
L 2356 481 
L 2356 0 
L 1766 0 
Q 1100 0 847 248 
Q 594 497 594 1153 
L 594 3053 
L 172 3053 
L 172 3500 
L 594 3500 
L 594 4494 
L 1172 4494 
z
" transform="scale(0.015625)"/>
      <path id="DejaVuSans-43" d="M 4122 4306 
L 4122 3641 
Q 3803 3938 3442 4084 
Q 3081 4231 2675 4231 
Q 1875 4231 1450 3742 
Q 1025 3253 1025 2328 
Q 1025 1406 1450 917 
Q 1875 428 2675 428 
Q 3081 428 3442 575 
Q 3803 722 4122 1019 
L 4122 359 
Q 3791 134 3420 21 
Q 3050 -91 2638 -91 
Q 1578 -91 968 557 
Q 359 1206 359 2328 
Q 359 3453 968 4101 
Q 1578 4750 2638 4750 
Q 3056 4750 3426 4639 
Q 3797 4528 4122 4306 
z
" transform="scale(0.015625)"/>
      <path id="DejaVuSans-68" d="M 3513 2113 
L 3513 0 
L 2938 0 
L 2938 2094 
Q 2938 2591 2744 2837 
Q 2550 3084 2163 3084 
Q 1697 3084 1428 2787 
Q 1159 2491 1159 1978 
L 1159 0 
L 581 0 
L 581 4863 
L 1159 4863 
L 1159 2956 
Q 1366 3272 1645 3428 
Q 1925 3584 2291 3584 
Q 2894 3584 3203 3211 
Q 3513 2838 3513 2113 
z
" transform="scale(0.015625)"/>
      <path id="DejaVuSans-61" d="M 2194 1759 
Q 1497 1759 1228 1600 
Q 959 1441 959 1056 
Q 959 750 1161 570 
Q 1363 391 1709 391 
Q 2188 391 2477 730 
Q 2766 1069 2766 1631 
L 2766 1759 
L 2194 1759 
z
M 3341 1997 
L 3341 0 
L 2766 0 
L 2766 531 
Q 2569 213 2275 61 
Q 1981 -91 1556 -91 
Q 1019 -91 701 211 
Q 384 513 384 1019 
Q 384 1609 779 1909 
Q 1175 2209 1959 2209 
L 2766 2209 
L 2766 2266 
Q 2766 2663 2505 2880 
Q 2244 3097 1772 3097 
Q 1472 3097 1187 3025 
Q 903 2953 641 2809 
L 641 3341 
Q 956 3463 1253 3523 
Q 1550 3584 1831 3584 
Q 2591 3584 2966 3190 
Q 3341 2797 3341 1997 
z
" transform="scale(0.015625)"/>
      <path id="DejaVuSans-72" d="M 2631 2963 
Q 2534 3019 2420 3045 
Q 2306 3072 2169 3072 
Q 1681 3072 1420 2755 
Q 1159 2438 1159 1844 
L 1159 0 
L 581 0 
L 581 3500 
L 1159 3500 
L 1159 2956 
Q 1341 3275 1631 3429 
Q 1922 3584 2338 3584 
Q 2397 3584 2469 3576 
Q 2541 3569 2628 3553 
L 2631 2963 
z
" transform="scale(0.015625)"/>
      <path id="DejaVuSans-66" d="M 2375 4863 
L 2375 4384 
L 1825 4384 
Q 1516 4384 1395 4259 
Q 1275 4134 1275 3809 
L 1275 3500 
L 2222 3500 
L 2222 3053 
L 1275 3053 
L 1275 0 
L 697 0 
L 697 3053 
L 147 3053 
L 147 3500 
L 697 3500 
L 697 3744 
Q 697 4328 969 4595 
Q 1241 4863 1831 4863 
L 2375 4863 
z
" transform="scale(0.015625)"/>
      <path id="DejaVuSans-6c" d="M 603 4863 
L 1178 4863 
L 1178 0 
L 603 0 
L 603 4863 
z
" transform="scale(0.015625)"/>
      <path id="DejaVuSans-69" d="M 603 3500 
L 1178 3500 
L 1178 0 
L 603 0 
L 603 3500 
z
M 603 4863 
L 1178 4863 
L 1178 4134 
L 603 4134 
L 603 4863 
z
" transform="scale(0.015625)"/>
      <path id="DejaVuSans-73" d="M 2834 3397 
L 2834 2853 
Q 2591 2978 2328 3040 
Q 2066 3103 1784 3103 
Q 1356 3103 1142 2972 
Q 928 2841 928 2578 
Q 928 2378 1081 2264 
Q 1234 2150 1697 2047 
L 1894 2003 
Q 2506 1872 2764 1633 
Q 3022 1394 3022 966 
Q 3022 478 2636 193 
Q 2250 -91 1575 -91 
Q 1294 -91 989 -36 
Q 684 19 347 128 
L 347 722 
Q 666 556 975 473 
Q 1284 391 1588 391 
Q 1994 391 2212 530 
Q 2431 669 2431 922 
Q 2431 1156 2273 1281 
Q 2116 1406 1581 1522 
L 1381 1569 
Q 847 1681 609 1914 
Q 372 2147 372 2553 
Q 372 3047 722 3315 
Q 1072 3584 1716 3584 
Q 2034 3584 2315 3537 
Q 2597 3491 2834 3397 
z
" transform="scale(0.015625)"/>
      <path id="DejaVuSans-62" d="M 3116 1747 
Q 3116 2381 2855 2742 
Q 2594 3103 2138 3103 
Q 1681 3103 1420 2742 
Q 1159 2381 1159 1747 
Q 1159 1113 1420 752 
Q 1681 391 2138 391 
Q 2594 391 2855 752 
Q 3116 1113 3116 1747 
z
M 1159 2969 
Q 1341 3281 1617 3432 
Q 1894 3584 2278 3584 
Q 2916 3584 3314 3078 
Q 3713 2572 3713 1747 
Q 3713 922 3314 415 
Q 2916 -91 2278 -91 
Q 1894 -91 1617 61 
Q 1341 213 1159 525 
L 1159 0 
L 581 0 
L 581 4863 
L 1159 4863 
L 1159 2969 
z
" transform="scale(0.015625)"/>
     </defs>
     <use xlink:href="#DejaVuSans-44"/>
     <use xlink:href="#DejaVuSans-6f" x="77.001953"/>
     <use xlink:href="#DejaVuSans-6e" x="138.183594"/>
     <use xlink:href="#DejaVuSans-75" x="201.5625"/>
     <use xlink:href="#DejaVuSans-74" x="264.941406"/>
     <use xlink:href="#DejaVuSans-20" x="304.150391"/>
     <use xlink:href="#DejaVuSans-43" x="335.9375"/>
     <use xlink:href="#DejaVuSans-68" x="405.761719"/>
     <use xlink:href="#DejaVuSans-61" x="469.140625"/>
     <use xlink:href="#DejaVuSans-72" x="530.419922"/>
     <use xlink:href="#DejaVuSans-74" x="571.533203"/>
     <use xlink:href="#DejaVuSans-20" x="610.742188"/>
     <use xlink:href="#DejaVuSans-6f" x="642.529297"/>
     <use xlink:href="#DejaVuSans-66" x="703.710938"/>
     <use xlink:href="#DejaVuSans-20" x="738.916016"/>
     <use xlink:href="#DejaVuSans-43" x="770.703125"/>
     <use xlink:href="#DejaVuSans-6f" x="840.527344"/>
     <use xlink:href="#DejaVuSans-6c" x="901.708984"/>
     <use xlink:href="#DejaVuSans-6f" x="929.492188"/>
     <use xlink:href="#DejaVuSans-72" x="990.673828"/>
     <use xlink:href="#DejaVuSans-20" x="1031.787109"/>
     <use xlink:href="#DejaVuSans-44" x="1063.574219"/>
     <use xlink:href="#DejaVuSans-69" x="1140.576172"/>
     <use xlink:href="#DejaVuSans-73" x="1168.359375"/>
     <use xlink:href="#DejaVuSans-74" x="1220.458984"/>
     <use xlink:href="#DejaVuSans-72" x="1259.667969"/>
     <use xlink:href="#DejaVuSans-69" x="1300.78125"/>
     <use xlink:href="#DejaVuSans-62" x="1328.564453"/>
     <use xlink:href="#DejaVuSans-75" x="1392.041016"/>
     <use xlink:href="#DejaVuSans-74" x="1455.419922"/>
     <use xlink:href="#DejaVuSans-69" x="1494.628906"/>
     <use xlink:href="#DejaVuSans-6f" x="1522.412109"/>
     <use xlink:href="#DejaVuSans-6e" x="1583.59375"/>
    </g>
   </g>
  </g>
 </g>
 <defs>
  <clipPath id="p31213ae977">
   <rect x="57.6" y="41.472" width="357.12" height="266.112"/>
  </clipPath>
 </defs>
</svg>
