<?xml version="1.0" encoding="utf-8" standalone="no"?>
<!DOCTYPE svg PUBLIC "-//W3C//DTD SVG 1.1//EN"
  "http://www.w3.org/Graphics/SVG/1.1/DTD/svg11.dtd">
<svg xmlns:xlink="http://www.w3.org/1999/xlink" width="720pt" height="432pt" viewBox="0 0 720 432" xmlns="http://www.w3.org/2000/svg" version="1.1">
 <metadata>
  <rdf:RDF xmlns:dc="http://purl.org/dc/elements/1.1/" xmlns:cc="http://creativecommons.org/ns#" xmlns:rdf="http://www.w3.org/1999/02/22-rdf-syntax-ns#">
   <cc:Work>
    <dc:type rdf:resource="http://purl.org/dc/dcmitype/StillImage"/>
    <dc:date>2024-06-06T21:09:05.826178</dc:date>
    <dc:format>image/svg+xml</dc:format>
    <dc:creator>
     <cc:Agent>
      <dc:title>Matplotlib v3.8.4, https://matplotlib.org/</dc:title>
     </cc:Agent>
    </dc:creator>
   </cc:Work>
  </rdf:RDF>
 </metadata>
 <defs>
  <style type="text/css">*{stroke-linejoin: round; stroke-linecap: butt}</style>
 </defs>
 <g id="figure_1">
  <g id="patch_1">
   <path d="M 0 432 
L 720 432 
L 720 0 
L 0 0 
z
" style="fill: #ffffff"/>
  </g>
  <g id="axes_1">
   <g id="patch_2">
    <path d="M 90 384.48 
L 648 384.48 
L 648 51.84 
L 90 51.84 
z
" style="fill: #ffffff"/>
   </g>
   <g id="PolyCollection_1">
    <defs>
     <path id="m6bebf55fc7" d="M 138.361611 -63.799476 
L 134.638389 -63.799476 
L 134.242096 -66.066887 
L 133.787579 -68.334298 
L 133.27263 -70.601708 
L 132.696481 -72.869119 
L 132.060092 -75.13653 
L 131.36641 -77.403941 
L 130.62056 -79.671351 
L 129.829961 -81.938762 
L 129.004324 -84.206173 
L 128.155545 -86.473583 
L 127.297464 -88.740994 
L 126.445484 -91.008405 
L 125.616086 -93.275816 
L 124.826215 -95.543226 
L 124.092608 -97.810637 
L 123.431057 -100.078048 
L 122.855676 -102.345459 
L 122.378204 -104.612869 
L 122.007386 -106.88028 
L 121.748476 -109.147691 
L 121.602899 -111.415101 
L 121.568093 -113.682512 
L 121.637547 -115.949923 
L 121.801041 -118.217334 
L 122.045073 -120.484744 
L 122.353454 -122.752155 
L 122.708034 -125.019566 
L 123.08952 -127.286977 
L 123.478348 -129.554387 
L 123.855539 -131.821798 
L 124.203519 -134.089209 
L 124.506835 -136.356619 
L 124.752755 -138.62403 
L 124.931696 -140.891441 
L 125.037499 -143.158852 
L 125.067509 -145.426262 
L 125.022493 -147.693673 
L 124.906395 -149.961084 
L 124.725955 -152.228494 
L 124.490224 -154.495905 
L 124.210005 -156.763316 
L 123.897253 -159.030727 
L 123.564484 -161.298137 
L 123.2242 -163.565548 
L 122.888383 -165.832959 
L 122.568064 -168.10037 
L 122.272985 -170.36778 
L 122.011366 -172.635191 
L 121.789772 -174.902602 
L 121.613078 -177.170012 
L 121.484515 -179.437423 
L 121.405786 -181.704834 
L 121.377233 -183.972245 
L 121.398037 -186.239655 
L 121.466433 -188.507066 
L 121.57992 -190.774477 
L 121.735464 -193.041888 
L 121.929682 -195.309298 
L 122.15899 -197.576709 
L 122.419738 -199.84412 
L 122.708309 -202.11153 
L 123.0212 -204.378941 
L 123.355086 -206.646352 
L 123.706864 -208.913763 
L 124.073696 -211.181173 
L 124.453036 -213.448584 
L 124.842648 -215.715995 
L 125.240623 -217.983406 
L 125.645382 -220.250816 
L 126.055662 -222.518227 
L 126.470498 -224.785638 
L 126.889182 -227.053048 
L 127.311207 -229.320459 
L 127.736207 -231.58787 
L 128.163871 -233.855281 
L 128.593868 -236.122691 
L 129.025759 -238.390102 
L 129.458927 -240.657513 
L 129.892511 -242.924924 
L 130.325364 -245.192334 
L 130.756036 -247.459745 
L 131.182776 -249.727156 
L 131.603565 -251.994566 
L 132.01617 -254.261977 
L 132.418218 -256.529388 
L 132.807287 -258.796799 
L 133.181 -261.064209 
L 133.537124 -263.33162 
L 133.873658 -265.599031 
L 134.188916 -267.866442 
L 134.481586 -270.133852 
L 134.750772 -272.401263 
L 134.996017 -274.668674 
L 135.217295 -276.936084 
L 135.414998 -279.203495 
L 135.589891 -281.470906 
L 135.74306 -283.738317 
L 135.875855 -286.005727 
L 135.989824 -288.273138 
L 137.010176 -288.273138 
L 137.010176 -288.273138 
L 137.124145 -286.005727 
L 137.25694 -283.738317 
L 137.410109 -281.470906 
L 137.585002 -279.203495 
L 137.782705 -276.936084 
L 138.003983 -274.668674 
L 138.249228 -272.401263 
L 138.518414 -270.133852 
L 138.811084 -267.866442 
L 139.126342 -265.599031 
L 139.462876 -263.33162 
L 139.819 -261.064209 
L 140.192713 -258.796799 
L 140.581782 -256.529388 
L 140.98383 -254.261977 
L 141.396435 -251.994566 
L 141.817224 -249.727156 
L 142.243964 -247.459745 
L 142.674636 -245.192334 
L 143.107489 -242.924924 
L 143.541073 -240.657513 
L 143.974241 -238.390102 
L 144.406132 -236.122691 
L 144.836129 -233.855281 
L 145.263793 -231.58787 
L 145.688793 -229.320459 
L 146.110818 -227.053048 
L 146.529502 -224.785638 
L 146.944338 -222.518227 
L 147.354618 -220.250816 
L 147.759377 -217.983406 
L 148.157352 -215.715995 
L 148.546964 -213.448584 
L 148.926304 -211.181173 
L 149.293136 -208.913763 
L 149.644914 -206.646352 
L 149.9788 -204.378941 
L 150.291691 -202.11153 
L 150.580262 -199.84412 
L 150.84101 -197.576709 
L 151.070318 -195.309298 
L 151.264536 -193.041888 
L 151.42008 -190.774477 
L 151.533567 -188.507066 
L 151.601963 -186.239655 
L 151.622767 -183.972245 
L 151.594214 -181.704834 
L 151.515485 -179.437423 
L 151.386922 -177.170012 
L 151.210228 -174.902602 
L 150.988634 -172.635191 
L 150.727015 -170.36778 
L 150.431936 -168.10037 
L 150.111617 -165.832959 
L 149.7758 -163.565548 
L 149.435516 -161.298137 
L 149.102747 -159.030727 
L 148.789995 -156.763316 
L 148.509776 -154.495905 
L 148.274045 -152.228494 
L 148.093605 -149.961084 
L 147.977507 -147.693673 
L 147.932491 -145.426262 
L 147.962501 -143.158852 
L 148.068304 -140.891441 
L 148.247245 -138.62403 
L 148.493165 -136.356619 
L 148.796481 -134.089209 
L 149.144461 -131.821798 
L 149.521652 -129.554387 
L 149.91048 -127.286977 
L 150.291966 -125.019566 
L 150.646546 -122.752155 
L 150.954927 -120.484744 
L 151.198959 -118.217334 
L 151.362453 -115.949923 
L 151.431907 -113.682512 
L 151.397101 -111.415101 
L 151.251524 -109.147691 
L 150.992614 -106.88028 
L 150.621796 -104.612869 
L 150.144324 -102.345459 
L 149.568943 -100.078048 
L 148.907392 -97.810637 
L 148.173785 -95.543226 
L 147.383914 -93.275816 
L 146.554516 -91.008405 
L 145.702536 -88.740994 
L 144.844455 -86.473583 
L 143.995676 -84.206173 
L 143.170039 -81.938762 
L 142.37944 -79.671351 
L 141.63359 -77.403941 
L 140.939908 -75.13653 
L 140.303519 -72.869119 
L 139.72737 -70.601708 
L 139.212421 -68.334298 
L 138.757904 -66.066887 
L 138.361611 -63.799476 
z
" style="stroke: #4a4a4a; stroke-width: 1.5"/>
    </defs>
    <g clip-path="url(#pc823f3fc4c)">
     <use xlink:href="#m6bebf55fc7" x="0" y="432" style="fill: #ea96a3; stroke: #4a4a4a; stroke-width: 1.5"/>
    </g>
   </g>
   <g id="PolyCollection_2">
    <defs>
     <path id="m76ac2380a4" d="M 231.432583 -73.29122 
L 227.567417 -73.29122 
L 227.027565 -75.557806 
L 226.382427 -77.824392 
L 225.625067 -80.090978 
L 224.751834 -82.357564 
L 223.763225 -84.62415 
L 222.664579 -86.890736 
L 221.46652 -89.157322 
L 220.185055 -91.423908 
L 218.841277 -93.690494 
L 217.460644 -95.95708 
L 216.07186 -98.223666 
L 214.705428 -100.490252 
L 213.391973 -102.756839 
L 212.160483 -105.023425 
L 211.036634 -107.290011 
L 210.041326 -109.556597 
L 209.189591 -111.823183 
L 208.489957 -114.089769 
L 207.94431 -116.356355 
L 207.548259 -118.622941 
L 207.29195 -120.889527 
L 207.161216 -123.156113 
L 207.138966 -125.422699 
L 207.206655 -127.689285 
L 207.345712 -129.955871 
L 207.538822 -132.222458 
L 207.770958 -134.489044 
L 208.030134 -136.75563 
L 208.307831 -139.022216 
L 208.599125 -141.288802 
L 208.902538 -143.555388 
L 209.219651 -145.821974 
L 209.554539 -148.08856 
L 209.913087 -150.355146 
L 210.302223 -152.621732 
L 210.729136 -154.888318 
L 211.200512 -157.154904 
L 211.72184 -159.42149 
L 212.296809 -161.688077 
L 212.926837 -163.954663 
L 213.610759 -166.221249 
L 214.344682 -168.487835 
L 215.122019 -170.754421 
L 215.933698 -173.021007 
L 216.768526 -175.287593 
L 217.613683 -177.554179 
L 218.455313 -179.820765 
L 219.279166 -182.087351 
L 220.071239 -184.353937 
L 220.818398 -186.620523 
L 221.508927 -188.887109 
L 222.132982 -191.153696 
L 222.682938 -193.420282 
L 223.153623 -195.686868 
L 223.54243 -197.953454 
L 223.849323 -200.22004 
L 224.076741 -202.486626 
L 224.229414 -204.753212 
L 224.314105 -207.019798 
L 224.339292 -209.286384 
L 224.314798 -211.55297 
L 224.251397 -213.819556 
L 224.160399 -216.086142 
L 224.053238 -218.352728 
L 223.941077 -220.619315 
L 223.834448 -222.885901 
L 223.742928 -225.152487 
L 223.674876 -227.419073 
L 223.637232 -229.685659 
L 223.635373 -231.952245 
L 223.673032 -234.218831 
L 223.752288 -236.485417 
L 223.873599 -238.752003 
L 224.0359 -241.018589 
L 224.236738 -243.285175 
L 224.472452 -245.551761 
L 224.73839 -247.818347 
L 225.029139 -250.084934 
L 225.338786 -252.35152 
L 225.661171 -254.618106 
L 225.990136 -256.884692 
L 226.319755 -259.151278 
L 226.644534 -261.417864 
L 226.959575 -263.68445 
L 227.260694 -265.951036 
L 227.54449 -268.217622 
L 227.808383 -270.484208 
L 228.050597 -272.750794 
L 228.270116 -275.01738 
L 228.466618 -277.283966 
L 228.640384 -279.550553 
L 228.792196 -281.817139 
L 228.923241 -284.083725 
L 229.035002 -286.350311 
L 229.129166 -288.616897 
L 229.207537 -290.883483 
L 229.271959 -293.150069 
L 229.324251 -295.416655 
L 229.366157 -297.683241 
L 229.633843 -297.683241 
L 229.633843 -297.683241 
L 229.675749 -295.416655 
L 229.728041 -293.150069 
L 229.792463 -290.883483 
L 229.870834 -288.616897 
L 229.964998 -286.350311 
L 230.076759 -284.083725 
L 230.207804 -281.817139 
L 230.359616 -279.550553 
L 230.533382 -277.283966 
L 230.729884 -275.01738 
L 230.949403 -272.750794 
L 231.191617 -270.484208 
L 231.45551 -268.217622 
L 231.739306 -265.951036 
L 232.040425 -263.68445 
L 232.355466 -261.417864 
L 232.680245 -259.151278 
L 233.009864 -256.884692 
L 233.338829 -254.618106 
L 233.661214 -252.35152 
L 233.970861 -250.084934 
L 234.26161 -247.818347 
L 234.527548 -245.551761 
L 234.763262 -243.285175 
L 234.9641 -241.018589 
L 235.126401 -238.752003 
L 235.247712 -236.485417 
L 235.326968 -234.218831 
L 235.364627 -231.952245 
L 235.362768 -229.685659 
L 235.325124 -227.419073 
L 235.257072 -225.152487 
L 235.165552 -222.885901 
L 235.058923 -220.619315 
L 234.946762 -218.352728 
L 234.839601 -216.086142 
L 234.748603 -213.819556 
L 234.685202 -211.55297 
L 234.660708 -209.286384 
L 234.685895 -207.019798 
L 234.770586 -204.753212 
L 234.923259 -202.486626 
L 235.150677 -200.22004 
L 235.45757 -197.953454 
L 235.846377 -195.686868 
L 236.317062 -193.420282 
L 236.867018 -191.153696 
L 237.491073 -188.887109 
L 238.181602 -186.620523 
L 238.928761 -184.353937 
L 239.720834 -182.087351 
L 240.544687 -179.820765 
L 241.386317 -177.554179 
L 242.231474 -175.287593 
L 243.066302 -173.021007 
L 243.877981 -170.754421 
L 244.655318 -168.487835 
L 245.389241 -166.221249 
L 246.073163 -163.954663 
L 246.703191 -161.688077 
L 247.27816 -159.42149 
L 247.799488 -157.154904 
L 248.270864 -154.888318 
L 248.697777 -152.621732 
L 249.086913 -150.355146 
L 249.445461 -148.08856 
L 249.780349 -145.821974 
L 250.097462 -143.555388 
L 250.400875 -141.288802 
L 250.692169 -139.022216 
L 250.969866 -136.75563 
L 251.229042 -134.489044 
L 251.461178 -132.222458 
L 251.654288 -129.955871 
L 251.793345 -127.689285 
L 251.861034 -125.422699 
L 251.838784 -123.156113 
L 251.70805 -120.889527 
L 251.451741 -118.622941 
L 251.05569 -116.356355 
L 250.510043 -114.089769 
L 249.810409 -111.823183 
L 248.958674 -109.556597 
L 247.963366 -107.290011 
L 246.839517 -105.023425 
L 245.608027 -102.756839 
L 244.294572 -100.490252 
L 242.92814 -98.223666 
L 241.539356 -95.95708 
L 240.158723 -93.690494 
L 238.814945 -91.423908 
L 237.53348 -89.157322 
L 236.335421 -86.890736 
L 235.236775 -84.62415 
L 234.248166 -82.357564 
L 233.374933 -80.090978 
L 232.617573 -77.824392 
L 231.972435 -75.557806 
L 231.432583 -73.29122 
z
" style="stroke: #4a4a4a; stroke-width: 1.5"/>
    </defs>
    <g clip-path="url(#pc823f3fc4c)">
     <use xlink:href="#m76ac2380a4" x="0" y="432" style="fill: #b89c49; stroke: #4a4a4a; stroke-width: 1.5"/>
    </g>
   </g>
   <g id="PolyCollection_3">
    <defs>
     <path id="md6ce0721e0" d="M 323.897688 -62.64 
L 321.102312 -62.64 
L 320.678478 -65.694545 
L 320.161607 -68.749091 
L 319.542382 -71.803636 
L 318.813623 -74.858182 
L 317.97111 -77.912727 
L 317.01433 -80.967273 
L 315.94707 -84.021818 
L 314.777775 -87.076364 
L 313.519615 -90.130909 
L 312.190247 -93.185455 
L 310.811246 -96.24 
L 309.407275 -99.294545 
L 308.005035 -102.349091 
L 306.632114 -105.403636 
L 305.315807 -108.458182 
L 304.082032 -111.512727 
L 302.954391 -114.567273 
L 301.953443 -117.621818 
L 301.096198 -120.676364 
L 300.39582 -123.730909 
L 299.861506 -126.785455 
L 299.498492 -129.84 
L 299.308146 -132.894545 
L 299.288122 -135.949091 
L 299.432559 -139.003636 
L 299.732341 -142.058182 
L 300.175433 -145.112727 
L 300.747328 -148.167273 
L 301.431608 -151.221818 
L 302.210632 -154.276364 
L 303.066305 -157.330909 
L 303.980886 -160.385455 
L 304.937752 -163.44 
L 305.922043 -166.494545 
L 306.921099 -169.549091 
L 307.924663 -172.603636 
L 308.9248 -175.658182 
L 309.915577 -178.712727 
L 310.892544 -181.767273 
L 311.852118 -184.821818 
L 312.790943 -187.876364 
L 313.705349 -190.930909 
L 314.590964 -193.985455 
L 315.442548 -197.04 
L 316.254048 -200.094545 
L 317.018853 -203.149091 
L 317.730215 -206.203636 
L 318.381753 -209.258182 
L 318.967976 -212.312727 
L 319.484752 -215.367273 
L 319.929683 -218.421818 
L 320.302334 -221.476364 
L 320.60432 -224.530909 
L 320.839242 -227.585455 
L 321.012493 -230.64 
L 321.130972 -233.694545 
L 321.202707 -236.749091 
L 321.236444 -239.803636 
L 321.24121 -242.858182 
L 321.225876 -245.912727 
L 321.198745 -248.967273 
L 321.167183 -252.021818 
L 321.137306 -255.076364 
L 321.113754 -258.130909 
L 321.099554 -261.185455 
L 321.096098 -264.24 
L 321.103225 -267.294545 
L 321.119424 -270.349091 
L 321.142126 -273.403636 
L 321.168077 -276.458182 
L 321.193753 -279.512727 
L 321.215785 -282.567273 
L 321.231351 -285.621818 
L 321.238498 -288.676364 
L 321.236377 -291.730909 
L 321.225341 -294.785455 
L 321.206928 -297.84 
L 321.183718 -300.894545 
L 321.159076 -303.949091 
L 321.136829 -307.003636 
L 321.120893 -310.058182 
L 321.114897 -313.112727 
L 321.121855 -316.167273 
L 321.143893 -319.221818 
L 321.182085 -322.276364 
L 321.236386 -325.330909 
L 321.305676 -328.385455 
L 321.387904 -331.44 
L 321.480297 -334.494545 
L 321.579621 -337.549091 
L 321.682459 -340.603636 
L 321.785472 -343.658182 
L 321.885622 -346.712727 
L 321.980348 -349.767273 
L 322.067667 -352.821818 
L 322.146224 -355.876364 
L 322.215276 -358.930909 
L 322.274632 -361.985455 
L 322.324561 -365.04 
L 322.675439 -365.04 
L 322.675439 -365.04 
L 322.725368 -361.985455 
L 322.784724 -358.930909 
L 322.853776 -355.876364 
L 322.932333 -352.821818 
L 323.019652 -349.767273 
L 323.114378 -346.712727 
L 323.214528 -343.658182 
L 323.317541 -340.603636 
L 323.420379 -337.549091 
L 323.519703 -334.494545 
L 323.612096 -331.44 
L 323.694324 -328.385455 
L 323.763614 -325.330909 
L 323.817915 -322.276364 
L 323.856107 -319.221818 
L 323.878145 -316.167273 
L 323.885103 -313.112727 
L 323.879107 -310.058182 
L 323.863171 -307.003636 
L 323.840924 -303.949091 
L 323.816282 -300.894545 
L 323.793072 -297.84 
L 323.774659 -294.785455 
L 323.763623 -291.730909 
L 323.761502 -288.676364 
L 323.768649 -285.621818 
L 323.784215 -282.567273 
L 323.806247 -279.512727 
L 323.831923 -276.458182 
L 323.857874 -273.403636 
L 323.880576 -270.349091 
L 323.896775 -267.294545 
L 323.903902 -264.24 
L 323.900446 -261.185455 
L 323.886246 -258.130909 
L 323.862694 -255.076364 
L 323.832817 -252.021818 
L 323.801255 -248.967273 
L 323.774124 -245.912727 
L 323.75879 -242.858182 
L 323.763556 -239.803636 
L 323.797293 -236.749091 
L 323.869028 -233.694545 
L 323.987507 -230.64 
L 324.160758 -227.585455 
L 324.39568 -224.530909 
L 324.697666 -221.476364 
L 325.070317 -218.421818 
L 325.515248 -215.367273 
L 326.032024 -212.312727 
L 326.618247 -209.258182 
L 327.269785 -206.203636 
L 327.981147 -203.149091 
L 328.745952 -200.094545 
L 329.557452 -197.04 
L 330.409036 -193.985455 
L 331.294651 -190.930909 
L 332.209057 -187.876364 
L 333.147882 -184.821818 
L 334.107456 -181.767273 
L 335.084423 -178.712727 
L 336.0752 -175.658182 
L 337.075337 -172.603636 
L 338.078901 -169.549091 
L 339.077957 -166.494545 
L 340.062248 -163.44 
L 341.019114 -160.385455 
L 341.933695 -157.330909 
L 342.789368 -154.276364 
L 343.568392 -151.221818 
L 344.252672 -148.167273 
L 344.824567 -145.112727 
L 345.267659 -142.058182 
L 345.567441 -139.003636 
L 345.711878 -135.949091 
L 345.691854 -132.894545 
L 345.501508 -129.84 
L 345.138494 -126.785455 
L 344.60418 -123.730909 
L 343.903802 -120.676364 
L 343.046557 -117.621818 
L 342.045609 -114.567273 
L 340.917968 -111.512727 
L 339.684193 -108.458182 
L 338.367886 -105.403636 
L 336.994965 -102.349091 
L 335.592725 -99.294545 
L 334.188754 -96.24 
L 332.809753 -93.185455 
L 331.480385 -90.130909 
L 330.222225 -87.076364 
L 329.05293 -84.021818 
L 327.98567 -80.967273 
L 327.02889 -77.912727 
L 326.186377 -74.858182 
L 325.457618 -71.803636 
L 324.838393 -68.749091 
L 324.321522 -65.694545 
L 323.897688 -62.64 
z
" style="stroke: #4a4a4a; stroke-width: 1.5"/>
    </defs>
    <g clip-path="url(#pc823f3fc4c)">
     <use xlink:href="#md6ce0721e0" x="0" y="432" style="fill: #60ae47; stroke: #4a4a4a; stroke-width: 1.5"/>
    </g>
   </g>
   <g id="PolyCollection_4">
    <defs>
     <path id="m792f359c3e" d="M 417.873391 -85.931284 
L 413.126609 -85.931284 
L 412.585412 -87.178805 
L 411.957906 -88.426325 
L 411.239598 -89.673845 
L 410.427912 -90.921365 
L 409.522589 -92.168886 
L 408.526014 -93.416406 
L 407.443427 -94.663926 
L 406.282994 -95.911446 
L 405.055708 -97.158967 
L 403.775111 -98.406487 
L 402.45684 -99.654007 
L 401.118011 -100.901527 
L 399.776476 -102.149048 
L 398.450014 -103.396568 
L 397.155491 -104.644088 
L 395.908082 -105.891609 
L 394.7206 -107.139129 
L 393.602989 -108.386649 
L 392.562034 -109.634169 
L 391.601297 -110.88169 
L 390.721281 -112.12921 
L 389.9198 -113.37673 
L 389.192511 -114.62425 
L 388.533547 -115.871771 
L 387.936173 -117.119291 
L 387.393424 -118.366811 
L 386.898637 -119.614331 
L 386.445856 -120.861852 
L 386.030075 -122.109372 
L 385.647333 -123.356892 
L 385.294676 -124.604413 
L 384.970029 -125.851933 
L 384.672027 -127.099453 
L 384.399862 -128.346973 
L 384.153184 -129.594494 
L 383.93209 -130.842014 
L 383.737205 -132.089534 
L 383.569852 -133.337054 
L 383.43227 -134.584575 
L 383.327836 -135.832095 
L 383.261233 -137.079615 
L 383.238512 -138.327135 
L 383.267003 -139.574656 
L 383.355052 -140.822176 
L 383.511575 -142.069696 
L 383.745465 -143.317217 
L 384.064881 -144.564737 
L 384.476501 -145.812257 
L 384.984808 -147.059777 
L 385.591476 -148.307298 
L 386.294938 -149.554818 
L 387.090172 -150.802338 
L 387.968745 -152.049858 
L 388.919092 -153.297379 
L 389.927033 -154.544899 
L 390.976462 -155.792419 
L 392.050141 -157.039939 
L 393.13055 -158.28746 
L 394.200706 -159.53498 
L 395.2449 -160.7825 
L 396.2493 -162.030021 
L 397.202401 -163.277541 
L 398.095303 -164.525061 
L 398.921837 -165.772581 
L 399.678542 -167.020102 
L 400.36454 -168.267622 
L 400.981321 -169.515142 
L 401.532486 -170.762662 
L 402.023453 -172.010183 
L 402.461158 -173.257703 
L 402.853742 -174.505223 
L 403.21024 -175.752743 
L 403.540264 -177.000264 
L 403.853675 -178.247784 
L 404.160241 -179.495304 
L 404.469291 -180.742825 
L 404.789365 -181.990345 
L 405.127881 -183.237865 
L 405.490833 -184.485385 
L 405.882533 -185.732906 
L 406.305441 -186.980426 
L 406.76007 -188.227946 
L 407.244999 -189.475466 
L 407.756982 -190.722987 
L 408.291168 -191.970507 
L 408.841392 -193.218027 
L 409.400539 -194.465548 
L 409.960941 -195.713068 
L 410.514792 -196.960588 
L 411.054533 -198.208108 
L 411.573211 -199.455629 
L 412.064761 -200.703149 
L 412.52422 -201.950669 
L 412.947858 -203.198189 
L 413.333225 -204.44571 
L 413.679124 -205.69323 
L 413.985517 -206.94075 
L 414.253387 -208.18827 
L 414.484565 -209.435791 
L 416.515435 -209.435791 
L 416.515435 -209.435791 
L 416.746613 -208.18827 
L 417.014483 -206.94075 
L 417.320876 -205.69323 
L 417.666775 -204.44571 
L 418.052142 -203.198189 
L 418.47578 -201.950669 
L 418.935239 -200.703149 
L 419.426789 -199.455629 
L 419.945467 -198.208108 
L 420.485208 -196.960588 
L 421.039059 -195.713068 
L 421.599461 -194.465548 
L 422.158608 -193.218027 
L 422.708832 -191.970507 
L 423.243018 -190.722987 
L 423.755001 -189.475466 
L 424.23993 -188.227946 
L 424.694559 -186.980426 
L 425.117467 -185.732906 
L 425.509167 -184.485385 
L 425.872119 -183.237865 
L 426.210635 -181.990345 
L 426.530709 -180.742825 
L 426.839759 -179.495304 
L 427.146325 -178.247784 
L 427.459736 -177.000264 
L 427.78976 -175.752743 
L 428.146258 -174.505223 
L 428.538842 -173.257703 
L 428.976547 -172.010183 
L 429.467514 -170.762662 
L 430.018679 -169.515142 
L 430.63546 -168.267622 
L 431.321458 -167.020102 
L 432.078163 -165.772581 
L 432.904697 -164.525061 
L 433.797599 -163.277541 
L 434.7507 -162.030021 
L 435.7551 -160.7825 
L 436.799294 -159.53498 
L 437.86945 -158.28746 
L 438.949859 -157.039939 
L 440.023538 -155.792419 
L 441.072967 -154.544899 
L 442.080908 -153.297379 
L 443.031255 -152.049858 
L 443.909828 -150.802338 
L 444.705062 -149.554818 
L 445.408524 -148.307298 
L 446.015192 -147.059777 
L 446.523499 -145.812257 
L 446.935119 -144.564737 
L 447.254535 -143.317217 
L 447.488425 -142.069696 
L 447.644948 -140.822176 
L 447.732997 -139.574656 
L 447.761488 -138.327135 
L 447.738767 -137.079615 
L 447.672164 -135.832095 
L 447.56773 -134.584575 
L 447.430148 -133.337054 
L 447.262795 -132.089534 
L 447.06791 -130.842014 
L 446.846816 -129.594494 
L 446.600138 -128.346973 
L 446.327973 -127.099453 
L 446.029971 -125.851933 
L 445.705324 -124.604413 
L 445.352667 -123.356892 
L 444.969925 -122.109372 
L 444.554144 -120.861852 
L 444.101363 -119.614331 
L 443.606576 -118.366811 
L 443.063827 -117.119291 
L 442.466453 -115.871771 
L 441.807489 -114.62425 
L 441.0802 -113.37673 
L 440.278719 -112.12921 
L 439.398703 -110.88169 
L 438.437966 -109.634169 
L 437.397011 -108.386649 
L 436.2794 -107.139129 
L 435.091918 -105.891609 
L 433.844509 -104.644088 
L 432.549986 -103.396568 
L 431.223524 -102.149048 
L 429.881989 -100.901527 
L 428.54316 -99.654007 
L 427.224889 -98.406487 
L 425.944292 -97.158967 
L 424.717006 -95.911446 
L 423.556573 -94.663926 
L 422.473986 -93.416406 
L 421.477411 -92.168886 
L 420.572088 -90.921365 
L 419.760402 -89.673845 
L 419.042094 -88.426325 
L 418.414588 -87.178805 
L 417.873391 -85.931284 
z
" style="stroke: #4a4a4a; stroke-width: 1.5"/>
    </defs>
    <g clip-path="url(#pc823f3fc4c)">
     <use xlink:href="#m792f359c3e" x="0" y="432" style="fill: #4baba4; stroke: #4a4a4a; stroke-width: 1.5"/>
    </g>
   </g>
   <g id="PolyCollection_5">
    <defs>
     <path id="mb8b6eb4b21" d="M 512.429867 -91.949432 
L 504.570133 -91.949432 
L 503.683348 -92.884446 
L 502.659859 -93.819459 
L 501.494799 -94.754473 
L 500.187195 -95.689487 
L 498.740726 -96.624501 
L 497.164347 -97.559514 
L 495.472684 -98.494528 
L 493.686155 -99.429542 
L 491.830744 -100.364556 
L 489.937407 -101.29957 
L 488.041083 -102.234583 
L 486.179351 -103.169597 
L 484.390773 -104.104611 
L 482.713023 -105.039625 
L 481.180911 -105.974639 
L 479.824443 -106.909652 
L 478.667072 -107.844666 
L 477.724268 -108.77968 
L 477.002556 -109.714694 
L 476.499103 -110.649707 
L 476.201932 -111.584721 
L 476.090742 -112.519735 
L 476.138324 -113.454749 
L 476.312455 -114.389763 
L 476.578138 -115.324776 
L 476.900018 -116.25979 
L 477.244785 -117.194804 
L 477.583356 -118.129818 
L 477.892689 -119.064832 
L 478.15705 -119.999845 
L 478.368664 -120.934859 
L 478.527688 -121.869873 
L 478.641526 -122.804887 
L 478.723565 -123.739901 
L 478.791448 -124.674914 
L 478.865047 -125.609928 
L 478.96433 -126.544942 
L 479.107303 -127.479956 
L 479.308216 -128.414969 
L 479.57619 -129.349983 
L 479.914361 -130.284997 
L 480.319618 -131.220011 
L 480.782927 -132.155025 
L 481.290199 -133.090038 
L 481.82359 -134.025052 
L 482.363112 -134.960066 
L 482.888371 -135.89508 
L 483.380276 -136.830094 
L 483.822549 -137.765107 
L 484.202899 -138.700121 
L 484.513749 -139.635135 
L 484.75247 -140.570149 
L 484.921107 -141.505163 
L 485.025645 -142.440176 
L 485.074897 -143.37519 
L 485.079155 -144.310204 
L 485.048732 -145.245218 
L 484.992573 -146.180231 
L 484.917073 -147.115245 
L 484.825238 -148.050259 
L 484.716283 -148.985273 
L 484.585718 -149.920287 
L 484.425926 -150.8553 
L 484.227191 -151.790314 
L 483.979067 -152.725328 
L 483.671981 -153.660342 
L 483.298897 -154.595356 
L 482.856882 -155.530369 
L 482.34842 -156.465383 
L 481.782317 -157.400397 
L 481.174106 -158.335411 
L 480.545892 -159.270425 
L 479.925606 -160.205438 
L 479.345735 -161.140452 
L 478.841592 -162.075466 
L 478.449282 -163.01048 
L 478.2035 -163.945493 
L 478.135347 -164.880507 
L 478.270331 -165.815521 
L 478.626711 -166.750535 
L 479.214299 -167.685549 
L 480.033816 -168.620562 
L 481.076823 -169.555576 
L 482.326229 -170.49059 
L 483.757312 -171.425604 
L 485.339155 -172.360618 
L 487.036385 -173.295631 
L 488.811064 -174.230645 
L 490.624606 -175.165659 
L 492.439581 -176.100673 
L 494.221299 -177.035686 
L 495.939095 -177.9707 
L 497.567254 -178.905714 
L 499.085569 -179.840728 
L 500.479533 -180.775742 
L 501.740209 -181.710755 
L 502.863821 -182.645769 
L 503.851147 -183.580783 
L 504.706764 -184.515797 
L 512.293236 -184.515797 
L 512.293236 -184.515797 
L 513.148853 -183.580783 
L 514.136179 -182.645769 
L 515.259791 -181.710755 
L 516.520467 -180.775742 
L 517.914431 -179.840728 
L 519.432746 -178.905714 
L 521.060905 -177.9707 
L 522.778701 -177.035686 
L 524.560419 -176.100673 
L 526.375394 -175.165659 
L 528.188936 -174.230645 
L 529.963615 -173.295631 
L 531.660845 -172.360618 
L 533.242688 -171.425604 
L 534.673771 -170.49059 
L 535.923177 -169.555576 
L 536.966184 -168.620562 
L 537.785701 -167.685549 
L 538.373289 -166.750535 
L 538.729669 -165.815521 
L 538.864653 -164.880507 
L 538.7965 -163.945493 
L 538.550718 -163.01048 
L 538.158408 -162.075466 
L 537.654265 -161.140452 
L 537.074394 -160.205438 
L 536.454108 -159.270425 
L 535.825894 -158.335411 
L 535.217683 -157.400397 
L 534.65158 -156.465383 
L 534.143118 -155.530369 
L 533.701103 -154.595356 
L 533.328019 -153.660342 
L 533.020933 -152.725328 
L 532.772809 -151.790314 
L 532.574074 -150.8553 
L 532.414282 -149.920287 
L 532.283717 -148.985273 
L 532.174762 -148.050259 
L 532.082927 -147.115245 
L 532.007427 -146.180231 
L 531.951268 -145.245218 
L 531.920845 -144.310204 
L 531.925103 -143.37519 
L 531.974355 -142.440176 
L 532.078893 -141.505163 
L 532.24753 -140.570149 
L 532.486251 -139.635135 
L 532.797101 -138.700121 
L 533.177451 -137.765107 
L 533.619724 -136.830094 
L 534.111629 -135.89508 
L 534.636888 -134.960066 
L 535.17641 -134.025052 
L 535.709801 -133.090038 
L 536.217073 -132.155025 
L 536.680382 -131.220011 
L 537.085639 -130.284997 
L 537.42381 -129.349983 
L 537.691784 -128.414969 
L 537.892697 -127.479956 
L 538.03567 -126.544942 
L 538.134953 -125.609928 
L 538.208552 -124.674914 
L 538.276435 -123.739901 
L 538.358474 -122.804887 
L 538.472312 -121.869873 
L 538.631336 -120.934859 
L 538.84295 -119.999845 
L 539.107311 -119.064832 
L 539.416644 -118.129818 
L 539.755215 -117.194804 
L 540.099982 -116.25979 
L 540.421862 -115.324776 
L 540.687545 -114.389763 
L 540.861676 -113.454749 
L 540.909258 -112.519735 
L 540.798068 -111.584721 
L 540.500897 -110.649707 
L 539.997444 -109.714694 
L 539.275732 -108.77968 
L 538.332928 -107.844666 
L 537.175557 -106.909652 
L 535.819089 -105.974639 
L 534.286977 -105.039625 
L 532.609227 -104.104611 
L 530.820649 -103.169597 
L 528.958917 -102.234583 
L 527.062593 -101.29957 
L 525.169256 -100.364556 
L 523.313845 -99.429542 
L 521.527316 -98.494528 
L 519.835653 -97.559514 
L 518.259274 -96.624501 
L 516.812805 -95.689487 
L 515.505201 -94.754473 
L 514.340141 -93.819459 
L 513.316652 -92.884446 
L 512.429867 -91.949432 
z
" style="stroke: #4a4a4a; stroke-width: 1.5"/>
    </defs>
    <g clip-path="url(#pc823f3fc4c)">
     <use xlink:href="#mb8b6eb4b21" x="0" y="432" style="fill: #6daee2; stroke: #4a4a4a; stroke-width: 1.5"/>
    </g>
   </g>
   <g id="PolyCollection_6">
    <defs>
     <path id="mf7b8f7eb6e" d="M 606.183438 -93.82757 
L 596.816562 -93.82757 
L 595.138423 -95.106497 
L 593.074671 -96.385424 
L 590.619391 -97.664351 
L 587.797609 -98.943278 
L 584.670805 -100.222205 
L 581.338518 -101.501132 
L 577.934729 -102.78006 
L 574.618352 -104.058987 
L 571.558204 -105.337914 
L 568.913955 -106.616841 
L 566.815647 -107.895768 
L 565.345036 -109.174695 
L 564.522162 -110.453622 
L 564.3 -111.732549 
L 564.568817 -113.011476 
L 565.170275 -114.290403 
L 565.919527 -115.56933 
L 566.632033 -116.848257 
L 567.150828 -118.127185 
L 567.369716 -119.406112 
L 567.248496 -120.685039 
L 566.817563 -121.963966 
L 566.171102 -123.242893 
L 565.449994 -124.52182 
L 564.817368 -125.800747 
L 564.430966 -127.079674 
L 564.417014 -128.358601 
L 564.849954 -129.637528 
L 565.741308 -130.916455 
L 567.039272 -132.195383 
L 568.638726 -133.47431 
L 570.399569 -134.753237 
L 572.169884 -136.032164 
L 573.809795 -137.311091 
L 575.211922 -138.590018 
L 576.315143 -139.868945 
L 577.109715 -141.147872 
L 577.633389 -142.426799 
L 577.959739 -143.705726 
L 578.181185 -144.984653 
L 578.390011 -146.26358 
L 578.660809 -147.542508 
L 579.037388 -148.821435 
L 579.526263 -150.100362 
L 580.097579 -151.379289 
L 580.692996 -152.658216 
L 581.238873 -153.937143 
L 581.66219 -155.21607 
L 581.906282 -156.494997 
L 581.943565 -157.773924 
L 581.783062 -159.052851 
L 581.471473 -160.331778 
L 581.087737 -161.610706 
L 580.732115 -162.889633 
L 580.511764 -164.16856 
L 580.525309 -165.447487 
L 580.848969 -166.726414 
L 581.526433 -168.005341 
L 582.563879 -169.284268 
L 583.93061 -170.563195 
L 585.564746 -171.842122 
L 587.382636 -173.121049 
L 589.290154 -174.399976 
L 591.193961 -175.678903 
L 593.011056 -176.957831 
L 594.675495 -178.236758 
L 596.141781 -179.515685 
L 597.385079 -180.794612 
L 598.398872 -182.073539 
L 599.190978 -183.352466 
L 599.778889 -184.631393 
L 600.185291 -185.91032 
L 600.434392 -187.189247 
L 600.549403 -188.468174 
L 600.55125 -189.747101 
L 600.458385 -191.026028 
L 600.287408 -192.304956 
L 600.054134 -193.583883 
L 599.77473 -194.86281 
L 599.466579 -196.141737 
L 599.148627 -197.420664 
L 598.841086 -198.699591 
L 598.564479 -199.978518 
L 598.338195 -201.257445 
L 598.17878 -202.536372 
L 598.098274 -203.815299 
L 598.102926 -205.094226 
L 598.192512 -206.373154 
L 598.360421 -207.652081 
L 598.594501 -208.931008 
L 598.878533 -210.209935 
L 599.194093 -211.488862 
L 599.522519 -212.767789 
L 599.846684 -214.046716 
L 600.152365 -215.325643 
L 600.429068 -216.60457 
L 600.670294 -217.883497 
L 600.873301 -219.162424 
L 601.038505 -220.441351 
L 601.961495 -220.441351 
L 601.961495 -220.441351 
L 602.126699 -219.162424 
L 602.329706 -217.883497 
L 602.570932 -216.60457 
L 602.847635 -215.325643 
L 603.153316 -214.046716 
L 603.477481 -212.767789 
L 603.805907 -211.488862 
L 604.121467 -210.209935 
L 604.405499 -208.931008 
L 604.639579 -207.652081 
L 604.807488 -206.373154 
L 604.897074 -205.094226 
L 604.901726 -203.815299 
L 604.82122 -202.536372 
L 604.661805 -201.257445 
L 604.435521 -199.978518 
L 604.158914 -198.699591 
L 603.851373 -197.420664 
L 603.533421 -196.141737 
L 603.22527 -194.86281 
L 602.945866 -193.583883 
L 602.712592 -192.304956 
L 602.541615 -191.026028 
L 602.44875 -189.747101 
L 602.450597 -188.468174 
L 602.565608 -187.189247 
L 602.814709 -185.91032 
L 603.221111 -184.631393 
L 603.809022 -183.352466 
L 604.601128 -182.073539 
L 605.614921 -180.794612 
L 606.858219 -179.515685 
L 608.324505 -178.236758 
L 609.988944 -176.957831 
L 611.806039 -175.678903 
L 613.709846 -174.399976 
L 615.617364 -173.121049 
L 617.435254 -171.842122 
L 619.06939 -170.563195 
L 620.436121 -169.284268 
L 621.473567 -168.005341 
L 622.151031 -166.726414 
L 622.474691 -165.447487 
L 622.488236 -164.16856 
L 622.267885 -162.889633 
L 621.912263 -161.610706 
L 621.528527 -160.331778 
L 621.216938 -159.052851 
L 621.056435 -157.773924 
L 621.093718 -156.494997 
L 621.33781 -155.21607 
L 621.761127 -153.937143 
L 622.307004 -152.658216 
L 622.902421 -151.379289 
L 623.473737 -150.100362 
L 623.962612 -148.821435 
L 624.339191 -147.542508 
L 624.609989 -146.26358 
L 624.818815 -144.984653 
L 625.040261 -143.705726 
L 625.366611 -142.426799 
L 625.890285 -141.147872 
L 626.684857 -139.868945 
L 627.788078 -138.590018 
L 629.190205 -137.311091 
L 630.830116 -136.032164 
L 632.600431 -134.753237 
L 634.361274 -133.47431 
L 635.960728 -132.195383 
L 637.258692 -130.916455 
L 638.150046 -129.637528 
L 638.582986 -128.358601 
L 638.569034 -127.079674 
L 638.182632 -125.800747 
L 637.550006 -124.52182 
L 636.828898 -123.242893 
L 636.182437 -121.963966 
L 635.751504 -120.685039 
L 635.630284 -119.406112 
L 635.849172 -118.127185 
L 636.367967 -116.848257 
L 637.080473 -115.56933 
L 637.829725 -114.290403 
L 638.431183 -113.011476 
L 638.7 -111.732549 
L 638.477838 -110.453622 
L 637.654964 -109.174695 
L 636.184353 -107.895768 
L 634.086045 -106.616841 
L 631.441796 -105.337914 
L 628.381648 -104.058987 
L 625.065271 -102.78006 
L 621.661482 -101.501132 
L 618.329195 -100.222205 
L 615.202391 -98.943278 
L 612.380609 -97.664351 
L 609.925329 -96.385424 
L 607.861577 -95.106497 
L 606.183438 -93.82757 
z
" style="stroke: #4a4a4a; stroke-width: 1.5"/>
    </defs>
    <g clip-path="url(#pc823f3fc4c)">
     <use xlink:href="#mf7b8f7eb6e" x="0" y="432" style="fill: #df8fe7; stroke: #4a4a4a; stroke-width: 1.5"/>
    </g>
   </g>
   <g id="matplotlib.axis_1">
    <g id="xtick_1">
     <g id="line2d_1">
      <defs>
       <path id="md6288d0d44" d="M 0 0 
L 0 3.5 
" style="stroke: #000000; stroke-width: 0.8"/>
      </defs>
      <g>
       <use xlink:href="#md6288d0d44" x="136.5" y="384.48" style="stroke: #000000; stroke-width: 0.8"/>
      </g>
     </g>
     <g id="text_1">
      <!-- Enigmatic Fires -->
      <g transform="translate(98.460156 399.078438) scale(0.1 -0.1)">
       <defs>
        <path id="DejaVuSans-45" d="M 628 4666 
L 3578 4666 
L 3578 4134 
L 1259 4134 
L 1259 2753 
L 3481 2753 
L 3481 2222 
L 1259 2222 
L 1259 531 
L 3634 531 
L 3634 0 
L 628 0 
L 628 4666 
z
" transform="scale(0.015625)"/>
        <path id="DejaVuSans-6e" d="M 3513 2113 
L 3513 0 
L 2938 0 
L 2938 2094 
Q 2938 2591 2744 2837 
Q 2550 3084 2163 3084 
Q 1697 3084 1428 2787 
Q 1159 2491 1159 1978 
L 1159 0 
L 581 0 
L 581 3500 
L 1159 3500 
L 1159 2956 
Q 1366 3272 1645 3428 
Q 1925 3584 2291 3584 
Q 2894 3584 3203 3211 
Q 3513 2838 3513 2113 
z
" transform="scale(0.015625)"/>
        <path id="DejaVuSans-69" d="M 603 3500 
L 1178 3500 
L 1178 0 
L 603 0 
L 603 3500 
z
M 603 4863 
L 1178 4863 
L 1178 4134 
L 603 4134 
L 603 4863 
z
" transform="scale(0.015625)"/>
        <path id="DejaVuSans-67" d="M 2906 1791 
Q 2906 2416 2648 2759 
Q 2391 3103 1925 3103 
Q 1463 3103 1205 2759 
Q 947 2416 947 1791 
Q 947 1169 1205 825 
Q 1463 481 1925 481 
Q 2391 481 2648 825 
Q 2906 1169 2906 1791 
z
M 3481 434 
Q 3481 -459 3084 -895 
Q 2688 -1331 1869 -1331 
Q 1566 -1331 1297 -1286 
Q 1028 -1241 775 -1147 
L 775 -588 
Q 1028 -725 1275 -790 
Q 1522 -856 1778 -856 
Q 2344 -856 2625 -561 
Q 2906 -266 2906 331 
L 2906 616 
Q 2728 306 2450 153 
Q 2172 0 1784 0 
Q 1141 0 747 490 
Q 353 981 353 1791 
Q 353 2603 747 3093 
Q 1141 3584 1784 3584 
Q 2172 3584 2450 3431 
Q 2728 3278 2906 2969 
L 2906 3500 
L 3481 3500 
L 3481 434 
z
" transform="scale(0.015625)"/>
        <path id="DejaVuSans-6d" d="M 3328 2828 
Q 3544 3216 3844 3400 
Q 4144 3584 4550 3584 
Q 5097 3584 5394 3201 
Q 5691 2819 5691 2113 
L 5691 0 
L 5113 0 
L 5113 2094 
Q 5113 2597 4934 2840 
Q 4756 3084 4391 3084 
Q 3944 3084 3684 2787 
Q 3425 2491 3425 1978 
L 3425 0 
L 2847 0 
L 2847 2094 
Q 2847 2600 2669 2842 
Q 2491 3084 2119 3084 
Q 1678 3084 1418 2786 
Q 1159 2488 1159 1978 
L 1159 0 
L 581 0 
L 581 3500 
L 1159 3500 
L 1159 2956 
Q 1356 3278 1631 3431 
Q 1906 3584 2284 3584 
Q 2666 3584 2933 3390 
Q 3200 3197 3328 2828 
z
" transform="scale(0.015625)"/>
        <path id="DejaVuSans-61" d="M 2194 1759 
Q 1497 1759 1228 1600 
Q 959 1441 959 1056 
Q 959 750 1161 570 
Q 1363 391 1709 391 
Q 2188 391 2477 730 
Q 2766 1069 2766 1631 
L 2766 1759 
L 2194 1759 
z
M 3341 1997 
L 3341 0 
L 2766 0 
L 2766 531 
Q 2569 213 2275 61 
Q 1981 -91 1556 -91 
Q 1019 -91 701 211 
Q 384 513 384 1019 
Q 384 1609 779 1909 
Q 1175 2209 1959 2209 
L 2766 2209 
L 2766 2266 
Q 2766 2663 2505 2880 
Q 2244 3097 1772 3097 
Q 1472 3097 1187 3025 
Q 903 2953 641 2809 
L 641 3341 
Q 956 3463 1253 3523 
Q 1550 3584 1831 3584 
Q 2591 3584 2966 3190 
Q 3341 2797 3341 1997 
z
" transform="scale(0.015625)"/>
        <path id="DejaVuSans-74" d="M 1172 4494 
L 1172 3500 
L 2356 3500 
L 2356 3053 
L 1172 3053 
L 1172 1153 
Q 1172 725 1289 603 
Q 1406 481 1766 481 
L 2356 481 
L 2356 0 
L 1766 0 
Q 1100 0 847 248 
Q 594 497 594 1153 
L 594 3053 
L 172 3053 
L 172 3500 
L 594 3500 
L 594 4494 
L 1172 4494 
z
" transform="scale(0.015625)"/>
        <path id="DejaVuSans-63" d="M 3122 3366 
L 3122 2828 
Q 2878 2963 2633 3030 
Q 2388 3097 2138 3097 
Q 1578 3097 1268 2742 
Q 959 2388 959 1747 
Q 959 1106 1268 751 
Q 1578 397 2138 397 
Q 2388 397 2633 464 
Q 2878 531 3122 666 
L 3122 134 
Q 2881 22 2623 -34 
Q 2366 -91 2075 -91 
Q 1284 -91 818 406 
Q 353 903 353 1747 
Q 353 2603 823 3093 
Q 1294 3584 2113 3584 
Q 2378 3584 2631 3529 
Q 2884 3475 3122 3366 
z
" transform="scale(0.015625)"/>
        <path id="DejaVuSans-20" transform="scale(0.015625)"/>
        <path id="DejaVuSans-46" d="M 628 4666 
L 3309 4666 
L 3309 4134 
L 1259 4134 
L 1259 2759 
L 3109 2759 
L 3109 2228 
L 1259 2228 
L 1259 0 
L 628 0 
L 628 4666 
z
" transform="scale(0.015625)"/>
        <path id="DejaVuSans-72" d="M 2631 2963 
Q 2534 3019 2420 3045 
Q 2306 3072 2169 3072 
Q 1681 3072 1420 2755 
Q 1159 2438 1159 1844 
L 1159 0 
L 581 0 
L 581 3500 
L 1159 3500 
L 1159 2956 
Q 1341 3275 1631 3429 
Q 1922 3584 2338 3584 
Q 2397 3584 2469 3576 
Q 2541 3569 2628 3553 
L 2631 2963 
z
" transform="scale(0.015625)"/>
        <path id="DejaVuSans-65" d="M 3597 1894 
L 3597 1613 
L 953 1613 
Q 991 1019 1311 708 
Q 1631 397 2203 397 
Q 2534 397 2845 478 
Q 3156 559 3463 722 
L 3463 178 
Q 3153 47 2828 -22 
Q 2503 -91 2169 -91 
Q 1331 -91 842 396 
Q 353 884 353 1716 
Q 353 2575 817 3079 
Q 1281 3584 2069 3584 
Q 2775 3584 3186 3129 
Q 3597 2675 3597 1894 
z
M 3022 2063 
Q 3016 2534 2758 2815 
Q 2500 3097 2075 3097 
Q 1594 3097 1305 2825 
Q 1016 2553 972 2059 
L 3022 2063 
z
" transform="scale(0.015625)"/>
        <path id="DejaVuSans-73" d="M 2834 3397 
L 2834 2853 
Q 2591 2978 2328 3040 
Q 2066 3103 1784 3103 
Q 1356 3103 1142 2972 
Q 928 2841 928 2578 
Q 928 2378 1081 2264 
Q 1234 2150 1697 2047 
L 1894 2003 
Q 2506 1872 2764 1633 
Q 3022 1394 3022 966 
Q 3022 478 2636 193 
Q 2250 -91 1575 -91 
Q 1294 -91 989 -36 
Q 684 19 347 128 
L 347 722 
Q 666 556 975 473 
Q 1284 391 1588 391 
Q 1994 391 2212 530 
Q 2431 669 2431 922 
Q 2431 1156 2273 1281 
Q 2116 1406 1581 1522 
L 1381 1569 
Q 847 1681 609 1914 
Q 372 2147 372 2553 
Q 372 3047 722 3315 
Q 1072 3584 1716 3584 
Q 2034 3584 2315 3537 
Q 2597 3491 2834 3397 
z
" transform="scale(0.015625)"/>
       </defs>
       <use xlink:href="#DejaVuSans-45"/>
       <use xlink:href="#DejaVuSans-6e" x="63.183594"/>
       <use xlink:href="#DejaVuSans-69" x="126.5625"/>
       <use xlink:href="#DejaVuSans-67" x="154.345703"/>
       <use xlink:href="#DejaVuSans-6d" x="217.822266"/>
       <use xlink:href="#DejaVuSans-61" x="315.234375"/>
       <use xlink:href="#DejaVuSans-74" x="376.513672"/>
       <use xlink:href="#DejaVuSans-69" x="415.722656"/>
       <use xlink:href="#DejaVuSans-63" x="443.505859"/>
       <use xlink:href="#DejaVuSans-20" x="498.486328"/>
       <use xlink:href="#DejaVuSans-46" x="530.273438"/>
       <use xlink:href="#DejaVuSans-69" x="580.542969"/>
       <use xlink:href="#DejaVuSans-72" x="608.326172"/>
       <use xlink:href="#DejaVuSans-65" x="647.189453"/>
       <use xlink:href="#DejaVuSans-73" x="708.712891"/>
      </g>
     </g>
    </g>
    <g id="xtick_2">
     <g id="line2d_2">
      <g>
       <use xlink:href="#md6288d0d44" x="229.5" y="384.48" style="stroke: #000000; stroke-width: 0.8"/>
      </g>
     </g>
     <g id="text_2">
      <!-- Izzet Creativity -->
      <g transform="translate(191.958594 399.078438) scale(0.1 -0.1)">
       <defs>
        <path id="DejaVuSans-49" d="M 628 4666 
L 1259 4666 
L 1259 0 
L 628 0 
L 628 4666 
z
" transform="scale(0.015625)"/>
        <path id="DejaVuSans-7a" d="M 353 3500 
L 3084 3500 
L 3084 2975 
L 922 459 
L 3084 459 
L 3084 0 
L 275 0 
L 275 525 
L 2438 3041 
L 353 3041 
L 353 3500 
z
" transform="scale(0.015625)"/>
        <path id="DejaVuSans-43" d="M 4122 4306 
L 4122 3641 
Q 3803 3938 3442 4084 
Q 3081 4231 2675 4231 
Q 1875 4231 1450 3742 
Q 1025 3253 1025 2328 
Q 1025 1406 1450 917 
Q 1875 428 2675 428 
Q 3081 428 3442 575 
Q 3803 722 4122 1019 
L 4122 359 
Q 3791 134 3420 21 
Q 3050 -91 2638 -91 
Q 1578 -91 968 557 
Q 359 1206 359 2328 
Q 359 3453 968 4101 
Q 1578 4750 2638 4750 
Q 3056 4750 3426 4639 
Q 3797 4528 4122 4306 
z
" transform="scale(0.015625)"/>
        <path id="DejaVuSans-76" d="M 191 3500 
L 800 3500 
L 1894 563 
L 2988 3500 
L 3597 3500 
L 2284 0 
L 1503 0 
L 191 3500 
z
" transform="scale(0.015625)"/>
        <path id="DejaVuSans-79" d="M 2059 -325 
Q 1816 -950 1584 -1140 
Q 1353 -1331 966 -1331 
L 506 -1331 
L 506 -850 
L 844 -850 
Q 1081 -850 1212 -737 
Q 1344 -625 1503 -206 
L 1606 56 
L 191 3500 
L 800 3500 
L 1894 763 
L 2988 3500 
L 3597 3500 
L 2059 -325 
z
" transform="scale(0.015625)"/>
       </defs>
       <use xlink:href="#DejaVuSans-49"/>
       <use xlink:href="#DejaVuSans-7a" x="29.492188"/>
       <use xlink:href="#DejaVuSans-7a" x="81.982422"/>
       <use xlink:href="#DejaVuSans-65" x="134.472656"/>
       <use xlink:href="#DejaVuSans-74" x="195.996094"/>
       <use xlink:href="#DejaVuSans-20" x="235.205078"/>
       <use xlink:href="#DejaVuSans-43" x="266.992188"/>
       <use xlink:href="#DejaVuSans-72" x="336.816406"/>
       <use xlink:href="#DejaVuSans-65" x="375.679688"/>
       <use xlink:href="#DejaVuSans-61" x="437.203125"/>
       <use xlink:href="#DejaVuSans-74" x="498.482422"/>
       <use xlink:href="#DejaVuSans-69" x="537.691406"/>
       <use xlink:href="#DejaVuSans-76" x="565.474609"/>
       <use xlink:href="#DejaVuSans-69" x="624.654297"/>
       <use xlink:href="#DejaVuSans-74" x="652.4375"/>
       <use xlink:href="#DejaVuSans-79" x="691.646484"/>
      </g>
     </g>
    </g>
    <g id="xtick_3">
     <g id="line2d_3">
      <g>
       <use xlink:href="#md6288d0d44" x="322.5" y="384.48" style="stroke: #000000; stroke-width: 0.8"/>
      </g>
     </g>
     <g id="text_3">
      <!-- Izzet Phoenix -->
      <g transform="translate(289.314062 399.078438) scale(0.1 -0.1)">
       <defs>
        <path id="DejaVuSans-50" d="M 1259 4147 
L 1259 2394 
L 2053 2394 
Q 2494 2394 2734 2622 
Q 2975 2850 2975 3272 
Q 2975 3691 2734 3919 
Q 2494 4147 2053 4147 
L 1259 4147 
z
M 628 4666 
L 2053 4666 
Q 2838 4666 3239 4311 
Q 3641 3956 3641 3272 
Q 3641 2581 3239 2228 
Q 2838 1875 2053 1875 
L 1259 1875 
L 1259 0 
L 628 0 
L 628 4666 
z
" transform="scale(0.015625)"/>
        <path id="DejaVuSans-68" d="M 3513 2113 
L 3513 0 
L 2938 0 
L 2938 2094 
Q 2938 2591 2744 2837 
Q 2550 3084 2163 3084 
Q 1697 3084 1428 2787 
Q 1159 2491 1159 1978 
L 1159 0 
L 581 0 
L 581 4863 
L 1159 4863 
L 1159 2956 
Q 1366 3272 1645 3428 
Q 1925 3584 2291 3584 
Q 2894 3584 3203 3211 
Q 3513 2838 3513 2113 
z
" transform="scale(0.015625)"/>
        <path id="DejaVuSans-6f" d="M 1959 3097 
Q 1497 3097 1228 2736 
Q 959 2375 959 1747 
Q 959 1119 1226 758 
Q 1494 397 1959 397 
Q 2419 397 2687 759 
Q 2956 1122 2956 1747 
Q 2956 2369 2687 2733 
Q 2419 3097 1959 3097 
z
M 1959 3584 
Q 2709 3584 3137 3096 
Q 3566 2609 3566 1747 
Q 3566 888 3137 398 
Q 2709 -91 1959 -91 
Q 1206 -91 779 398 
Q 353 888 353 1747 
Q 353 2609 779 3096 
Q 1206 3584 1959 3584 
z
" transform="scale(0.015625)"/>
        <path id="DejaVuSans-78" d="M 3513 3500 
L 2247 1797 
L 3578 0 
L 2900 0 
L 1881 1375 
L 863 0 
L 184 0 
L 1544 1831 
L 300 3500 
L 978 3500 
L 1906 2253 
L 2834 3500 
L 3513 3500 
z
" transform="scale(0.015625)"/>
       </defs>
       <use xlink:href="#DejaVuSans-49"/>
       <use xlink:href="#DejaVuSans-7a" x="29.492188"/>
       <use xlink:href="#DejaVuSans-7a" x="81.982422"/>
       <use xlink:href="#DejaVuSans-65" x="134.472656"/>
       <use xlink:href="#DejaVuSans-74" x="195.996094"/>
       <use xlink:href="#DejaVuSans-20" x="235.205078"/>
       <use xlink:href="#DejaVuSans-50" x="266.992188"/>
       <use xlink:href="#DejaVuSans-68" x="327.294922"/>
       <use xlink:href="#DejaVuSans-6f" x="390.673828"/>
       <use xlink:href="#DejaVuSans-65" x="451.855469"/>
       <use xlink:href="#DejaVuSans-6e" x="513.378906"/>
       <use xlink:href="#DejaVuSans-69" x="576.757812"/>
       <use xlink:href="#DejaVuSans-78" x="604.541016"/>
      </g>
     </g>
    </g>
    <g id="xtick_4">
     <g id="line2d_4">
      <g>
       <use xlink:href="#md6288d0d44" x="415.5" y="384.48" style="stroke: #000000; stroke-width: 0.8"/>
      </g>
     </g>
     <g id="text_4">
      <!-- Atarka Red -->
      <g transform="translate(388.126562 399.078438) scale(0.1 -0.1)">
       <defs>
        <path id="DejaVuSans-41" d="M 2188 4044 
L 1331 1722 
L 3047 1722 
L 2188 4044 
z
M 1831 4666 
L 2547 4666 
L 4325 0 
L 3669 0 
L 3244 1197 
L 1141 1197 
L 716 0 
L 50 0 
L 1831 4666 
z
" transform="scale(0.015625)"/>
        <path id="DejaVuSans-6b" d="M 581 4863 
L 1159 4863 
L 1159 1991 
L 2875 3500 
L 3609 3500 
L 1753 1863 
L 3688 0 
L 2938 0 
L 1159 1709 
L 1159 0 
L 581 0 
L 581 4863 
z
" transform="scale(0.015625)"/>
        <path id="DejaVuSans-52" d="M 2841 2188 
Q 3044 2119 3236 1894 
Q 3428 1669 3622 1275 
L 4263 0 
L 3584 0 
L 2988 1197 
Q 2756 1666 2539 1819 
Q 2322 1972 1947 1972 
L 1259 1972 
L 1259 0 
L 628 0 
L 628 4666 
L 2053 4666 
Q 2853 4666 3247 4331 
Q 3641 3997 3641 3322 
Q 3641 2881 3436 2590 
Q 3231 2300 2841 2188 
z
M 1259 4147 
L 1259 2491 
L 2053 2491 
Q 2509 2491 2742 2702 
Q 2975 2913 2975 3322 
Q 2975 3731 2742 3939 
Q 2509 4147 2053 4147 
L 1259 4147 
z
" transform="scale(0.015625)"/>
        <path id="DejaVuSans-64" d="M 2906 2969 
L 2906 4863 
L 3481 4863 
L 3481 0 
L 2906 0 
L 2906 525 
Q 2725 213 2448 61 
Q 2172 -91 1784 -91 
Q 1150 -91 751 415 
Q 353 922 353 1747 
Q 353 2572 751 3078 
Q 1150 3584 1784 3584 
Q 2172 3584 2448 3432 
Q 2725 3281 2906 2969 
z
M 947 1747 
Q 947 1113 1208 752 
Q 1469 391 1925 391 
Q 2381 391 2643 752 
Q 2906 1113 2906 1747 
Q 2906 2381 2643 2742 
Q 2381 3103 1925 3103 
Q 1469 3103 1208 2742 
Q 947 2381 947 1747 
z
" transform="scale(0.015625)"/>
       </defs>
       <use xlink:href="#DejaVuSans-41"/>
       <use xlink:href="#DejaVuSans-74" x="66.658203"/>
       <use xlink:href="#DejaVuSans-61" x="105.867188"/>
       <use xlink:href="#DejaVuSans-72" x="167.146484"/>
       <use xlink:href="#DejaVuSans-6b" x="208.259766"/>
       <use xlink:href="#DejaVuSans-61" x="264.419922"/>
       <use xlink:href="#DejaVuSans-20" x="325.699219"/>
       <use xlink:href="#DejaVuSans-52" x="357.486328"/>
       <use xlink:href="#DejaVuSans-65" x="422.46875"/>
       <use xlink:href="#DejaVuSans-64" x="483.992188"/>
      </g>
     </g>
    </g>
    <g id="xtick_5">
     <g id="line2d_5">
      <g>
       <use xlink:href="#md6288d0d44" x="508.5" y="384.48" style="stroke: #000000; stroke-width: 0.8"/>
      </g>
     </g>
     <g id="text_5">
      <!-- Azorius Spirits -->
      <g transform="translate(472.842188 399.078438) scale(0.1 -0.1)">
       <defs>
        <path id="DejaVuSans-75" d="M 544 1381 
L 544 3500 
L 1119 3500 
L 1119 1403 
Q 1119 906 1312 657 
Q 1506 409 1894 409 
Q 2359 409 2629 706 
Q 2900 1003 2900 1516 
L 2900 3500 
L 3475 3500 
L 3475 0 
L 2900 0 
L 2900 538 
Q 2691 219 2414 64 
Q 2138 -91 1772 -91 
Q 1169 -91 856 284 
Q 544 659 544 1381 
z
M 1991 3584 
L 1991 3584 
z
" transform="scale(0.015625)"/>
        <path id="DejaVuSans-53" d="M 3425 4513 
L 3425 3897 
Q 3066 4069 2747 4153 
Q 2428 4238 2131 4238 
Q 1616 4238 1336 4038 
Q 1056 3838 1056 3469 
Q 1056 3159 1242 3001 
Q 1428 2844 1947 2747 
L 2328 2669 
Q 3034 2534 3370 2195 
Q 3706 1856 3706 1288 
Q 3706 609 3251 259 
Q 2797 -91 1919 -91 
Q 1588 -91 1214 -16 
Q 841 59 441 206 
L 441 856 
Q 825 641 1194 531 
Q 1563 422 1919 422 
Q 2459 422 2753 634 
Q 3047 847 3047 1241 
Q 3047 1584 2836 1778 
Q 2625 1972 2144 2069 
L 1759 2144 
Q 1053 2284 737 2584 
Q 422 2884 422 3419 
Q 422 4038 858 4394 
Q 1294 4750 2059 4750 
Q 2388 4750 2728 4690 
Q 3069 4631 3425 4513 
z
" transform="scale(0.015625)"/>
        <path id="DejaVuSans-70" d="M 1159 525 
L 1159 -1331 
L 581 -1331 
L 581 3500 
L 1159 3500 
L 1159 2969 
Q 1341 3281 1617 3432 
Q 1894 3584 2278 3584 
Q 2916 3584 3314 3078 
Q 3713 2572 3713 1747 
Q 3713 922 3314 415 
Q 2916 -91 2278 -91 
Q 1894 -91 1617 61 
Q 1341 213 1159 525 
z
M 3116 1747 
Q 3116 2381 2855 2742 
Q 2594 3103 2138 3103 
Q 1681 3103 1420 2742 
Q 1159 2381 1159 1747 
Q 1159 1113 1420 752 
Q 1681 391 2138 391 
Q 2594 391 2855 752 
Q 3116 1113 3116 1747 
z
" transform="scale(0.015625)"/>
       </defs>
       <use xlink:href="#DejaVuSans-41"/>
       <use xlink:href="#DejaVuSans-7a" x="68.408203"/>
       <use xlink:href="#DejaVuSans-6f" x="120.898438"/>
       <use xlink:href="#DejaVuSans-72" x="182.080078"/>
       <use xlink:href="#DejaVuSans-69" x="223.193359"/>
       <use xlink:href="#DejaVuSans-75" x="250.976562"/>
       <use xlink:href="#DejaVuSans-73" x="314.355469"/>
       <use xlink:href="#DejaVuSans-20" x="366.455078"/>
       <use xlink:href="#DejaVuSans-53" x="398.242188"/>
       <use xlink:href="#DejaVuSans-70" x="461.71875"/>
       <use xlink:href="#DejaVuSans-69" x="525.195312"/>
       <use xlink:href="#DejaVuSans-72" x="552.978516"/>
       <use xlink:href="#DejaVuSans-69" x="594.091797"/>
       <use xlink:href="#DejaVuSans-74" x="621.875"/>
       <use xlink:href="#DejaVuSans-73" x="661.083984"/>
      </g>
     </g>
    </g>
    <g id="xtick_6">
     <g id="line2d_6">
      <g>
       <use xlink:href="#md6288d0d44" x="601.5" y="384.48" style="stroke: #000000; stroke-width: 0.8"/>
      </g>
     </g>
     <g id="text_6">
      <!-- Rakdos Sacrifice -->
      <g transform="translate(560.344531 399.078438) scale(0.1 -0.1)">
       <defs>
        <path id="DejaVuSans-66" d="M 2375 4863 
L 2375 4384 
L 1825 4384 
Q 1516 4384 1395 4259 
Q 1275 4134 1275 3809 
L 1275 3500 
L 2222 3500 
L 2222 3053 
L 1275 3053 
L 1275 0 
L 697 0 
L 697 3053 
L 147 3053 
L 147 3500 
L 697 3500 
L 697 3744 
Q 697 4328 969 4595 
Q 1241 4863 1831 4863 
L 2375 4863 
z
" transform="scale(0.015625)"/>
       </defs>
       <use xlink:href="#DejaVuSans-52"/>
       <use xlink:href="#DejaVuSans-61" x="67.232422"/>
       <use xlink:href="#DejaVuSans-6b" x="128.511719"/>
       <use xlink:href="#DejaVuSans-64" x="186.421875"/>
       <use xlink:href="#DejaVuSans-6f" x="249.898438"/>
       <use xlink:href="#DejaVuSans-73" x="311.080078"/>
       <use xlink:href="#DejaVuSans-20" x="363.179688"/>
       <use xlink:href="#DejaVuSans-53" x="394.966797"/>
       <use xlink:href="#DejaVuSans-61" x="458.443359"/>
       <use xlink:href="#DejaVuSans-63" x="519.722656"/>
       <use xlink:href="#DejaVuSans-72" x="574.703125"/>
       <use xlink:href="#DejaVuSans-69" x="615.816406"/>
       <use xlink:href="#DejaVuSans-66" x="643.599609"/>
       <use xlink:href="#DejaVuSans-69" x="678.804688"/>
       <use xlink:href="#DejaVuSans-63" x="706.587891"/>
       <use xlink:href="#DejaVuSans-65" x="761.568359"/>
      </g>
     </g>
    </g>
    <g id="text_7">
     <!-- Archetype -->
     <g transform="translate(343.471875 412.756563) scale(0.1 -0.1)">
      <use xlink:href="#DejaVuSans-41"/>
      <use xlink:href="#DejaVuSans-72" x="68.408203"/>
      <use xlink:href="#DejaVuSans-63" x="107.271484"/>
      <use xlink:href="#DejaVuSans-68" x="162.251953"/>
      <use xlink:href="#DejaVuSans-65" x="225.630859"/>
      <use xlink:href="#DejaVuSans-74" x="287.154297"/>
      <use xlink:href="#DejaVuSans-79" x="326.363281"/>
      <use xlink:href="#DejaVuSans-70" x="385.542969"/>
      <use xlink:href="#DejaVuSans-65" x="449.019531"/>
     </g>
    </g>
   </g>
   <g id="matplotlib.axis_2">
    <g id="ytick_1">
     <g id="line2d_7">
      <defs>
       <path id="m5429db38ec" d="M 0 0 
L -3.5 0 
" style="stroke: #000000; stroke-width: 0.8"/>
      </defs>
      <g>
       <use xlink:href="#m5429db38ec" x="90" y="359.923848" style="stroke: #000000; stroke-width: 0.8"/>
      </g>
     </g>
     <g id="text_8">
      <!-- 2 -->
      <g transform="translate(68.257812 363.723067) scale(0.1 -0.1)">
       <defs>
        <path id="DejaVuSans-2212" d="M 678 2272 
L 4684 2272 
L 4684 1741 
L 678 1741 
L 678 2272 
z
" transform="scale(0.015625)"/>
        <path id="DejaVuSans-32" d="M 1228 531 
L 3431 531 
L 3431 0 
L 469 0 
L 469 531 
Q 828 903 1448 1529 
Q 2069 2156 2228 2338 
Q 2531 2678 2651 2914 
Q 2772 3150 2772 3378 
Q 2772 3750 2511 3984 
Q 2250 4219 1831 4219 
Q 1534 4219 1204 4116 
Q 875 4013 500 3803 
L 500 4441 
Q 881 4594 1212 4672 
Q 1544 4750 1819 4750 
Q 2544 4750 2975 4387 
Q 3406 4025 3406 3419 
Q 3406 3131 3298 2873 
Q 3191 2616 2906 2266 
Q 2828 2175 2409 1742 
Q 1991 1309 1228 531 
z
" transform="scale(0.015625)"/>
       </defs>
       <use xlink:href="#DejaVuSans-2212"/>
       <use xlink:href="#DejaVuSans-32" x="83.789062"/>
      </g>
     </g>
    </g>
    <g id="ytick_2">
     <g id="line2d_8">
      <g>
       <use xlink:href="#m5429db38ec" x="90" y="322.120155" style="stroke: #000000; stroke-width: 0.8"/>
      </g>
     </g>
     <g id="text_9">
      <!-- 0 -->
      <g transform="translate(76.6375 325.919374) scale(0.1 -0.1)">
       <defs>
        <path id="DejaVuSans-30" d="M 2034 4250 
Q 1547 4250 1301 3770 
Q 1056 3291 1056 2328 
Q 1056 1369 1301 889 
Q 1547 409 2034 409 
Q 2525 409 2770 889 
Q 3016 1369 3016 2328 
Q 3016 3291 2770 3770 
Q 2525 4250 2034 4250 
z
M 2034 4750 
Q 2819 4750 3233 4129 
Q 3647 3509 3647 2328 
Q 3647 1150 3233 529 
Q 2819 -91 2034 -91 
Q 1250 -91 836 529 
Q 422 1150 422 2328 
Q 422 3509 836 4129 
Q 1250 4750 2034 4750 
z
" transform="scale(0.015625)"/>
       </defs>
       <use xlink:href="#DejaVuSans-30"/>
      </g>
     </g>
    </g>
    <g id="ytick_3">
     <g id="line2d_9">
      <g>
       <use xlink:href="#m5429db38ec" x="90" y="284.316463" style="stroke: #000000; stroke-width: 0.8"/>
      </g>
     </g>
     <g id="text_10">
      <!-- 2 -->
      <g transform="translate(76.6375 288.115681) scale(0.1 -0.1)">
       <use xlink:href="#DejaVuSans-32"/>
      </g>
     </g>
    </g>
    <g id="ytick_4">
     <g id="line2d_10">
      <g>
       <use xlink:href="#m5429db38ec" x="90" y="246.51277" style="stroke: #000000; stroke-width: 0.8"/>
      </g>
     </g>
     <g id="text_11">
      <!-- 4 -->
      <g transform="translate(76.6375 250.311988) scale(0.1 -0.1)">
       <defs>
        <path id="DejaVuSans-34" d="M 2419 4116 
L 825 1625 
L 2419 1625 
L 2419 4116 
z
M 2253 4666 
L 3047 4666 
L 3047 1625 
L 3713 1625 
L 3713 1100 
L 3047 1100 
L 3047 0 
L 2419 0 
L 2419 1100 
L 313 1100 
L 313 1709 
L 2253 4666 
z
" transform="scale(0.015625)"/>
       </defs>
       <use xlink:href="#DejaVuSans-34"/>
      </g>
     </g>
    </g>
    <g id="ytick_5">
     <g id="line2d_11">
      <g>
       <use xlink:href="#m5429db38ec" x="90" y="208.709077" style="stroke: #000000; stroke-width: 0.8"/>
      </g>
     </g>
     <g id="text_12">
      <!-- 6 -->
      <g transform="translate(76.6375 212.508296) scale(0.1 -0.1)">
       <defs>
        <path id="DejaVuSans-36" d="M 2113 2584 
Q 1688 2584 1439 2293 
Q 1191 2003 1191 1497 
Q 1191 994 1439 701 
Q 1688 409 2113 409 
Q 2538 409 2786 701 
Q 3034 994 3034 1497 
Q 3034 2003 2786 2293 
Q 2538 2584 2113 2584 
z
M 3366 4563 
L 3366 3988 
Q 3128 4100 2886 4159 
Q 2644 4219 2406 4219 
Q 1781 4219 1451 3797 
Q 1122 3375 1075 2522 
Q 1259 2794 1537 2939 
Q 1816 3084 2150 3084 
Q 2853 3084 3261 2657 
Q 3669 2231 3669 1497 
Q 3669 778 3244 343 
Q 2819 -91 2113 -91 
Q 1303 -91 875 529 
Q 447 1150 447 2328 
Q 447 3434 972 4092 
Q 1497 4750 2381 4750 
Q 2619 4750 2861 4703 
Q 3103 4656 3366 4563 
z
" transform="scale(0.015625)"/>
       </defs>
       <use xlink:href="#DejaVuSans-36"/>
      </g>
     </g>
    </g>
    <g id="ytick_6">
     <g id="line2d_12">
      <g>
       <use xlink:href="#m5429db38ec" x="90" y="170.905384" style="stroke: #000000; stroke-width: 0.8"/>
      </g>
     </g>
     <g id="text_13">
      <!-- 8 -->
      <g transform="translate(76.6375 174.704603) scale(0.1 -0.1)">
       <defs>
        <path id="DejaVuSans-38" d="M 2034 2216 
Q 1584 2216 1326 1975 
Q 1069 1734 1069 1313 
Q 1069 891 1326 650 
Q 1584 409 2034 409 
Q 2484 409 2743 651 
Q 3003 894 3003 1313 
Q 3003 1734 2745 1975 
Q 2488 2216 2034 2216 
z
M 1403 2484 
Q 997 2584 770 2862 
Q 544 3141 544 3541 
Q 544 4100 942 4425 
Q 1341 4750 2034 4750 
Q 2731 4750 3128 4425 
Q 3525 4100 3525 3541 
Q 3525 3141 3298 2862 
Q 3072 2584 2669 2484 
Q 3125 2378 3379 2068 
Q 3634 1759 3634 1313 
Q 3634 634 3220 271 
Q 2806 -91 2034 -91 
Q 1263 -91 848 271 
Q 434 634 434 1313 
Q 434 1759 690 2068 
Q 947 2378 1403 2484 
z
M 1172 3481 
Q 1172 3119 1398 2916 
Q 1625 2713 2034 2713 
Q 2441 2713 2670 2916 
Q 2900 3119 2900 3481 
Q 2900 3844 2670 4047 
Q 2441 4250 2034 4250 
Q 1625 4250 1398 4047 
Q 1172 3844 1172 3481 
z
" transform="scale(0.015625)"/>
       </defs>
       <use xlink:href="#DejaVuSans-38"/>
      </g>
     </g>
    </g>
    <g id="ytick_7">
     <g id="line2d_13">
      <g>
       <use xlink:href="#m5429db38ec" x="90" y="133.101691" style="stroke: #000000; stroke-width: 0.8"/>
      </g>
     </g>
     <g id="text_14">
      <!-- 10 -->
      <g transform="translate(70.275 136.90091) scale(0.1 -0.1)">
       <defs>
        <path id="DejaVuSans-31" d="M 794 531 
L 1825 531 
L 1825 4091 
L 703 3866 
L 703 4441 
L 1819 4666 
L 2450 4666 
L 2450 531 
L 3481 531 
L 3481 0 
L 794 0 
L 794 531 
z
" transform="scale(0.015625)"/>
       </defs>
       <use xlink:href="#DejaVuSans-31"/>
       <use xlink:href="#DejaVuSans-30" x="63.623047"/>
      </g>
     </g>
    </g>
    <g id="ytick_8">
     <g id="line2d_14">
      <g>
       <use xlink:href="#m5429db38ec" x="90" y="95.297998" style="stroke: #000000; stroke-width: 0.8"/>
      </g>
     </g>
     <g id="text_15">
      <!-- 12 -->
      <g transform="translate(70.275 99.097217) scale(0.1 -0.1)">
       <use xlink:href="#DejaVuSans-31"/>
       <use xlink:href="#DejaVuSans-32" x="63.623047"/>
      </g>
     </g>
    </g>
    <g id="ytick_9">
     <g id="line2d_15">
      <g>
       <use xlink:href="#m5429db38ec" x="90" y="57.494305" style="stroke: #000000; stroke-width: 0.8"/>
      </g>
     </g>
     <g id="text_16">
      <!-- 14 -->
      <g transform="translate(70.275 61.293524) scale(0.1 -0.1)">
       <use xlink:href="#DejaVuSans-31"/>
       <use xlink:href="#DejaVuSans-34" x="63.623047"/>
      </g>
     </g>
    </g>
    <g id="text_17">
     <!-- Mana Value -->
     <g transform="translate(62.178125 247.09125) rotate(-90) scale(0.1 -0.1)">
      <defs>
       <path id="DejaVuSans-4d" d="M 628 4666 
L 1569 4666 
L 2759 1491 
L 3956 4666 
L 4897 4666 
L 4897 0 
L 4281 0 
L 4281 4097 
L 3078 897 
L 2444 897 
L 1241 4097 
L 1241 0 
L 628 0 
L 628 4666 
z
" transform="scale(0.015625)"/>
       <path id="DejaVuSans-56" d="M 1831 0 
L 50 4666 
L 709 4666 
L 2188 738 
L 3669 4666 
L 4325 4666 
L 2547 0 
L 1831 0 
z
" transform="scale(0.015625)"/>
       <path id="DejaVuSans-6c" d="M 603 4863 
L 1178 4863 
L 1178 0 
L 603 0 
L 603 4863 
z
" transform="scale(0.015625)"/>
      </defs>
      <use xlink:href="#DejaVuSans-4d"/>
      <use xlink:href="#DejaVuSans-61" x="86.279297"/>
      <use xlink:href="#DejaVuSans-6e" x="147.558594"/>
      <use xlink:href="#DejaVuSans-61" x="210.9375"/>
      <use xlink:href="#DejaVuSans-20" x="272.216797"/>
      <use xlink:href="#DejaVuSans-56" x="304.003906"/>
      <use xlink:href="#DejaVuSans-61" x="364.662109"/>
      <use xlink:href="#DejaVuSans-6c" x="425.941406"/>
      <use xlink:href="#DejaVuSans-75" x="453.724609"/>
      <use xlink:href="#DejaVuSans-65" x="517.103516"/>
     </g>
    </g>
   </g>
   <g id="line2d_16">
    <path d="M 136.5 322.120155 
L 136.5 189.80723 
" clip-path="url(#pc823f3fc4c)" style="fill: none; stroke: #4a4a4a; stroke-width: 1.5; stroke-linecap: square"/>
   </g>
   <g id="line2d_17">
    <path d="M 136.5 322.120155 
L 136.5 227.610923 
" clip-path="url(#pc823f3fc4c)" style="fill: none; stroke: #4a4a4a; stroke-width: 4.5; stroke-linecap: square"/>
   </g>
   <g id="line2d_18">
    <path d="M 229.5 322.120155 
L 229.5 189.80723 
" clip-path="url(#pc823f3fc4c)" style="fill: none; stroke: #4a4a4a; stroke-width: 1.5; stroke-linecap: square"/>
   </g>
   <g id="line2d_19">
    <path d="M 229.5 322.120155 
L 229.5 265.414616 
" clip-path="url(#pc823f3fc4c)" style="fill: none; stroke: #4a4a4a; stroke-width: 4.5; stroke-linecap: square"/>
   </g>
   <g id="line2d_20">
    <path d="M 322.5 322.120155 
L 322.5 246.51277 
" clip-path="url(#pc823f3fc4c)" style="fill: none; stroke: #4a4a4a; stroke-width: 1.5; stroke-linecap: square"/>
   </g>
   <g id="line2d_21">
    <path d="M 322.5 303.218309 
L 322.5 265.414616 
" clip-path="url(#pc823f3fc4c)" style="fill: none; stroke: #4a4a4a; stroke-width: 4.5; stroke-linecap: square"/>
   </g>
   <g id="line2d_22">
    <path d="M 415.5 322.120155 
L 415.5 265.414616 
" clip-path="url(#pc823f3fc4c)" style="fill: none; stroke: #4a4a4a; stroke-width: 1.5; stroke-linecap: square"/>
   </g>
   <g id="line2d_23">
    <path d="M 415.5 303.218309 
L 415.5 284.316463 
" clip-path="url(#pc823f3fc4c)" style="fill: none; stroke: #4a4a4a; stroke-width: 4.5; stroke-linecap: square"/>
   </g>
   <g id="line2d_24">
    <path d="M 508.5 322.120155 
L 508.5 265.414616 
" clip-path="url(#pc823f3fc4c)" style="fill: none; stroke: #4a4a4a; stroke-width: 1.5; stroke-linecap: square"/>
   </g>
   <g id="line2d_25">
    <path d="M 508.5 322.120155 
L 508.5 265.414616 
" clip-path="url(#pc823f3fc4c)" style="fill: none; stroke: #4a4a4a; stroke-width: 4.5; stroke-linecap: square"/>
   </g>
   <g id="line2d_26">
    <path d="M 601.5 322.120155 
L 601.5 227.610923 
" clip-path="url(#pc823f3fc4c)" style="fill: none; stroke: #4a4a4a; stroke-width: 1.5; stroke-linecap: square"/>
   </g>
   <g id="line2d_27">
    <path d="M 601.5 322.120155 
L 601.5 284.316463 
" clip-path="url(#pc823f3fc4c)" style="fill: none; stroke: #4a4a4a; stroke-width: 4.5; stroke-linecap: square"/>
   </g>
   <g id="patch_3">
    <path d="M 90 384.48 
L 90 51.84 
" style="fill: none; stroke: #000000; stroke-width: 0.8; stroke-linejoin: miter; stroke-linecap: square"/>
   </g>
   <g id="patch_4">
    <path d="M 648 384.48 
L 648 51.84 
" style="fill: none; stroke: #000000; stroke-width: 0.8; stroke-linejoin: miter; stroke-linecap: square"/>
   </g>
   <g id="patch_5">
    <path d="M 90 384.48 
L 648 384.48 
" style="fill: none; stroke: #000000; stroke-width: 0.8; stroke-linejoin: miter; stroke-linecap: square"/>
   </g>
   <g id="patch_6">
    <path d="M 90 51.84 
L 648 51.84 
" style="fill: none; stroke: #000000; stroke-width: 0.8; stroke-linejoin: miter; stroke-linecap: square"/>
   </g>
   <g id="PathCollection_1">
    <defs>
     <path id="m0518011697" d="M 0 1.5 
C 0.397805 1.5 0.77937 1.341951 1.06066 1.06066 
C 1.341951 0.77937 1.5 0.397805 1.5 0 
C 1.5 -0.397805 1.341951 -0.77937 1.06066 -1.06066 
C 0.77937 -1.341951 0.397805 -1.5 0 -1.5 
C -0.397805 -1.5 -0.77937 -1.341951 -1.06066 -1.06066 
C -1.341951 -0.77937 -1.5 -0.397805 -1.5 0 
C -1.5 0.397805 -1.341951 0.77937 -1.06066 1.06066 
C -0.77937 1.341951 -0.397805 1.5 0 1.5 
z
" style="stroke: #4a4a4a"/>
    </defs>
    <g clip-path="url(#pc823f3fc4c)">
     <use xlink:href="#m0518011697" x="136.5" y="265.414616" style="fill: #ffffff; stroke: #4a4a4a"/>
    </g>
   </g>
   <g id="PathCollection_2">
    <g clip-path="url(#pc823f3fc4c)">
     <use xlink:href="#m0518011697" x="229.5" y="284.316463" style="fill: #ffffff; stroke: #4a4a4a"/>
    </g>
   </g>
   <g id="PathCollection_3">
    <g clip-path="url(#pc823f3fc4c)">
     <use xlink:href="#m0518011697" x="322.5" y="284.316463" style="fill: #ffffff; stroke: #4a4a4a"/>
    </g>
   </g>
   <g id="PathCollection_4">
    <g clip-path="url(#pc823f3fc4c)">
     <use xlink:href="#m0518011697" x="415.5" y="293.767386" style="fill: #ffffff; stroke: #4a4a4a"/>
    </g>
   </g>
   <g id="PathCollection_5">
    <g clip-path="url(#pc823f3fc4c)">
     <use xlink:href="#m0518011697" x="508.5" y="303.218309" style="fill: #ffffff; stroke: #4a4a4a"/>
    </g>
   </g>
   <g id="PathCollection_6">
    <g clip-path="url(#pc823f3fc4c)">
     <use xlink:href="#m0518011697" x="601.5" y="303.218309" style="fill: #ffffff; stroke: #4a4a4a"/>
    </g>
   </g>
   <g id="text_18">
    <!-- Violin Plot of Mana Value by Archetype (Selection) -->
    <g transform="translate(218.978438 45.84) scale(0.12 -0.12)">
     <defs>
      <path id="DejaVuSans-62" d="M 3116 1747 
Q 3116 2381 2855 2742 
Q 2594 3103 2138 3103 
Q 1681 3103 1420 2742 
Q 1159 2381 1159 1747 
Q 1159 1113 1420 752 
Q 1681 391 2138 391 
Q 2594 391 2855 752 
Q 3116 1113 3116 1747 
z
M 1159 2969 
Q 1341 3281 1617 3432 
Q 1894 3584 2278 3584 
Q 2916 3584 3314 3078 
Q 3713 2572 3713 1747 
Q 3713 922 3314 415 
Q 2916 -91 2278 -91 
Q 1894 -91 1617 61 
Q 1341 213 1159 525 
L 1159 0 
L 581 0 
L 581 4863 
L 1159 4863 
L 1159 2969 
z
" transform="scale(0.015625)"/>
      <path id="DejaVuSans-28" d="M 1984 4856 
Q 1566 4138 1362 3434 
Q 1159 2731 1159 2009 
Q 1159 1288 1364 580 
Q 1569 -128 1984 -844 
L 1484 -844 
Q 1016 -109 783 600 
Q 550 1309 550 2009 
Q 550 2706 781 3412 
Q 1013 4119 1484 4856 
L 1984 4856 
z
" transform="scale(0.015625)"/>
      <path id="DejaVuSans-29" d="M 513 4856 
L 1013 4856 
Q 1481 4119 1714 3412 
Q 1947 2706 1947 2009 
Q 1947 1309 1714 600 
Q 1481 -109 1013 -844 
L 513 -844 
Q 928 -128 1133 580 
Q 1338 1288 1338 2009 
Q 1338 2731 1133 3434 
Q 928 4138 513 4856 
z
" transform="scale(0.015625)"/>
     </defs>
     <use xlink:href="#DejaVuSans-56"/>
     <use xlink:href="#DejaVuSans-69" x="66.158203"/>
     <use xlink:href="#DejaVuSans-6f" x="93.941406"/>
     <use xlink:href="#DejaVuSans-6c" x="155.123047"/>
     <use xlink:href="#DejaVuSans-69" x="182.90625"/>
     <use xlink:href="#DejaVuSans-6e" x="210.689453"/>
     <use xlink:href="#DejaVuSans-20" x="274.068359"/>
     <use xlink:href="#DejaVuSans-50" x="305.855469"/>
     <use xlink:href="#DejaVuSans-6c" x="366.158203"/>
     <use xlink:href="#DejaVuSans-6f" x="393.941406"/>
     <use xlink:href="#DejaVuSans-74" x="455.123047"/>
     <use xlink:href="#DejaVuSans-20" x="494.332031"/>
     <use xlink:href="#DejaVuSans-6f" x="526.119141"/>
     <use xlink:href="#DejaVuSans-66" x="587.300781"/>
     <use xlink:href="#DejaVuSans-20" x="622.505859"/>
     <use xlink:href="#DejaVuSans-4d" x="654.292969"/>
     <use xlink:href="#DejaVuSans-61" x="740.572266"/>
     <use xlink:href="#DejaVuSans-6e" x="801.851562"/>
     <use xlink:href="#DejaVuSans-61" x="865.230469"/>
     <use xlink:href="#DejaVuSans-20" x="926.509766"/>
     <use xlink:href="#DejaVuSans-56" x="958.296875"/>
     <use xlink:href="#DejaVuSans-61" x="1018.955078"/>
     <use xlink:href="#DejaVuSans-6c" x="1080.234375"/>
     <use xlink:href="#DejaVuSans-75" x="1108.017578"/>
     <use xlink:href="#DejaVuSans-65" x="1171.396484"/>
     <use xlink:href="#DejaVuSans-20" x="1232.919922"/>
     <use xlink:href="#DejaVuSans-62" x="1264.707031"/>
     <use xlink:href="#DejaVuSans-79" x="1328.183594"/>
     <use xlink:href="#DejaVuSans-20" x="1387.363281"/>
     <use xlink:href="#DejaVuSans-41" x="1419.150391"/>
     <use xlink:href="#DejaVuSans-72" x="1487.558594"/>
     <use xlink:href="#DejaVuSans-63" x="1526.421875"/>
     <use xlink:href="#DejaVuSans-68" x="1581.402344"/>
     <use xlink:href="#DejaVuSans-65" x="1644.78125"/>
     <use xlink:href="#DejaVuSans-74" x="1706.304688"/>
     <use xlink:href="#DejaVuSans-79" x="1745.513672"/>
     <use xlink:href="#DejaVuSans-70" x="1804.693359"/>
     <use xlink:href="#DejaVuSans-65" x="1868.169922"/>
     <use xlink:href="#DejaVuSans-20" x="1929.693359"/>
     <use xlink:href="#DejaVuSans-28" x="1961.480469"/>
     <use xlink:href="#DejaVuSans-53" x="2000.494141"/>
     <use xlink:href="#DejaVuSans-65" x="2063.970703"/>
     <use xlink:href="#DejaVuSans-6c" x="2125.494141"/>
     <use xlink:href="#DejaVuSans-65" x="2153.277344"/>
     <use xlink:href="#DejaVuSans-63" x="2214.800781"/>
     <use xlink:href="#DejaVuSans-74" x="2269.78125"/>
     <use xlink:href="#DejaVuSans-69" x="2308.990234"/>
     <use xlink:href="#DejaVuSans-6f" x="2336.773438"/>
     <use xlink:href="#DejaVuSans-6e" x="2397.955078"/>
     <use xlink:href="#DejaVuSans-29" x="2461.333984"/>
    </g>
   </g>
  </g>
 </g>
 <defs>
  <clipPath id="pc823f3fc4c">
   <rect x="90" y="51.84" width="558" height="332.64"/>
  </clipPath>
 </defs>
</svg>
