<?xml version="1.0" encoding="utf-8" standalone="no"?>
<!DOCTYPE svg PUBLIC "-//W3C//DTD SVG 1.1//EN"
  "http://www.w3.org/Graphics/SVG/1.1/DTD/svg11.dtd">
<svg xmlns:xlink="http://www.w3.org/1999/xlink" width="720pt" height="432pt" viewBox="0 0 720 432" xmlns="http://www.w3.org/2000/svg" version="1.1">
 <metadata>
  <rdf:RDF xmlns:dc="http://purl.org/dc/elements/1.1/" xmlns:cc="http://creativecommons.org/ns#" xmlns:rdf="http://www.w3.org/1999/02/22-rdf-syntax-ns#">
   <cc:Work>
    <dc:type rdf:resource="http://purl.org/dc/dcmitype/StillImage"/>
    <dc:date>2024-06-09T17:27:30.362966</dc:date>
    <dc:format>image/svg+xml</dc:format>
    <dc:creator>
     <cc:Agent>
      <dc:title>Matplotlib v3.8.0, https://matplotlib.org/</dc:title>
     </cc:Agent>
    </dc:creator>
   </cc:Work>
  </rdf:RDF>
 </metadata>
 <defs>
  <style type="text/css">*{stroke-linejoin: round; stroke-linecap: butt}</style>
 </defs>
 <g id="figure_1">
  <g id="patch_1">
   <path d="M 0 432 
L 720 432 
L 720 0 
L 0 0 
z
" style="fill: #ffffff"/>
  </g>
  <g id="axes_1">
   <g id="patch_2">
    <path d="M 90 384.48 
L 648 384.48 
L 648 51.84 
L 90 51.84 
z
" style="fill: #ffffff"/>
   </g>
   <g id="patch_3">
    <path d="M 90 369.36 
L 621.428571 369.36 
L 621.428571 359.195294 
L 90 359.195294 
z
" clip-path="url(#p3882dc51c6)" style="fill: #87ceeb"/>
   </g>
   <g id="patch_4">
    <path d="M 90 356.654118 
L 324 356.654118 
L 324 346.489412 
L 90 346.489412 
z
" clip-path="url(#p3882dc51c6)" style="fill: #87ceeb"/>
   </g>
   <g id="patch_5">
    <path d="M 90 343.948235 
L 323.142857 343.948235 
L 323.142857 333.783529 
L 90 333.783529 
z
" clip-path="url(#p3882dc51c6)" style="fill: #87ceeb"/>
   </g>
   <g id="patch_6">
    <path d="M 90 331.242353 
L 319.714286 331.242353 
L 319.714286 321.077647 
L 90 321.077647 
z
" clip-path="url(#p3882dc51c6)" style="fill: #87ceeb"/>
   </g>
   <g id="patch_7">
    <path d="M 90 318.536471 
L 318 318.536471 
L 318 308.371765 
L 90 308.371765 
z
" clip-path="url(#p3882dc51c6)" style="fill: #87ceeb"/>
   </g>
   <g id="patch_8">
    <path d="M 90 305.830588 
L 243.428571 305.830588 
L 243.428571 295.665882 
L 90 295.665882 
z
" clip-path="url(#p3882dc51c6)" style="fill: #87ceeb"/>
   </g>
   <g id="patch_9">
    <path d="M 90 293.124706 
L 236.571429 293.124706 
L 236.571429 282.96 
L 90 282.96 
z
" clip-path="url(#p3882dc51c6)" style="fill: #87ceeb"/>
   </g>
   <g id="patch_10">
    <path d="M 90 280.418824 
L 155.142857 280.418824 
L 155.142857 270.254118 
L 90 270.254118 
z
" clip-path="url(#p3882dc51c6)" style="fill: #87ceeb"/>
   </g>
   <g id="patch_11">
    <path d="M 90 267.712941 
L 142.285714 267.712941 
L 142.285714 257.548235 
L 90 257.548235 
z
" clip-path="url(#p3882dc51c6)" style="fill: #87ceeb"/>
   </g>
   <g id="patch_12">
    <path d="M 90 255.007059 
L 114.857143 255.007059 
L 114.857143 244.842353 
L 90 244.842353 
z
" clip-path="url(#p3882dc51c6)" style="fill: #87ceeb"/>
   </g>
   <g id="patch_13">
    <path d="M 90 242.301176 
L 110.571429 242.301176 
L 110.571429 232.136471 
L 90 232.136471 
z
" clip-path="url(#p3882dc51c6)" style="fill: #87ceeb"/>
   </g>
   <g id="patch_14">
    <path d="M 90 229.595294 
L 102 229.595294 
L 102 219.430588 
L 90 219.430588 
z
" clip-path="url(#p3882dc51c6)" style="fill: #87ceeb"/>
   </g>
   <g id="patch_15">
    <path d="M 90 216.889412 
L 98.571429 216.889412 
L 98.571429 206.724706 
L 90 206.724706 
z
" clip-path="url(#p3882dc51c6)" style="fill: #87ceeb"/>
   </g>
   <g id="patch_16">
    <path d="M 90 204.183529 
L 96.857143 204.183529 
L 96.857143 194.018824 
L 90 194.018824 
z
" clip-path="url(#p3882dc51c6)" style="fill: #87ceeb"/>
   </g>
   <g id="patch_17">
    <path d="M 90 191.477647 
L 96 191.477647 
L 96 181.312941 
L 90 181.312941 
z
" clip-path="url(#p3882dc51c6)" style="fill: #87ceeb"/>
   </g>
   <g id="patch_18">
    <path d="M 90 178.771765 
L 94.285714 178.771765 
L 94.285714 168.607059 
L 90 168.607059 
z
" clip-path="url(#p3882dc51c6)" style="fill: #87ceeb"/>
   </g>
   <g id="patch_19">
    <path d="M 90 166.065882 
L 94.285714 166.065882 
L 94.285714 155.901176 
L 90 155.901176 
z
" clip-path="url(#p3882dc51c6)" style="fill: #87ceeb"/>
   </g>
   <g id="patch_20">
    <path d="M 90 153.36 
L 93.428571 153.36 
L 93.428571 143.195294 
L 90 143.195294 
z
" clip-path="url(#p3882dc51c6)" style="fill: #87ceeb"/>
   </g>
   <g id="patch_21">
    <path d="M 90 140.654118 
L 93.428571 140.654118 
L 93.428571 130.489412 
L 90 130.489412 
z
" clip-path="url(#p3882dc51c6)" style="fill: #87ceeb"/>
   </g>
   <g id="patch_22">
    <path d="M 90 127.948235 
L 93.428571 127.948235 
L 93.428571 117.783529 
L 90 117.783529 
z
" clip-path="url(#p3882dc51c6)" style="fill: #87ceeb"/>
   </g>
   <g id="patch_23">
    <path d="M 90 115.242353 
L 92.571429 115.242353 
L 92.571429 105.077647 
L 90 105.077647 
z
" clip-path="url(#p3882dc51c6)" style="fill: #87ceeb"/>
   </g>
   <g id="patch_24">
    <path d="M 90 102.536471 
L 90.857143 102.536471 
L 90.857143 92.371765 
L 90 92.371765 
z
" clip-path="url(#p3882dc51c6)" style="fill: #87ceeb"/>
   </g>
   <g id="patch_25">
    <path d="M 90 89.830588 
L 90.857143 89.830588 
L 90.857143 79.665882 
L 90 79.665882 
z
" clip-path="url(#p3882dc51c6)" style="fill: #87ceeb"/>
   </g>
   <g id="patch_26">
    <path d="M 90 77.124706 
L 90.857143 77.124706 
L 90.857143 66.96 
L 90 66.96 
z
" clip-path="url(#p3882dc51c6)" style="fill: #87ceeb"/>
   </g>
   <g id="matplotlib.axis_1">
    <g id="xtick_1">
     <g id="line2d_1">
      <defs>
       <path id="mb44bfe5787" d="M 0 0 
L 0 3.5 
" style="stroke: #000000; stroke-width: 0.8"/>
      </defs>
      <g>
       <use xlink:href="#mb44bfe5787" x="90" y="384.48" style="stroke: #000000; stroke-width: 0.8"/>
      </g>
     </g>
     <g id="text_1">
      <!-- 0 -->
      <g transform="translate(86.81875 399.078438) scale(0.1 -0.1)">
       <defs>
        <path id="DejaVuSans-30" d="M 2034 4250 
Q 1547 4250 1301 3770 
Q 1056 3291 1056 2328 
Q 1056 1369 1301 889 
Q 1547 409 2034 409 
Q 2525 409 2770 889 
Q 3016 1369 3016 2328 
Q 3016 3291 2770 3770 
Q 2525 4250 2034 4250 
z
M 2034 4750 
Q 2819 4750 3233 4129 
Q 3647 3509 3647 2328 
Q 3647 1150 3233 529 
Q 2819 -91 2034 -91 
Q 1250 -91 836 529 
Q 422 1150 422 2328 
Q 422 3509 836 4129 
Q 1250 4750 2034 4750 
z
" transform="scale(0.015625)"/>
       </defs>
       <use xlink:href="#DejaVuSans-30"/>
      </g>
     </g>
    </g>
    <g id="xtick_2">
     <g id="line2d_2">
      <g>
       <use xlink:href="#mb44bfe5787" x="175.714286" y="384.48" style="stroke: #000000; stroke-width: 0.8"/>
      </g>
     </g>
     <g id="text_2">
      <!-- 100 -->
      <g transform="translate(166.170536 399.078438) scale(0.1 -0.1)">
       <defs>
        <path id="DejaVuSans-31" d="M 794 531 
L 1825 531 
L 1825 4091 
L 703 3866 
L 703 4441 
L 1819 4666 
L 2450 4666 
L 2450 531 
L 3481 531 
L 3481 0 
L 794 0 
L 794 531 
z
" transform="scale(0.015625)"/>
       </defs>
       <use xlink:href="#DejaVuSans-31"/>
       <use xlink:href="#DejaVuSans-30" x="63.623047"/>
       <use xlink:href="#DejaVuSans-30" x="127.246094"/>
      </g>
     </g>
    </g>
    <g id="xtick_3">
     <g id="line2d_3">
      <g>
       <use xlink:href="#mb44bfe5787" x="261.428571" y="384.48" style="stroke: #000000; stroke-width: 0.8"/>
      </g>
     </g>
     <g id="text_3">
      <!-- 200 -->
      <g transform="translate(251.884821 399.078438) scale(0.1 -0.1)">
       <defs>
        <path id="DejaVuSans-32" d="M 1228 531 
L 3431 531 
L 3431 0 
L 469 0 
L 469 531 
Q 828 903 1448 1529 
Q 2069 2156 2228 2338 
Q 2531 2678 2651 2914 
Q 2772 3150 2772 3378 
Q 2772 3750 2511 3984 
Q 2250 4219 1831 4219 
Q 1534 4219 1204 4116 
Q 875 4013 500 3803 
L 500 4441 
Q 881 4594 1212 4672 
Q 1544 4750 1819 4750 
Q 2544 4750 2975 4387 
Q 3406 4025 3406 3419 
Q 3406 3131 3298 2873 
Q 3191 2616 2906 2266 
Q 2828 2175 2409 1742 
Q 1991 1309 1228 531 
z
" transform="scale(0.015625)"/>
       </defs>
       <use xlink:href="#DejaVuSans-32"/>
       <use xlink:href="#DejaVuSans-30" x="63.623047"/>
       <use xlink:href="#DejaVuSans-30" x="127.246094"/>
      </g>
     </g>
    </g>
    <g id="xtick_4">
     <g id="line2d_4">
      <g>
       <use xlink:href="#mb44bfe5787" x="347.142857" y="384.48" style="stroke: #000000; stroke-width: 0.8"/>
      </g>
     </g>
     <g id="text_4">
      <!-- 300 -->
      <g transform="translate(337.599107 399.078438) scale(0.1 -0.1)">
       <defs>
        <path id="DejaVuSans-33" d="M 2597 2516 
Q 3050 2419 3304 2112 
Q 3559 1806 3559 1356 
Q 3559 666 3084 287 
Q 2609 -91 1734 -91 
Q 1441 -91 1130 -33 
Q 819 25 488 141 
L 488 750 
Q 750 597 1062 519 
Q 1375 441 1716 441 
Q 2309 441 2620 675 
Q 2931 909 2931 1356 
Q 2931 1769 2642 2001 
Q 2353 2234 1838 2234 
L 1294 2234 
L 1294 2753 
L 1863 2753 
Q 2328 2753 2575 2939 
Q 2822 3125 2822 3475 
Q 2822 3834 2567 4026 
Q 2313 4219 1838 4219 
Q 1578 4219 1281 4162 
Q 984 4106 628 3988 
L 628 4550 
Q 988 4650 1302 4700 
Q 1616 4750 1894 4750 
Q 2613 4750 3031 4423 
Q 3450 4097 3450 3541 
Q 3450 3153 3228 2886 
Q 3006 2619 2597 2516 
z
" transform="scale(0.015625)"/>
       </defs>
       <use xlink:href="#DejaVuSans-33"/>
       <use xlink:href="#DejaVuSans-30" x="63.623047"/>
       <use xlink:href="#DejaVuSans-30" x="127.246094"/>
      </g>
     </g>
    </g>
    <g id="xtick_5">
     <g id="line2d_5">
      <g>
       <use xlink:href="#mb44bfe5787" x="432.857143" y="384.48" style="stroke: #000000; stroke-width: 0.8"/>
      </g>
     </g>
     <g id="text_5">
      <!-- 400 -->
      <g transform="translate(423.313393 399.078438) scale(0.1 -0.1)">
       <defs>
        <path id="DejaVuSans-34" d="M 2419 4116 
L 825 1625 
L 2419 1625 
L 2419 4116 
z
M 2253 4666 
L 3047 4666 
L 3047 1625 
L 3713 1625 
L 3713 1100 
L 3047 1100 
L 3047 0 
L 2419 0 
L 2419 1100 
L 313 1100 
L 313 1709 
L 2253 4666 
z
" transform="scale(0.015625)"/>
       </defs>
       <use xlink:href="#DejaVuSans-34"/>
       <use xlink:href="#DejaVuSans-30" x="63.623047"/>
       <use xlink:href="#DejaVuSans-30" x="127.246094"/>
      </g>
     </g>
    </g>
    <g id="xtick_6">
     <g id="line2d_6">
      <g>
       <use xlink:href="#mb44bfe5787" x="518.571429" y="384.48" style="stroke: #000000; stroke-width: 0.8"/>
      </g>
     </g>
     <g id="text_6">
      <!-- 500 -->
      <g transform="translate(509.027679 399.078438) scale(0.1 -0.1)">
       <defs>
        <path id="DejaVuSans-35" d="M 691 4666 
L 3169 4666 
L 3169 4134 
L 1269 4134 
L 1269 2991 
Q 1406 3038 1543 3061 
Q 1681 3084 1819 3084 
Q 2600 3084 3056 2656 
Q 3513 2228 3513 1497 
Q 3513 744 3044 326 
Q 2575 -91 1722 -91 
Q 1428 -91 1123 -41 
Q 819 9 494 109 
L 494 744 
Q 775 591 1075 516 
Q 1375 441 1709 441 
Q 2250 441 2565 725 
Q 2881 1009 2881 1497 
Q 2881 1984 2565 2268 
Q 2250 2553 1709 2553 
Q 1456 2553 1204 2497 
Q 953 2441 691 2322 
L 691 4666 
z
" transform="scale(0.015625)"/>
       </defs>
       <use xlink:href="#DejaVuSans-35"/>
       <use xlink:href="#DejaVuSans-30" x="63.623047"/>
       <use xlink:href="#DejaVuSans-30" x="127.246094"/>
      </g>
     </g>
    </g>
    <g id="xtick_7">
     <g id="line2d_7">
      <g>
       <use xlink:href="#mb44bfe5787" x="604.285714" y="384.48" style="stroke: #000000; stroke-width: 0.8"/>
      </g>
     </g>
     <g id="text_7">
      <!-- 600 -->
      <g transform="translate(594.741964 399.078438) scale(0.1 -0.1)">
       <defs>
        <path id="DejaVuSans-36" d="M 2113 2584 
Q 1688 2584 1439 2293 
Q 1191 2003 1191 1497 
Q 1191 994 1439 701 
Q 1688 409 2113 409 
Q 2538 409 2786 701 
Q 3034 994 3034 1497 
Q 3034 2003 2786 2293 
Q 2538 2584 2113 2584 
z
M 3366 4563 
L 3366 3988 
Q 3128 4100 2886 4159 
Q 2644 4219 2406 4219 
Q 1781 4219 1451 3797 
Q 1122 3375 1075 2522 
Q 1259 2794 1537 2939 
Q 1816 3084 2150 3084 
Q 2853 3084 3261 2657 
Q 3669 2231 3669 1497 
Q 3669 778 3244 343 
Q 2819 -91 2113 -91 
Q 1303 -91 875 529 
Q 447 1150 447 2328 
Q 447 3434 972 4092 
Q 1497 4750 2381 4750 
Q 2619 4750 2861 4703 
Q 3103 4656 3366 4563 
z
" transform="scale(0.015625)"/>
       </defs>
       <use xlink:href="#DejaVuSans-36"/>
       <use xlink:href="#DejaVuSans-30" x="63.623047"/>
       <use xlink:href="#DejaVuSans-30" x="127.246094"/>
      </g>
     </g>
    </g>
    <g id="text_8">
     <!-- Count -->
     <g transform="translate(354.151563 412.756563) scale(0.1 -0.1)">
      <defs>
       <path id="DejaVuSans-43" d="M 4122 4306 
L 4122 3641 
Q 3803 3938 3442 4084 
Q 3081 4231 2675 4231 
Q 1875 4231 1450 3742 
Q 1025 3253 1025 2328 
Q 1025 1406 1450 917 
Q 1875 428 2675 428 
Q 3081 428 3442 575 
Q 3803 722 4122 1019 
L 4122 359 
Q 3791 134 3420 21 
Q 3050 -91 2638 -91 
Q 1578 -91 968 557 
Q 359 1206 359 2328 
Q 359 3453 968 4101 
Q 1578 4750 2638 4750 
Q 3056 4750 3426 4639 
Q 3797 4528 4122 4306 
z
" transform="scale(0.015625)"/>
       <path id="DejaVuSans-6f" d="M 1959 3097 
Q 1497 3097 1228 2736 
Q 959 2375 959 1747 
Q 959 1119 1226 758 
Q 1494 397 1959 397 
Q 2419 397 2687 759 
Q 2956 1122 2956 1747 
Q 2956 2369 2687 2733 
Q 2419 3097 1959 3097 
z
M 1959 3584 
Q 2709 3584 3137 3096 
Q 3566 2609 3566 1747 
Q 3566 888 3137 398 
Q 2709 -91 1959 -91 
Q 1206 -91 779 398 
Q 353 888 353 1747 
Q 353 2609 779 3096 
Q 1206 3584 1959 3584 
z
" transform="scale(0.015625)"/>
       <path id="DejaVuSans-75" d="M 544 1381 
L 544 3500 
L 1119 3500 
L 1119 1403 
Q 1119 906 1312 657 
Q 1506 409 1894 409 
Q 2359 409 2629 706 
Q 2900 1003 2900 1516 
L 2900 3500 
L 3475 3500 
L 3475 0 
L 2900 0 
L 2900 538 
Q 2691 219 2414 64 
Q 2138 -91 1772 -91 
Q 1169 -91 856 284 
Q 544 659 544 1381 
z
M 1991 3584 
L 1991 3584 
z
" transform="scale(0.015625)"/>
       <path id="DejaVuSans-6e" d="M 3513 2113 
L 3513 0 
L 2938 0 
L 2938 2094 
Q 2938 2591 2744 2837 
Q 2550 3084 2163 3084 
Q 1697 3084 1428 2787 
Q 1159 2491 1159 1978 
L 1159 0 
L 581 0 
L 581 3500 
L 1159 3500 
L 1159 2956 
Q 1366 3272 1645 3428 
Q 1925 3584 2291 3584 
Q 2894 3584 3203 3211 
Q 3513 2838 3513 2113 
z
" transform="scale(0.015625)"/>
       <path id="DejaVuSans-74" d="M 1172 4494 
L 1172 3500 
L 2356 3500 
L 2356 3053 
L 1172 3053 
L 1172 1153 
Q 1172 725 1289 603 
Q 1406 481 1766 481 
L 2356 481 
L 2356 0 
L 1766 0 
Q 1100 0 847 248 
Q 594 497 594 1153 
L 594 3053 
L 172 3053 
L 172 3500 
L 594 3500 
L 594 4494 
L 1172 4494 
z
" transform="scale(0.015625)"/>
      </defs>
      <use xlink:href="#DejaVuSans-43"/>
      <use xlink:href="#DejaVuSans-6f" x="69.824219"/>
      <use xlink:href="#DejaVuSans-75" x="131.005859"/>
      <use xlink:href="#DejaVuSans-6e" x="194.384766"/>
      <use xlink:href="#DejaVuSans-74" x="257.763672"/>
     </g>
    </g>
   </g>
   <g id="matplotlib.axis_2">
    <g id="ytick_1">
     <g id="line2d_8">
      <defs>
       <path id="ma0fa35d0a0" d="M 0 0 
L -3.5 0 
" style="stroke: #000000; stroke-width: 0.8"/>
      </defs>
      <g>
       <use xlink:href="#ma0fa35d0a0" x="90" y="364.277647" style="stroke: #000000; stroke-width: 0.8"/>
      </g>
     </g>
     <g id="text_9">
      <!-- ['L'] -->
      <g transform="translate(64.128125 368.076866) scale(0.1 -0.1)">
       <defs>
        <path id="DejaVuSans-5b" d="M 550 4863 
L 1875 4863 
L 1875 4416 
L 1125 4416 
L 1125 -397 
L 1875 -397 
L 1875 -844 
L 550 -844 
L 550 4863 
z
" transform="scale(0.015625)"/>
        <path id="DejaVuSans-27" d="M 1147 4666 
L 1147 2931 
L 616 2931 
L 616 4666 
L 1147 4666 
z
" transform="scale(0.015625)"/>
        <path id="DejaVuSans-4c" d="M 628 4666 
L 1259 4666 
L 1259 531 
L 3531 531 
L 3531 0 
L 628 0 
L 628 4666 
z
" transform="scale(0.015625)"/>
        <path id="DejaVuSans-5d" d="M 1947 4863 
L 1947 -844 
L 622 -844 
L 622 -397 
L 1369 -397 
L 1369 4416 
L 622 4416 
L 622 4863 
L 1947 4863 
z
" transform="scale(0.015625)"/>
       </defs>
       <use xlink:href="#DejaVuSans-5b"/>
       <use xlink:href="#DejaVuSans-27" x="39.013672"/>
       <use xlink:href="#DejaVuSans-4c" x="66.503906"/>
       <use xlink:href="#DejaVuSans-27" x="122.216797"/>
       <use xlink:href="#DejaVuSans-5d" x="149.707031"/>
      </g>
     </g>
    </g>
    <g id="ytick_2">
     <g id="line2d_9">
      <g>
       <use xlink:href="#ma0fa35d0a0" x="90" y="351.571765" style="stroke: #000000; stroke-width: 0.8"/>
      </g>
     </g>
     <g id="text_10">
      <!-- ['B'] -->
      <g transform="translate(62.839062 355.370983) scale(0.1 -0.1)">
       <defs>
        <path id="DejaVuSans-42" d="M 1259 2228 
L 1259 519 
L 2272 519 
Q 2781 519 3026 730 
Q 3272 941 3272 1375 
Q 3272 1813 3026 2020 
Q 2781 2228 2272 2228 
L 1259 2228 
z
M 1259 4147 
L 1259 2741 
L 2194 2741 
Q 2656 2741 2882 2914 
Q 3109 3088 3109 3444 
Q 3109 3797 2882 3972 
Q 2656 4147 2194 4147 
L 1259 4147 
z
M 628 4666 
L 2241 4666 
Q 2963 4666 3353 4366 
Q 3744 4066 3744 3513 
Q 3744 3084 3544 2831 
Q 3344 2578 2956 2516 
Q 3422 2416 3680 2098 
Q 3938 1781 3938 1306 
Q 3938 681 3513 340 
Q 3088 0 2303 0 
L 628 0 
L 628 4666 
z
" transform="scale(0.015625)"/>
       </defs>
       <use xlink:href="#DejaVuSans-5b"/>
       <use xlink:href="#DejaVuSans-27" x="39.013672"/>
       <use xlink:href="#DejaVuSans-42" x="66.503906"/>
       <use xlink:href="#DejaVuSans-27" x="135.107422"/>
       <use xlink:href="#DejaVuSans-5d" x="162.597656"/>
      </g>
     </g>
    </g>
    <g id="ytick_3">
     <g id="line2d_10">
      <g>
       <use xlink:href="#ma0fa35d0a0" x="90" y="338.865882" style="stroke: #000000; stroke-width: 0.8"/>
      </g>
     </g>
     <g id="text_11">
      <!-- [] -->
      <g transform="translate(75.196875 342.665101) scale(0.1 -0.1)">
       <use xlink:href="#DejaVuSans-5b"/>
       <use xlink:href="#DejaVuSans-5d" x="39.013672"/>
      </g>
     </g>
    </g>
    <g id="ytick_4">
     <g id="line2d_11">
      <g>
       <use xlink:href="#ma0fa35d0a0" x="90" y="326.16" style="stroke: #000000; stroke-width: 0.8"/>
      </g>
     </g>
     <g id="text_12">
      <!-- ['U'] -->
      <g transform="translate(62.38125 329.959219) scale(0.1 -0.1)">
       <defs>
        <path id="DejaVuSans-55" d="M 556 4666 
L 1191 4666 
L 1191 1831 
Q 1191 1081 1462 751 
Q 1734 422 2344 422 
Q 2950 422 3222 751 
Q 3494 1081 3494 1831 
L 3494 4666 
L 4128 4666 
L 4128 1753 
Q 4128 841 3676 375 
Q 3225 -91 2344 -91 
Q 1459 -91 1007 375 
Q 556 841 556 1753 
L 556 4666 
z
" transform="scale(0.015625)"/>
       </defs>
       <use xlink:href="#DejaVuSans-5b"/>
       <use xlink:href="#DejaVuSans-27" x="39.013672"/>
       <use xlink:href="#DejaVuSans-55" x="66.503906"/>
       <use xlink:href="#DejaVuSans-27" x="139.697266"/>
       <use xlink:href="#DejaVuSans-5d" x="167.1875"/>
      </g>
     </g>
    </g>
    <g id="ytick_5">
     <g id="line2d_12">
      <g>
       <use xlink:href="#ma0fa35d0a0" x="90" y="313.454118" style="stroke: #000000; stroke-width: 0.8"/>
      </g>
     </g>
     <g id="text_13">
      <!-- ['W'] -->
      <g transform="translate(59.8125 317.253336) scale(0.1 -0.1)">
       <defs>
        <path id="DejaVuSans-57" d="M 213 4666 
L 850 4666 
L 1831 722 
L 2809 4666 
L 3519 4666 
L 4500 722 
L 5478 4666 
L 6119 4666 
L 4947 0 
L 4153 0 
L 3169 4050 
L 2175 0 
L 1381 0 
L 213 4666 
z
" transform="scale(0.015625)"/>
       </defs>
       <use xlink:href="#DejaVuSans-5b"/>
       <use xlink:href="#DejaVuSans-27" x="39.013672"/>
       <use xlink:href="#DejaVuSans-57" x="66.503906"/>
       <use xlink:href="#DejaVuSans-27" x="165.380859"/>
       <use xlink:href="#DejaVuSans-5d" x="192.871094"/>
      </g>
     </g>
    </g>
    <g id="ytick_6">
     <g id="line2d_13">
      <g>
       <use xlink:href="#ma0fa35d0a0" x="90" y="300.748235" style="stroke: #000000; stroke-width: 0.8"/>
      </g>
     </g>
     <g id="text_14">
      <!-- ['G'] -->
      <g transform="translate(61.951562 304.547454) scale(0.1 -0.1)">
       <defs>
        <path id="DejaVuSans-47" d="M 3809 666 
L 3809 1919 
L 2778 1919 
L 2778 2438 
L 4434 2438 
L 4434 434 
Q 4069 175 3628 42 
Q 3188 -91 2688 -91 
Q 1594 -91 976 548 
Q 359 1188 359 2328 
Q 359 3472 976 4111 
Q 1594 4750 2688 4750 
Q 3144 4750 3555 4637 
Q 3966 4525 4313 4306 
L 4313 3634 
Q 3963 3931 3569 4081 
Q 3175 4231 2741 4231 
Q 1884 4231 1454 3753 
Q 1025 3275 1025 2328 
Q 1025 1384 1454 906 
Q 1884 428 2741 428 
Q 3075 428 3337 486 
Q 3600 544 3809 666 
z
" transform="scale(0.015625)"/>
       </defs>
       <use xlink:href="#DejaVuSans-5b"/>
       <use xlink:href="#DejaVuSans-27" x="39.013672"/>
       <use xlink:href="#DejaVuSans-47" x="66.503906"/>
       <use xlink:href="#DejaVuSans-27" x="143.994141"/>
       <use xlink:href="#DejaVuSans-5d" x="171.484375"/>
      </g>
     </g>
    </g>
    <g id="ytick_7">
     <g id="line2d_14">
      <g>
       <use xlink:href="#ma0fa35d0a0" x="90" y="288.042353" style="stroke: #000000; stroke-width: 0.8"/>
      </g>
     </g>
     <g id="text_15">
      <!-- ['R'] -->
      <g transform="translate(62.751562 291.841572) scale(0.1 -0.1)">
       <defs>
        <path id="DejaVuSans-52" d="M 2841 2188 
Q 3044 2119 3236 1894 
Q 3428 1669 3622 1275 
L 4263 0 
L 3584 0 
L 2988 1197 
Q 2756 1666 2539 1819 
Q 2322 1972 1947 1972 
L 1259 1972 
L 1259 0 
L 628 0 
L 628 4666 
L 2053 4666 
Q 2853 4666 3247 4331 
Q 3641 3997 3641 3322 
Q 3641 2881 3436 2590 
Q 3231 2300 2841 2188 
z
M 1259 4147 
L 1259 2491 
L 2053 2491 
Q 2509 2491 2742 2702 
Q 2975 2913 2975 3322 
Q 2975 3731 2742 3939 
Q 2509 4147 2053 4147 
L 1259 4147 
z
" transform="scale(0.015625)"/>
       </defs>
       <use xlink:href="#DejaVuSans-5b"/>
       <use xlink:href="#DejaVuSans-27" x="39.013672"/>
       <use xlink:href="#DejaVuSans-52" x="66.503906"/>
       <use xlink:href="#DejaVuSans-27" x="135.986328"/>
       <use xlink:href="#DejaVuSans-5d" x="163.476562"/>
      </g>
     </g>
    </g>
    <g id="ytick_8">
     <g id="line2d_15">
      <g>
       <use xlink:href="#ma0fa35d0a0" x="90" y="275.336471" style="stroke: #000000; stroke-width: 0.8"/>
      </g>
     </g>
     <g id="text_16">
      <!-- ['B', 'R'] -->
      <g transform="translate(44.0375 279.135689) scale(0.1 -0.1)">
       <defs>
        <path id="DejaVuSans-2c" d="M 750 794 
L 1409 794 
L 1409 256 
L 897 -744 
L 494 -744 
L 750 256 
L 750 794 
z
" transform="scale(0.015625)"/>
        <path id="DejaVuSans-20" transform="scale(0.015625)"/>
       </defs>
       <use xlink:href="#DejaVuSans-5b"/>
       <use xlink:href="#DejaVuSans-27" x="39.013672"/>
       <use xlink:href="#DejaVuSans-42" x="66.503906"/>
       <use xlink:href="#DejaVuSans-27" x="135.107422"/>
       <use xlink:href="#DejaVuSans-2c" x="162.597656"/>
       <use xlink:href="#DejaVuSans-20" x="194.384766"/>
       <use xlink:href="#DejaVuSans-27" x="226.171875"/>
       <use xlink:href="#DejaVuSans-52" x="253.662109"/>
       <use xlink:href="#DejaVuSans-27" x="323.144531"/>
       <use xlink:href="#DejaVuSans-5d" x="350.634766"/>
      </g>
     </g>
    </g>
    <g id="ytick_9">
     <g id="line2d_16">
      <g>
       <use xlink:href="#ma0fa35d0a0" x="90" y="262.630588" style="stroke: #000000; stroke-width: 0.8"/>
      </g>
     </g>
     <g id="text_17">
      <!-- ['U', 'W'] -->
      <g transform="translate(40.640625 266.429807) scale(0.1 -0.1)">
       <use xlink:href="#DejaVuSans-5b"/>
       <use xlink:href="#DejaVuSans-27" x="39.013672"/>
       <use xlink:href="#DejaVuSans-55" x="66.503906"/>
       <use xlink:href="#DejaVuSans-27" x="139.697266"/>
       <use xlink:href="#DejaVuSans-2c" x="167.1875"/>
       <use xlink:href="#DejaVuSans-20" x="198.974609"/>
       <use xlink:href="#DejaVuSans-27" x="230.761719"/>
       <use xlink:href="#DejaVuSans-57" x="258.251953"/>
       <use xlink:href="#DejaVuSans-27" x="357.128906"/>
       <use xlink:href="#DejaVuSans-5d" x="384.619141"/>
      </g>
     </g>
    </g>
    <g id="ytick_10">
     <g id="line2d_17">
      <g>
       <use xlink:href="#ma0fa35d0a0" x="90" y="249.924706" style="stroke: #000000; stroke-width: 0.8"/>
      </g>
     </g>
     <g id="text_18">
      <!-- ['G', 'R'] -->
      <g transform="translate(43.15 253.723925) scale(0.1 -0.1)">
       <use xlink:href="#DejaVuSans-5b"/>
       <use xlink:href="#DejaVuSans-27" x="39.013672"/>
       <use xlink:href="#DejaVuSans-47" x="66.503906"/>
       <use xlink:href="#DejaVuSans-27" x="143.994141"/>
       <use xlink:href="#DejaVuSans-2c" x="171.484375"/>
       <use xlink:href="#DejaVuSans-20" x="203.271484"/>
       <use xlink:href="#DejaVuSans-27" x="235.058594"/>
       <use xlink:href="#DejaVuSans-52" x="262.548828"/>
       <use xlink:href="#DejaVuSans-27" x="332.03125"/>
       <use xlink:href="#DejaVuSans-5d" x="359.521484"/>
      </g>
     </g>
    </g>
    <g id="ytick_11">
     <g id="line2d_18">
      <g>
       <use xlink:href="#ma0fa35d0a0" x="90" y="237.218824" style="stroke: #000000; stroke-width: 0.8"/>
      </g>
     </g>
     <g id="text_19">
      <!-- ['G', 'U'] -->
      <g transform="translate(42.779687 241.018042) scale(0.1 -0.1)">
       <use xlink:href="#DejaVuSans-5b"/>
       <use xlink:href="#DejaVuSans-27" x="39.013672"/>
       <use xlink:href="#DejaVuSans-47" x="66.503906"/>
       <use xlink:href="#DejaVuSans-27" x="143.994141"/>
       <use xlink:href="#DejaVuSans-2c" x="171.484375"/>
       <use xlink:href="#DejaVuSans-20" x="203.271484"/>
       <use xlink:href="#DejaVuSans-27" x="235.058594"/>
       <use xlink:href="#DejaVuSans-55" x="262.548828"/>
       <use xlink:href="#DejaVuSans-27" x="335.742188"/>
       <use xlink:href="#DejaVuSans-5d" x="363.232422"/>
      </g>
     </g>
    </g>
    <g id="ytick_12">
     <g id="line2d_19">
      <g>
       <use xlink:href="#ma0fa35d0a0" x="90" y="224.512941" style="stroke: #000000; stroke-width: 0.8"/>
      </g>
     </g>
     <g id="text_20">
      <!-- ['B', 'U'] -->
      <g transform="translate(43.667187 228.31216) scale(0.1 -0.1)">
       <use xlink:href="#DejaVuSans-5b"/>
       <use xlink:href="#DejaVuSans-27" x="39.013672"/>
       <use xlink:href="#DejaVuSans-42" x="66.503906"/>
       <use xlink:href="#DejaVuSans-27" x="135.107422"/>
       <use xlink:href="#DejaVuSans-2c" x="162.597656"/>
       <use xlink:href="#DejaVuSans-20" x="194.384766"/>
       <use xlink:href="#DejaVuSans-27" x="226.171875"/>
       <use xlink:href="#DejaVuSans-55" x="253.662109"/>
       <use xlink:href="#DejaVuSans-27" x="326.855469"/>
       <use xlink:href="#DejaVuSans-5d" x="354.345703"/>
      </g>
     </g>
    </g>
    <g id="ytick_13">
     <g id="line2d_20">
      <g>
       <use xlink:href="#ma0fa35d0a0" x="90" y="211.807059" style="stroke: #000000; stroke-width: 0.8"/>
      </g>
     </g>
     <g id="text_21">
      <!-- ['B', 'G'] -->
      <g transform="translate(43.2375 215.606278) scale(0.1 -0.1)">
       <use xlink:href="#DejaVuSans-5b"/>
       <use xlink:href="#DejaVuSans-27" x="39.013672"/>
       <use xlink:href="#DejaVuSans-42" x="66.503906"/>
       <use xlink:href="#DejaVuSans-27" x="135.107422"/>
       <use xlink:href="#DejaVuSans-2c" x="162.597656"/>
       <use xlink:href="#DejaVuSans-20" x="194.384766"/>
       <use xlink:href="#DejaVuSans-27" x="226.171875"/>
       <use xlink:href="#DejaVuSans-47" x="253.662109"/>
       <use xlink:href="#DejaVuSans-27" x="331.152344"/>
       <use xlink:href="#DejaVuSans-5d" x="358.642578"/>
      </g>
     </g>
    </g>
    <g id="ytick_14">
     <g id="line2d_21">
      <g>
       <use xlink:href="#ma0fa35d0a0" x="90" y="199.101176" style="stroke: #000000; stroke-width: 0.8"/>
      </g>
     </g>
     <g id="text_22">
      <!-- ['G', 'W'] -->
      <g transform="translate(40.210938 202.900395) scale(0.1 -0.1)">
       <use xlink:href="#DejaVuSans-5b"/>
       <use xlink:href="#DejaVuSans-27" x="39.013672"/>
       <use xlink:href="#DejaVuSans-47" x="66.503906"/>
       <use xlink:href="#DejaVuSans-27" x="143.994141"/>
       <use xlink:href="#DejaVuSans-2c" x="171.484375"/>
       <use xlink:href="#DejaVuSans-20" x="203.271484"/>
       <use xlink:href="#DejaVuSans-27" x="235.058594"/>
       <use xlink:href="#DejaVuSans-57" x="262.548828"/>
       <use xlink:href="#DejaVuSans-27" x="361.425781"/>
       <use xlink:href="#DejaVuSans-5d" x="388.916016"/>
      </g>
     </g>
    </g>
    <g id="ytick_15">
     <g id="line2d_22">
      <g>
       <use xlink:href="#ma0fa35d0a0" x="90" y="186.395294" style="stroke: #000000; stroke-width: 0.8"/>
      </g>
     </g>
     <g id="text_23">
      <!-- ['R', 'U'] -->
      <g transform="translate(43.579687 190.194513) scale(0.1 -0.1)">
       <use xlink:href="#DejaVuSans-5b"/>
       <use xlink:href="#DejaVuSans-27" x="39.013672"/>
       <use xlink:href="#DejaVuSans-52" x="66.503906"/>
       <use xlink:href="#DejaVuSans-27" x="135.986328"/>
       <use xlink:href="#DejaVuSans-2c" x="163.476562"/>
       <use xlink:href="#DejaVuSans-20" x="195.263672"/>
       <use xlink:href="#DejaVuSans-27" x="227.050781"/>
       <use xlink:href="#DejaVuSans-55" x="254.541016"/>
       <use xlink:href="#DejaVuSans-27" x="327.734375"/>
       <use xlink:href="#DejaVuSans-5d" x="355.224609"/>
      </g>
     </g>
    </g>
    <g id="ytick_16">
     <g id="line2d_23">
      <g>
       <use xlink:href="#ma0fa35d0a0" x="90" y="173.689412" style="stroke: #000000; stroke-width: 0.8"/>
      </g>
     </g>
     <g id="text_24">
      <!-- ['R', 'W'] -->
      <g transform="translate(41.010937 177.488631) scale(0.1 -0.1)">
       <use xlink:href="#DejaVuSans-5b"/>
       <use xlink:href="#DejaVuSans-27" x="39.013672"/>
       <use xlink:href="#DejaVuSans-52" x="66.503906"/>
       <use xlink:href="#DejaVuSans-27" x="135.986328"/>
       <use xlink:href="#DejaVuSans-2c" x="163.476562"/>
       <use xlink:href="#DejaVuSans-20" x="195.263672"/>
       <use xlink:href="#DejaVuSans-27" x="227.050781"/>
       <use xlink:href="#DejaVuSans-57" x="254.541016"/>
       <use xlink:href="#DejaVuSans-27" x="353.417969"/>
       <use xlink:href="#DejaVuSans-5d" x="380.908203"/>
      </g>
     </g>
    </g>
    <g id="ytick_17">
     <g id="line2d_24">
      <g>
       <use xlink:href="#ma0fa35d0a0" x="90" y="160.983529" style="stroke: #000000; stroke-width: 0.8"/>
      </g>
     </g>
     <g id="text_25">
      <!-- ['B', 'W'] -->
      <g transform="translate(41.098437 164.782748) scale(0.1 -0.1)">
       <use xlink:href="#DejaVuSans-5b"/>
       <use xlink:href="#DejaVuSans-27" x="39.013672"/>
       <use xlink:href="#DejaVuSans-42" x="66.503906"/>
       <use xlink:href="#DejaVuSans-27" x="135.107422"/>
       <use xlink:href="#DejaVuSans-2c" x="162.597656"/>
       <use xlink:href="#DejaVuSans-20" x="194.384766"/>
       <use xlink:href="#DejaVuSans-27" x="226.171875"/>
       <use xlink:href="#DejaVuSans-57" x="253.662109"/>
       <use xlink:href="#DejaVuSans-27" x="352.539062"/>
       <use xlink:href="#DejaVuSans-5d" x="380.029297"/>
      </g>
     </g>
    </g>
    <g id="ytick_18">
     <g id="line2d_25">
      <g>
       <use xlink:href="#ma0fa35d0a0" x="90" y="148.277647" style="stroke: #000000; stroke-width: 0.8"/>
      </g>
     </g>
     <g id="text_26">
      <!-- ['G', 'R', 'W'] -->
      <g transform="translate(21.409375 152.076866) scale(0.1 -0.1)">
       <use xlink:href="#DejaVuSans-5b"/>
       <use xlink:href="#DejaVuSans-27" x="39.013672"/>
       <use xlink:href="#DejaVuSans-47" x="66.503906"/>
       <use xlink:href="#DejaVuSans-27" x="143.994141"/>
       <use xlink:href="#DejaVuSans-2c" x="171.484375"/>
       <use xlink:href="#DejaVuSans-20" x="203.271484"/>
       <use xlink:href="#DejaVuSans-27" x="235.058594"/>
       <use xlink:href="#DejaVuSans-52" x="262.548828"/>
       <use xlink:href="#DejaVuSans-27" x="332.03125"/>
       <use xlink:href="#DejaVuSans-2c" x="359.521484"/>
       <use xlink:href="#DejaVuSans-20" x="391.308594"/>
       <use xlink:href="#DejaVuSans-27" x="423.095703"/>
       <use xlink:href="#DejaVuSans-57" x="450.585938"/>
       <use xlink:href="#DejaVuSans-27" x="549.462891"/>
       <use xlink:href="#DejaVuSans-5d" x="576.953125"/>
      </g>
     </g>
    </g>
    <g id="ytick_19">
     <g id="line2d_26">
      <g>
       <use xlink:href="#ma0fa35d0a0" x="90" y="135.571765" style="stroke: #000000; stroke-width: 0.8"/>
      </g>
     </g>
     <g id="text_27">
      <!-- ['B', 'G', 'U'] -->
      <g transform="translate(24.065625 139.370983) scale(0.1 -0.1)">
       <use xlink:href="#DejaVuSans-5b"/>
       <use xlink:href="#DejaVuSans-27" x="39.013672"/>
       <use xlink:href="#DejaVuSans-42" x="66.503906"/>
       <use xlink:href="#DejaVuSans-27" x="135.107422"/>
       <use xlink:href="#DejaVuSans-2c" x="162.597656"/>
       <use xlink:href="#DejaVuSans-20" x="194.384766"/>
       <use xlink:href="#DejaVuSans-27" x="226.171875"/>
       <use xlink:href="#DejaVuSans-47" x="253.662109"/>
       <use xlink:href="#DejaVuSans-27" x="331.152344"/>
       <use xlink:href="#DejaVuSans-2c" x="358.642578"/>
       <use xlink:href="#DejaVuSans-20" x="390.429688"/>
       <use xlink:href="#DejaVuSans-27" x="422.216797"/>
       <use xlink:href="#DejaVuSans-55" x="449.707031"/>
       <use xlink:href="#DejaVuSans-27" x="522.900391"/>
       <use xlink:href="#DejaVuSans-5d" x="550.390625"/>
      </g>
     </g>
    </g>
    <g id="ytick_20">
     <g id="line2d_27">
      <g>
       <use xlink:href="#ma0fa35d0a0" x="90" y="122.865882" style="stroke: #000000; stroke-width: 0.8"/>
      </g>
     </g>
     <g id="text_28">
      <!-- ['B', 'G', 'U', 'W'] -->
      <g transform="translate(2.325 126.665101) scale(0.1 -0.1)">
       <use xlink:href="#DejaVuSans-5b"/>
       <use xlink:href="#DejaVuSans-27" x="39.013672"/>
       <use xlink:href="#DejaVuSans-42" x="66.503906"/>
       <use xlink:href="#DejaVuSans-27" x="135.107422"/>
       <use xlink:href="#DejaVuSans-2c" x="162.597656"/>
       <use xlink:href="#DejaVuSans-20" x="194.384766"/>
       <use xlink:href="#DejaVuSans-27" x="226.171875"/>
       <use xlink:href="#DejaVuSans-47" x="253.662109"/>
       <use xlink:href="#DejaVuSans-27" x="331.152344"/>
       <use xlink:href="#DejaVuSans-2c" x="358.642578"/>
       <use xlink:href="#DejaVuSans-20" x="390.429688"/>
       <use xlink:href="#DejaVuSans-27" x="422.216797"/>
       <use xlink:href="#DejaVuSans-55" x="449.707031"/>
       <use xlink:href="#DejaVuSans-27" x="522.900391"/>
       <use xlink:href="#DejaVuSans-2c" x="550.390625"/>
       <use xlink:href="#DejaVuSans-20" x="582.177734"/>
       <use xlink:href="#DejaVuSans-27" x="613.964844"/>
       <use xlink:href="#DejaVuSans-57" x="641.455078"/>
       <use xlink:href="#DejaVuSans-27" x="740.332031"/>
       <use xlink:href="#DejaVuSans-5d" x="767.822266"/>
      </g>
     </g>
    </g>
    <g id="ytick_21">
     <g id="line2d_28">
      <g>
       <use xlink:href="#ma0fa35d0a0" x="90" y="110.16" style="stroke: #000000; stroke-width: 0.8"/>
      </g>
     </g>
     <g id="text_29">
      <!-- ['G', 'R', 'U', 'W'] -->
      <g transform="translate(2.2375 113.959219) scale(0.1 -0.1)">
       <use xlink:href="#DejaVuSans-5b"/>
       <use xlink:href="#DejaVuSans-27" x="39.013672"/>
       <use xlink:href="#DejaVuSans-47" x="66.503906"/>
       <use xlink:href="#DejaVuSans-27" x="143.994141"/>
       <use xlink:href="#DejaVuSans-2c" x="171.484375"/>
       <use xlink:href="#DejaVuSans-20" x="203.271484"/>
       <use xlink:href="#DejaVuSans-27" x="235.058594"/>
       <use xlink:href="#DejaVuSans-52" x="262.548828"/>
       <use xlink:href="#DejaVuSans-27" x="332.03125"/>
       <use xlink:href="#DejaVuSans-2c" x="359.521484"/>
       <use xlink:href="#DejaVuSans-20" x="391.308594"/>
       <use xlink:href="#DejaVuSans-27" x="423.095703"/>
       <use xlink:href="#DejaVuSans-55" x="450.585938"/>
       <use xlink:href="#DejaVuSans-27" x="523.779297"/>
       <use xlink:href="#DejaVuSans-2c" x="551.269531"/>
       <use xlink:href="#DejaVuSans-20" x="583.056641"/>
       <use xlink:href="#DejaVuSans-27" x="614.84375"/>
       <use xlink:href="#DejaVuSans-57" x="642.333984"/>
       <use xlink:href="#DejaVuSans-27" x="741.210938"/>
       <use xlink:href="#DejaVuSans-5d" x="768.701172"/>
      </g>
     </g>
    </g>
    <g id="ytick_22">
     <g id="line2d_29">
      <g>
       <use xlink:href="#ma0fa35d0a0" x="90" y="97.454118" style="stroke: #000000; stroke-width: 0.8"/>
      </g>
     </g>
     <g id="text_30">
      <!-- ['B', 'R', 'U'] -->
      <g transform="translate(24.865625 101.253336) scale(0.1 -0.1)">
       <use xlink:href="#DejaVuSans-5b"/>
       <use xlink:href="#DejaVuSans-27" x="39.013672"/>
       <use xlink:href="#DejaVuSans-42" x="66.503906"/>
       <use xlink:href="#DejaVuSans-27" x="135.107422"/>
       <use xlink:href="#DejaVuSans-2c" x="162.597656"/>
       <use xlink:href="#DejaVuSans-20" x="194.384766"/>
       <use xlink:href="#DejaVuSans-27" x="226.171875"/>
       <use xlink:href="#DejaVuSans-52" x="253.662109"/>
       <use xlink:href="#DejaVuSans-27" x="323.144531"/>
       <use xlink:href="#DejaVuSans-2c" x="350.634766"/>
       <use xlink:href="#DejaVuSans-20" x="382.421875"/>
       <use xlink:href="#DejaVuSans-27" x="414.208984"/>
       <use xlink:href="#DejaVuSans-55" x="441.699219"/>
       <use xlink:href="#DejaVuSans-27" x="514.892578"/>
       <use xlink:href="#DejaVuSans-5d" x="542.382812"/>
      </g>
     </g>
    </g>
    <g id="ytick_23">
     <g id="line2d_30">
      <g>
       <use xlink:href="#ma0fa35d0a0" x="90" y="84.748235" style="stroke: #000000; stroke-width: 0.8"/>
      </g>
     </g>
     <g id="text_31">
      <!-- ['R', 'U', 'W'] -->
      <g transform="translate(21.839062 88.547454) scale(0.1 -0.1)">
       <use xlink:href="#DejaVuSans-5b"/>
       <use xlink:href="#DejaVuSans-27" x="39.013672"/>
       <use xlink:href="#DejaVuSans-52" x="66.503906"/>
       <use xlink:href="#DejaVuSans-27" x="135.986328"/>
       <use xlink:href="#DejaVuSans-2c" x="163.476562"/>
       <use xlink:href="#DejaVuSans-20" x="195.263672"/>
       <use xlink:href="#DejaVuSans-27" x="227.050781"/>
       <use xlink:href="#DejaVuSans-55" x="254.541016"/>
       <use xlink:href="#DejaVuSans-27" x="327.734375"/>
       <use xlink:href="#DejaVuSans-2c" x="355.224609"/>
       <use xlink:href="#DejaVuSans-20" x="387.011719"/>
       <use xlink:href="#DejaVuSans-27" x="418.798828"/>
       <use xlink:href="#DejaVuSans-57" x="446.289062"/>
       <use xlink:href="#DejaVuSans-27" x="545.166016"/>
       <use xlink:href="#DejaVuSans-5d" x="572.65625"/>
      </g>
     </g>
    </g>
    <g id="ytick_24">
     <g id="line2d_31">
      <g>
       <use xlink:href="#ma0fa35d0a0" x="90" y="72.042353" style="stroke: #000000; stroke-width: 0.8"/>
      </g>
     </g>
     <g id="text_32">
      <!-- ['G', 'R', 'U'] -->
      <g transform="translate(23.978125 75.841572) scale(0.1 -0.1)">
       <use xlink:href="#DejaVuSans-5b"/>
       <use xlink:href="#DejaVuSans-27" x="39.013672"/>
       <use xlink:href="#DejaVuSans-47" x="66.503906"/>
       <use xlink:href="#DejaVuSans-27" x="143.994141"/>
       <use xlink:href="#DejaVuSans-2c" x="171.484375"/>
       <use xlink:href="#DejaVuSans-20" x="203.271484"/>
       <use xlink:href="#DejaVuSans-27" x="235.058594"/>
       <use xlink:href="#DejaVuSans-52" x="262.548828"/>
       <use xlink:href="#DejaVuSans-27" x="332.03125"/>
       <use xlink:href="#DejaVuSans-2c" x="359.521484"/>
       <use xlink:href="#DejaVuSans-20" x="391.308594"/>
       <use xlink:href="#DejaVuSans-27" x="423.095703"/>
       <use xlink:href="#DejaVuSans-55" x="450.585938"/>
       <use xlink:href="#DejaVuSans-27" x="523.779297"/>
       <use xlink:href="#DejaVuSans-5d" x="551.269531"/>
      </g>
     </g>
    </g>
    <g id="text_33">
     <!-- Colors -->
     <g transform="translate(-3.842188 233.819375) rotate(-90) scale(0.1 -0.1)">
      <defs>
       <path id="DejaVuSans-6c" d="M 603 4863 
L 1178 4863 
L 1178 0 
L 603 0 
L 603 4863 
z
" transform="scale(0.015625)"/>
       <path id="DejaVuSans-72" d="M 2631 2963 
Q 2534 3019 2420 3045 
Q 2306 3072 2169 3072 
Q 1681 3072 1420 2755 
Q 1159 2438 1159 1844 
L 1159 0 
L 581 0 
L 581 3500 
L 1159 3500 
L 1159 2956 
Q 1341 3275 1631 3429 
Q 1922 3584 2338 3584 
Q 2397 3584 2469 3576 
Q 2541 3569 2628 3553 
L 2631 2963 
z
" transform="scale(0.015625)"/>
       <path id="DejaVuSans-73" d="M 2834 3397 
L 2834 2853 
Q 2591 2978 2328 3040 
Q 2066 3103 1784 3103 
Q 1356 3103 1142 2972 
Q 928 2841 928 2578 
Q 928 2378 1081 2264 
Q 1234 2150 1697 2047 
L 1894 2003 
Q 2506 1872 2764 1633 
Q 3022 1394 3022 966 
Q 3022 478 2636 193 
Q 2250 -91 1575 -91 
Q 1294 -91 989 -36 
Q 684 19 347 128 
L 347 722 
Q 666 556 975 473 
Q 1284 391 1588 391 
Q 1994 391 2212 530 
Q 2431 669 2431 922 
Q 2431 1156 2273 1281 
Q 2116 1406 1581 1522 
L 1381 1569 
Q 847 1681 609 1914 
Q 372 2147 372 2553 
Q 372 3047 722 3315 
Q 1072 3584 1716 3584 
Q 2034 3584 2315 3537 
Q 2597 3491 2834 3397 
z
" transform="scale(0.015625)"/>
      </defs>
      <use xlink:href="#DejaVuSans-43"/>
      <use xlink:href="#DejaVuSans-6f" x="69.824219"/>
      <use xlink:href="#DejaVuSans-6c" x="131.005859"/>
      <use xlink:href="#DejaVuSans-6f" x="158.789062"/>
      <use xlink:href="#DejaVuSans-72" x="219.970703"/>
      <use xlink:href="#DejaVuSans-73" x="261.083984"/>
     </g>
    </g>
   </g>
   <g id="patch_27">
    <path d="M 90 384.48 
L 90 51.84 
" style="fill: none; stroke: #000000; stroke-width: 0.8; stroke-linejoin: miter; stroke-linecap: square"/>
   </g>
   <g id="patch_28">
    <path d="M 648 384.48 
L 648 51.84 
" style="fill: none; stroke: #000000; stroke-width: 0.8; stroke-linejoin: miter; stroke-linecap: square"/>
   </g>
   <g id="patch_29">
    <path d="M 90 384.48 
L 648 384.48 
" style="fill: none; stroke: #000000; stroke-width: 0.8; stroke-linejoin: miter; stroke-linecap: square"/>
   </g>
   <g id="patch_30">
    <path d="M 90 51.84 
L 648 51.84 
" style="fill: none; stroke: #000000; stroke-width: 0.8; stroke-linejoin: miter; stroke-linecap: square"/>
   </g>
   <g id="text_34">
    <!-- Horizontal Bar Chart of Color Distribution -->
    <g transform="translate(245.630625 45.84) scale(0.12 -0.12)">
     <defs>
      <path id="DejaVuSans-48" d="M 628 4666 
L 1259 4666 
L 1259 2753 
L 3553 2753 
L 3553 4666 
L 4184 4666 
L 4184 0 
L 3553 0 
L 3553 2222 
L 1259 2222 
L 1259 0 
L 628 0 
L 628 4666 
z
" transform="scale(0.015625)"/>
      <path id="DejaVuSans-69" d="M 603 3500 
L 1178 3500 
L 1178 0 
L 603 0 
L 603 3500 
z
M 603 4863 
L 1178 4863 
L 1178 4134 
L 603 4134 
L 603 4863 
z
" transform="scale(0.015625)"/>
      <path id="DejaVuSans-7a" d="M 353 3500 
L 3084 3500 
L 3084 2975 
L 922 459 
L 3084 459 
L 3084 0 
L 275 0 
L 275 525 
L 2438 3041 
L 353 3041 
L 353 3500 
z
" transform="scale(0.015625)"/>
      <path id="DejaVuSans-61" d="M 2194 1759 
Q 1497 1759 1228 1600 
Q 959 1441 959 1056 
Q 959 750 1161 570 
Q 1363 391 1709 391 
Q 2188 391 2477 730 
Q 2766 1069 2766 1631 
L 2766 1759 
L 2194 1759 
z
M 3341 1997 
L 3341 0 
L 2766 0 
L 2766 531 
Q 2569 213 2275 61 
Q 1981 -91 1556 -91 
Q 1019 -91 701 211 
Q 384 513 384 1019 
Q 384 1609 779 1909 
Q 1175 2209 1959 2209 
L 2766 2209 
L 2766 2266 
Q 2766 2663 2505 2880 
Q 2244 3097 1772 3097 
Q 1472 3097 1187 3025 
Q 903 2953 641 2809 
L 641 3341 
Q 956 3463 1253 3523 
Q 1550 3584 1831 3584 
Q 2591 3584 2966 3190 
Q 3341 2797 3341 1997 
z
" transform="scale(0.015625)"/>
      <path id="DejaVuSans-68" d="M 3513 2113 
L 3513 0 
L 2938 0 
L 2938 2094 
Q 2938 2591 2744 2837 
Q 2550 3084 2163 3084 
Q 1697 3084 1428 2787 
Q 1159 2491 1159 1978 
L 1159 0 
L 581 0 
L 581 4863 
L 1159 4863 
L 1159 2956 
Q 1366 3272 1645 3428 
Q 1925 3584 2291 3584 
Q 2894 3584 3203 3211 
Q 3513 2838 3513 2113 
z
" transform="scale(0.015625)"/>
      <path id="DejaVuSans-66" d="M 2375 4863 
L 2375 4384 
L 1825 4384 
Q 1516 4384 1395 4259 
Q 1275 4134 1275 3809 
L 1275 3500 
L 2222 3500 
L 2222 3053 
L 1275 3053 
L 1275 0 
L 697 0 
L 697 3053 
L 147 3053 
L 147 3500 
L 697 3500 
L 697 3744 
Q 697 4328 969 4595 
Q 1241 4863 1831 4863 
L 2375 4863 
z
" transform="scale(0.015625)"/>
      <path id="DejaVuSans-44" d="M 1259 4147 
L 1259 519 
L 2022 519 
Q 2988 519 3436 956 
Q 3884 1394 3884 2338 
Q 3884 3275 3436 3711 
Q 2988 4147 2022 4147 
L 1259 4147 
z
M 628 4666 
L 1925 4666 
Q 3281 4666 3915 4102 
Q 4550 3538 4550 2338 
Q 4550 1131 3912 565 
Q 3275 0 1925 0 
L 628 0 
L 628 4666 
z
" transform="scale(0.015625)"/>
      <path id="DejaVuSans-62" d="M 3116 1747 
Q 3116 2381 2855 2742 
Q 2594 3103 2138 3103 
Q 1681 3103 1420 2742 
Q 1159 2381 1159 1747 
Q 1159 1113 1420 752 
Q 1681 391 2138 391 
Q 2594 391 2855 752 
Q 3116 1113 3116 1747 
z
M 1159 2969 
Q 1341 3281 1617 3432 
Q 1894 3584 2278 3584 
Q 2916 3584 3314 3078 
Q 3713 2572 3713 1747 
Q 3713 922 3314 415 
Q 2916 -91 2278 -91 
Q 1894 -91 1617 61 
Q 1341 213 1159 525 
L 1159 0 
L 581 0 
L 581 4863 
L 1159 4863 
L 1159 2969 
z
" transform="scale(0.015625)"/>
     </defs>
     <use xlink:href="#DejaVuSans-48"/>
     <use xlink:href="#DejaVuSans-6f" x="75.195312"/>
     <use xlink:href="#DejaVuSans-72" x="136.376953"/>
     <use xlink:href="#DejaVuSans-69" x="177.490234"/>
     <use xlink:href="#DejaVuSans-7a" x="205.273438"/>
     <use xlink:href="#DejaVuSans-6f" x="257.763672"/>
     <use xlink:href="#DejaVuSans-6e" x="318.945312"/>
     <use xlink:href="#DejaVuSans-74" x="382.324219"/>
     <use xlink:href="#DejaVuSans-61" x="421.533203"/>
     <use xlink:href="#DejaVuSans-6c" x="482.8125"/>
     <use xlink:href="#DejaVuSans-20" x="510.595703"/>
     <use xlink:href="#DejaVuSans-42" x="542.382812"/>
     <use xlink:href="#DejaVuSans-61" x="610.986328"/>
     <use xlink:href="#DejaVuSans-72" x="672.265625"/>
     <use xlink:href="#DejaVuSans-20" x="713.378906"/>
     <use xlink:href="#DejaVuSans-43" x="745.166016"/>
     <use xlink:href="#DejaVuSans-68" x="814.990234"/>
     <use xlink:href="#DejaVuSans-61" x="878.369141"/>
     <use xlink:href="#DejaVuSans-72" x="939.648438"/>
     <use xlink:href="#DejaVuSans-74" x="980.761719"/>
     <use xlink:href="#DejaVuSans-20" x="1019.970703"/>
     <use xlink:href="#DejaVuSans-6f" x="1051.757812"/>
     <use xlink:href="#DejaVuSans-66" x="1112.939453"/>
     <use xlink:href="#DejaVuSans-20" x="1148.144531"/>
     <use xlink:href="#DejaVuSans-43" x="1179.931641"/>
     <use xlink:href="#DejaVuSans-6f" x="1249.755859"/>
     <use xlink:href="#DejaVuSans-6c" x="1310.9375"/>
     <use xlink:href="#DejaVuSans-6f" x="1338.720703"/>
     <use xlink:href="#DejaVuSans-72" x="1399.902344"/>
     <use xlink:href="#DejaVuSans-20" x="1441.015625"/>
     <use xlink:href="#DejaVuSans-44" x="1472.802734"/>
     <use xlink:href="#DejaVuSans-69" x="1549.804688"/>
     <use xlink:href="#DejaVuSans-73" x="1577.587891"/>
     <use xlink:href="#DejaVuSans-74" x="1629.6875"/>
     <use xlink:href="#DejaVuSans-72" x="1668.896484"/>
     <use xlink:href="#DejaVuSans-69" x="1710.009766"/>
     <use xlink:href="#DejaVuSans-62" x="1737.792969"/>
     <use xlink:href="#DejaVuSans-75" x="1801.269531"/>
     <use xlink:href="#DejaVuSans-74" x="1864.648438"/>
     <use xlink:href="#DejaVuSans-69" x="1903.857422"/>
     <use xlink:href="#DejaVuSans-6f" x="1931.640625"/>
     <use xlink:href="#DejaVuSans-6e" x="1992.822266"/>
    </g>
   </g>
  </g>
 </g>
 <defs>
  <clipPath id="p3882dc51c6">
   <rect x="90" y="51.84" width="558" height="332.64"/>
  </clipPath>
 </defs>
</svg>
